<?xml version="1.0" encoding="UTF-8"?>
<svg id="Calque_2" data-name="Calque 2" xmlns="http://www.w3.org/2000/svg" viewBox="0 0 444.32 232.26">
  <defs>
    <style>
      .cls-1 {
        fill: #fff;
      }
    </style>
  </defs>
  <g id="Calque_1-2" data-name="Calque 1">
    <path class="cls-1" d="m435.1,9.58c-2.95-3.03-6.46-5.44-10.33-7.09-3.87-1.64-8.01-2.49-12.2-2.49s-8.34.85-12.2,2.49c-3.87,1.64-7.38,4.05-10.33,7.09l-145.34,148.3c-2.95,3.03-6.46,5.44-10.33,7.09-3.87,1.64-8.01,2.49-12.2,2.49s-8.34-.85-12.2-2.49c-3.87-1.64-7.38-4.05-10.33-7.09L54.29,9.58c-2.95-3.03-6.46-5.44-10.33-7.09-3.87-1.64-8.01-2.49-12.2-2.49s-8.34.85-12.2,2.49c-3.87,1.64-7.38,4.05-10.33,7.09C3.32,15.64,0,23.85,0,32.41s3.32,16.76,9.23,22.83l145.66,148.62c17.85,18.19,42.05,28.41,67.28,28.41s49.43-10.22,67.28-28.41L435.1,55.23c5.91-6.07,9.23-14.27,9.23-22.83s-3.32-16.76-9.23-22.83Z"/>
  </g>
</svg>