<?xml version="1.0" encoding="UTF-8"?>
<svg id="Outline" xmlns="http://www.w3.org/2000/svg" viewBox="0 0 512 512">
  <defs>
    <style>
      .cls-1 {
        fill: #fff;
      }
    </style>
  </defs>
  <path class="cls-1" d="m362.67,234.67h-85.33v-85.33c0-11.78-9.55-21.33-21.33-21.33h0c-11.78,0-21.33,9.55-21.33,21.33v85.33h-85.33c-11.78,0-21.33,9.55-21.33,21.33h0c0,11.78,9.55,21.33,21.33,21.33h85.33v85.33c0,11.78,9.55,21.33,21.33,21.33h0c11.78,0,21.33-9.55,21.33-21.33v-85.33h85.33c11.78,0,21.33-9.55,21.33-21.33h0c0-11.78-9.55-21.33-21.33-21.33Z"/>
</svg>