<?xml version="1.0" encoding="UTF-8"?>
<svg xmlns="http://www.w3.org/2000/svg" id="Layer_1" data-name="Layer 1" viewBox="0 0 24 24" width="20" height="20"><path d="M12,17c-2.76,0-5-2.24-5-5s2.24-5,5-5,5,2.24,5,5-2.24,5-5,5Zm1-13V1c0-.55-.45-1-1-1s-1,.45-1,1v3c0,.55,.45,1,1,1s1-.45,1-1Zm0,19v-3c0-.55-.45-1-1-1s-1,.45-1,1v3c0,.55,.45,1,1,1s1-.45,1-1ZM5,12c0-.55-.45-1-1-1H1c-.55,0-1,.45-1,1s.45,1,1,1h3c.55,0,1-.45,1-1Zm19,0c0-.55-.45-1-1-1h-3c-.55,0-1,.45-1,1s.45,1,1,1h3c.55,0,1-.45,1-1ZM6.71,6.71c.39-.39,.39-1.02,0-1.41l-2-2c-.39-.39-1.02-.39-1.41,0s-.39,1.02,0,1.41l2,2c.2,.2,.45,.29,.71,.29s.51-.1,.71-.29Zm14,14c.39-.39,.39-1.02,0-1.41l-2-2c-.39-.39-1.02-.39-1.41,0s-.39,1.02,0,1.41l2,2c.2,.2,.45,.29,.71,.29s.51-.1,.71-.29Zm-16,0l2-2c.39-.39,.39-1.02,0-1.41s-1.02-.39-1.41,0l-2,2c-.39,.39-.39,1.02,0,1.41,.2,.2,.45,.29,.71,.29s.51-.1,.71-.29ZM18.71,6.71l2-2c.39-.39,.39-1.02,0-1.41s-1.02-.39-1.41,0l-2,2c-.39,.39-.39,1.02,0,1.41,.2,.2,.45,.29,.71,.29s.51-.1,.71-.29Z"/></svg>
