<?xml version="1.0" encoding="UTF-8"?>
<svg id="Calque_2" data-name="Calque 2" xmlns="http://www.w3.org/2000/svg" viewBox="0 0 252.48 275.44">
  <defs>
    <style>
      .cls-1 {
        fill: #fff;
      }
    </style>
  </defs>
  <g id="Calque_1-2" data-name="Calque 1">
    <path class="cls-1" d="m252.48,51.64c0-9.51-7.71-17.21-17.21-17.21h-43.34C184.68,13.86,165.27.07,143.46,0h-34.43c-21.81.07-41.23,13.86-48.48,34.43H17.21C7.71,34.43,0,42.14,0,51.64s7.71,17.21,17.21,17.21h5.74v143.46c0,34.86,28.26,63.12,63.12,63.12h80.34c34.86,0,63.12-28.26,63.12-63.12V68.86h5.74c9.51,0,17.21-7.71,17.21-17.21Zm-57.38,160.67c0,15.85-12.85,28.69-28.69,28.69h-80.34c-15.85,0-28.69-12.85-28.69-28.69V68.86h137.72v143.46Z"/>
    <path class="cls-1" d="m97.55,206.58c9.51,0,17.21-7.71,17.21-17.21v-68.86c0-9.51-7.71-17.21-17.21-17.21s-17.21,7.71-17.21,17.21v68.86c0,9.51,7.71,17.21,17.21,17.21Z"/>
    <path class="cls-1" d="m154.93,206.58c9.51,0,17.21-7.71,17.21-17.21v-68.86c0-9.51-7.71-17.21-17.21-17.21s-17.21,7.71-17.21,17.21v68.86c0,9.51,7.71,17.21,17.21,17.21Z"/>
  </g>
</svg>