<?xml version="1.0" encoding="UTF-8"?>
<svg id="Calque_2" data-name="Calque 2" xmlns="http://www.w3.org/2000/svg" viewBox="0 0 524.31 150.2">
  <defs>
    <style>
      .cls-1 {
        fill: #fe0000;
      }
    </style>
  </defs>
  <g id="Calque_1-2" data-name="Calque 1">
    <g>
      <g>
        <path d="m190.71,58.58h-13.83v-14.69h6.05c6.05,0,10.37-4.32,10.37-10.37v-10.37h12.96v20.74h17.29v14.69h-17.29v37.16c0,6.91,5.19,12.1,12.1,12.1,1.21,0,2.42-.17,3.63-.35l1.56-.52v13.83c-.69.35-1.56.69-2.42.86-1.73.52-3.8.86-6.22.86-13.83,0-24.2-10.37-24.2-26.79v-37.16Z"/>
        <path d="m242.56,12.78h15.56v38.89c1.56-1.56,3.46-3.11,5.53-4.32,3.63-2.07,9.16-4.32,16.08-4.32,17.29,0,31.11,13.83,31.11,33.71v44.94h-15.56v-44.94c0-10.2-8.47-19.01-18.15-19.01-10.54,0-19.01,8.82-19.01,19.01v44.94h-15.56V12.78Z"/>
        <path d="m335.04,136.37c8.82,0,12.79-4.15,14.69-9.51l2.59-7.78-30.25-75.19h16.42l21.61,56.18,21.61-56.18h16.42l-32.84,82.97c-6.91,17.29-12.96,23.33-25.06,23.33-1.38,0-2.42-.17-3.63-.35l-1.56-.52v-12.96Z"/>
        <path d="m410.23,43.89h11.23l3.46,7.78c1.38-1.56,3.11-3.11,5.01-4.32,3.28-2.07,8.12-4.32,14.87-4.32,1.9,0,2.94.35,3.8.52l1.38.35v15.56l-1.56-.35c-1.21-.17-2.42-.52-3.63-.52-10.54,0-19.01,8.82-19.01,19.01v44.08h-15.56V43.89Z"/>
        <path d="m509.62,113.9c-1.56,1.56-3.28,3.11-5.36,4.32-3.63,2.25-9.33,4.32-17.11,4.32-17.29,0-26.79-9.51-26.79-23.33,0-15.56,10.37-25.93,48.4-25.93v-2.59c0-7.78-5.01-12.96-14.69-12.96-10.37,0-14.69,4.15-15.56,9.51h-15.56c.86-13.83,11.93-24.2,31.11-24.2,18.15,0,30.25,12.1,30.25,27.66v50.99h-11.24l-3.46-7.78Zm-.86-26.79c-27.66,0-32.84,5.19-32.84,12.96,0,4.32,4.32,8.64,12.1,8.64,13.14,0,20.74-7.78,20.74-17.46v-4.15Z"/>
      </g>
      <g>
        <polygon class="cls-1" points="51.33 118.48 25.66 133.3 0 118.49 25.66 103.67 51.33 118.48"/>
        <polygon class="cls-1" points="51.58 88.98 51.58 29.71 77.24 44.84 77.24 103.54 51.33 118.48 76.63 133.3 128.22 103.8 102.55 88.72 128.22 73.56 102.55 59.09 128.22 44.19 51.58 0 0 29.5 25.92 44.53 0 58.88 25.92 74.16 0 89.11 25.66 103.67 51.58 88.98"/>
      </g>
    </g>
  </g>
</svg>