<svg width="100%" height="100%" viewBox="0 0 307 260" fill="none" xmlns="http://www.w3.org/2000/svg">
<g clip-path="url(#clip0_2551_20005)">
<path d="M0 8C0 3.58172 3.58172 0 8 0H299C303.418 0 307 3.58172 307 8V260H0V8Z" fill="#2E374C"/>
<g clip-path="url(#clip1_2551_20005)">
<mask id="mask0_2551_20005" style="mask-type:luminance" maskUnits="userSpaceOnUse" x="-18" y="-42" width="343" height="343">
<path d="M325 -42H-18V301H325V-42Z" fill="white"/>
</mask>
<g mask="url(#mask0_2551_20005)">
<path d="M153.491 301V204.907L-18 129.491H78.0937L153.491 -42V54.0937L325 129.491H228.907L153.491 301Z" fill="#151A26"/>
</g>
</g>
<rect x="-17" y="-41" width="341" height="341" rx="7" stroke="#151A26" stroke-width="2"/>
</g>
<defs>
<clipPath id="clip0_2551_20005">
<path d="M0 8C0 3.58172 3.58172 0 8 0H299C303.418 0 307 3.58172 307 8V260H0V8Z" fill="white"/>
</clipPath>
<clipPath id="clip1_2551_20005">
<rect x="-18" y="-42" width="343" height="343" rx="8" fill="white"/>
</clipPath>
</defs>
</svg>
