<?xml version="1.0" encoding="UTF-8" standalone="no"?>
<!-- Generator: Adobe Illustrator 18.0.0, SVG Export Plug-In . SVG Version: 6.00 Build 0)  -->

<svg
   version="1.1"
   id="Capa_1"
   x="0px"
   y="0px"
   viewBox="0 0 699.99999 494.04"
   xml:space="preserve"
   sodipodi:docname="info.svg"
   width="700"
   height="494.04001"
   inkscape:version="1.2.1 (9c6d41e410, 2022-07-14)"
   xmlns:inkscape="http://www.inkscape.org/namespaces/inkscape"
   xmlns:sodipodi="http://sodipodi.sourceforge.net/DTD/sodipodi-0.dtd"
   xmlns="http://www.w3.org/2000/svg"
   xmlns:svg="http://www.w3.org/2000/svg"><defs
   id="defs38" /><sodipodi:namedview
   id="namedview36"
   pagecolor="#ffffff"
   bordercolor="#000000"
   borderopacity="0.25"
   inkscape:showpageshadow="2"
   inkscape:pageopacity="0.0"
   inkscape:pagecheckerboard="0"
   inkscape:deskcolor="#d1d1d1"
   showgrid="false"
   inkscape:zoom="1.1650573"
   inkscape:cx="262.64803"
   inkscape:cy="263.93552"
   inkscape:window-width="1920"
   inkscape:window-height="1001"
   inkscape:window-x="-9"
   inkscape:window-y="-9"
   inkscape:window-maximized="1"
   inkscape:current-layer="Capa_1" />
<g
   id="XMLID_350_"
   transform="translate(197.56424,-0.0862662)">
	<path
   id="XMLID_354_"
   d="m 247.024,69.989 c -97.622,0 -177.035,79.414 -177.035,177.032 0,97.615 79.413,177.03 177.035,177.03 97.614,0 177.026,-79.415 177.026,-177.03 C 424.051,149.403 344.638,69.989 247.024,69.989 Z m 32.932,296.27 c 0,5.767 -4.678,10.446 -10.453,10.446 h -44.966 c -5.775,0 -10.454,-4.68 -10.454,-10.446 V 231.733 c 0,-5.765 4.678,-10.445 10.454,-10.445 h 44.966 c 5.775,0 10.453,4.68 10.453,10.445 z M 247.024,181.148 c -22.163,0 -40.145,-17.971 -40.145,-40.142 0,-22.168 17.981,-40.14 40.145,-40.14 22.156,0 40.136,17.972 40.136,40.14 0,22.171 -17.98,40.142 -40.136,40.142 z" />
	<path
   id="XMLID_351_"
   d="M 247.024,0 C 110.602,0 0.001,110.597 0.001,247.021 c 0,136.422 110.601,247.019 247.023,247.019 136.422,0 247.015,-110.597 247.015,-247.019 C 494.039,110.597 383.447,0 247.024,0 Z m 0,456.987 c -115.781,0 -209.965,-94.192 -209.965,-209.965 0,-115.777 94.184,-209.969 209.965,-209.969 115.772,0 209.966,94.192 209.966,209.969 0,115.773 -94.194,209.965 -209.966,209.965 z" />
</g>
<g
   id="g5"
   transform="translate(197.56424,-0.0862662)">
</g>
<g
   id="g7"
   transform="translate(197.56424,-0.0862662)">
</g>
<g
   id="g9"
   transform="translate(197.56424,-0.0862662)">
</g>
<g
   id="g11"
   transform="translate(197.56424,-0.0862662)">
</g>
<g
   id="g13"
   transform="translate(197.56424,-0.0862662)">
</g>
<g
   id="g15"
   transform="translate(197.56424,-0.0862662)">
</g>
<g
   id="g17"
   transform="translate(197.56424,-0.0862662)">
</g>
<g
   id="g19"
   transform="translate(197.56424,-0.0862662)">
</g>
<g
   id="g21"
   transform="translate(197.56424,-0.0862662)">
</g>
<g
   id="g23"
   transform="translate(197.56424,-0.0862662)">
</g>
<g
   id="g25"
   transform="translate(197.56424,-0.0862662)">
</g>
<g
   id="g27"
   transform="translate(197.56424,-0.0862662)">
</g>
<g
   id="g29"
   transform="translate(197.56424,-0.0862662)">
</g>
<g
   id="g31"
   transform="translate(197.56424,-0.0862662)">
</g>
<g
   id="g33"
   transform="translate(197.56424,-0.0862662)">
</g>
</svg>
