<?xml version="1.0" encoding="UTF-8"?>
<svg id="Calque_2" data-name="Calque 2" xmlns="http://www.w3.org/2000/svg" viewBox="0 0 930.89 930.89">
  <defs>
    <style>
      .cls-1 {
        fill: #fff;
      }
    </style>
  </defs>
  <g id="Calque_1-2" data-name="Calque 1">
    <path class="cls-1" d="m465.44,659.38c-107.05,0-193.94-86.88-193.94-193.94s86.88-193.94,193.94-193.94,193.94,86.88,193.94,193.94-86.88,193.94-193.94,193.94Zm38.79-504.23V38.79c0-21.33-17.45-38.79-38.79-38.79s-38.79,17.45-38.79,38.79v116.36c0,21.33,17.45,38.79,38.79,38.79s38.79-17.45,38.79-38.79Zm0,736.95v-116.36c0-21.33-17.45-38.79-38.79-38.79s-38.79,17.45-38.79,38.79v116.36c0,21.33,17.45,38.79,38.79,38.79s38.79-17.45,38.79-38.79ZM193.94,465.44c0-21.33-17.45-38.79-38.79-38.79H38.79c-21.33,0-38.79,17.45-38.79,38.79s17.45,38.79,38.79,38.79h116.36c21.33,0,38.79-17.45,38.79-38.79Zm736.95,0c0-21.33-17.45-38.79-38.79-38.79h-116.36c-21.33,0-38.79,17.45-38.79,38.79s17.45,38.79,38.79,38.79h116.36c21.33,0,38.79-17.45,38.79-38.79Zm-670.63-205.18c15.13-15.13,15.13-39.56,0-54.69l-77.57-77.57c-15.13-15.13-39.56-15.13-54.69,0-15.13,15.13-15.13,39.56,0,54.69l77.57,77.57c7.76,7.76,17.45,11.25,27.54,11.25s19.78-3.88,27.54-11.25h-.39Zm543.02,543.02c15.13-15.13,15.13-39.56,0-54.69l-77.57-77.57c-15.13-15.13-39.56-15.13-54.69,0-15.13,15.13-15.13,39.56,0,54.69l77.57,77.57c7.76,7.76,17.45,11.25,27.54,11.25s19.78-3.88,27.54-11.25h-.39Zm-620.59,0l77.57-77.57c15.13-15.13,15.13-39.56,0-54.69-15.13-15.13-39.56-15.13-54.69,0l-77.57,77.57c-15.13,15.13-15.13,39.56,0,54.69,7.76,7.76,17.45,11.25,27.54,11.25s19.78-3.88,27.54-11.25h-.39ZM725.71,260.26l77.57-77.57c15.13-15.13,15.13-39.56,0-54.69-15.13-15.13-39.56-15.13-54.69,0l-77.57,77.57c-15.13,15.13-15.13,39.56,0,54.69,7.76,7.76,17.45,11.25,27.54,11.25s19.78-3.88,27.54-11.25h-.39Z"/>
  </g>
</svg>
