<?xml version="1.0" encoding="UTF-8"?>
<svg id="Calque_2" data-name="Calque 2" xmlns="http://www.w3.org/2000/svg" xmlns:xlink="http://www.w3.org/1999/xlink" viewBox="0 0 987.71 1142.59">
  <defs>
    <style>
      .cls-1 {
        isolation: isolate;
      }

      .cls-2 {
        clip-path: url(#clippath);
      }

      .cls-3 {
        fill: none;
      }

      .cls-4 {
        fill: red;
      }
    </style>
    <clipPath id="clippath">
      <polygon class="cls-3" points="144.56 1142.59 142.47 404.54 843.15 0 845.24 738.05 144.56 1142.59"/>
    </clipPath>
  </defs>
  <g id="Calque_1-2" data-name="Calque 1">
    <g class="cls-1">
      <g class="cls-2">
        <path class="cls-4" d="m654.53,512.13c-24.18,13.96-43.74,47.83-43.66,75.61s19.76,38.99,43.94,25.03c24.17-13.96,43.73-47.83,43.65-75.6-.08-27.78-19.76-38.99-43.94-25.04m-408.07,470.82c-8.03,4.63-14.62.91-14.64-8.34l-1.01-356.48c9.32-2.59,19.13-6.81,29.21-12.63l496.32-286.55,1.05,369.02-510.92,294.98M843.15,0L259.25,337.12c-64.41,37.19-116.61,127.61-116.4,201.62l1.38,486.44c.18,64.74,46.17,90.95,102.51,58.42l598.5-345.55-1.62-570.31L259.72,504.86c-16.12,9.3-29.24,1.8-29.29-16.69-.05-18.48,12.99-41.1,29.1-50.4L843.43,100.65l-.29-100.65"/>
      </g>
    </g>
  </g>
</svg>