<svg  viewBox="0 0 149 45" fill="none" xmlns="http://www.w3.org/2000/svg">
<path d="M3.80285 36.4513V32.6014H0V20.5798H3.80285V16.687H15.2114V8.94434H19.4335V32.6014H15.5887V36.4513H3.80285ZM4.22207 32.1723H15.1725V20.9629H4.22207V32.1723Z" fill="#0000A8"/>
<path d="M63.7778 39.5289C63.7778 41.4936 63.4065 42.8944 62.6669 43.7374C61.9243 44.5803 60.6367 45.0002 58.7982 45.0002H32.3908C30.4983 45.0002 29.1299 44.565 28.2795 43.6945C27.4291 42.8239 27.0039 41.4354 27.0039 39.5258V9.19884C27.0039 7.43023 27.477 6.06929 28.4232 5.11601C29.3695 4.16274 30.693 3.68457 32.3938 3.68457H57.5555C59.5018 3.68457 61.026 4.14128 62.1279 5.05164C63.2298 5.962 63.7808 7.34747 63.7808 9.19884V39.5319L63.7778 39.5289ZM32.3908 5.22942C31.1391 5.22942 30.1779 5.56966 29.5042 6.2532C28.8305 6.93673 28.4951 7.91759 28.4951 9.19884V38.2139C28.4951 40.5802 29.7947 41.7664 32.3938 41.7664H56.2919C57.5435 41.7664 58.4358 41.4936 58.9658 40.9511C59.4958 40.4086 59.7623 39.4951 59.7623 38.2139V9.19884C59.7623 6.55358 58.6065 5.22942 56.2919 5.22942H32.3938H32.3908ZM49.818 30.4222C50.2672 30.6735 50.4918 31.0414 50.4918 31.5287C49.8809 32.3778 49.0365 33.0674 47.9615 33.5977C46.8865 34.128 45.7906 34.3916 44.6767 34.3916C42.4189 34.3916 40.6223 33.751 39.2898 32.4697C37.9573 31.1885 37.2896 29.5946 37.2896 27.685C37.2896 25.429 38.0412 23.5807 39.5443 22.1401C41.0475 20.6994 42.6375 19.9791 44.3084 19.9791C46.2547 19.9791 47.728 20.5584 48.7251 21.714C49.7252 22.8696 50.2253 24.206 50.2253 25.7233C50.2253 26.1003 50.0486 26.2811 49.6953 26.2658H41.2481C41.2481 28.3133 41.6524 29.8183 42.4609 30.7778C43.2693 31.7372 44.2186 32.2184 45.3085 32.2184C47.2279 32.2184 48.7311 31.6207 49.818 30.4222ZM41.329 24.865H45.7996C46.111 24.865 46.2697 24.7179 46.2697 24.4267C46.2697 23.3416 46.102 22.5906 45.7696 22.1799C45.4373 21.7692 44.9492 21.5638 44.3114 21.5638C43.97 21.5638 43.6347 21.6251 43.3023 21.7508C42.9699 21.8765 42.5926 22.2075 42.1704 22.7439C41.7482 23.2803 41.4697 23.9884 41.335 24.865H41.329Z" fill="#0000A8"/>
<path d="M70.4914 17.5816C69.7398 19.2368 69.3356 20.0614 69.2787 20.0614C69.2368 20.0338 69.5931 19.1847 70.3447 17.5173C70.734 16.6621 71.0304 16.0337 71.234 15.6352C71.4346 15.2368 71.5454 15.0436 71.5574 15.059C71.5993 15.0866 71.243 15.9295 70.4914 17.5847V17.5816ZM72.8929 16.4291C73.1025 16.5425 72.824 17.4284 72.0575 19.0805C71.6682 19.9234 71.3538 20.5395 71.1172 20.9319C70.8807 21.3242 70.713 21.4928 70.6172 21.4346C70.4226 21.3487 70.707 20.4721 71.4736 18.8046C72.1563 17.2506 72.6234 16.4598 72.8749 16.4291H72.8959H72.8929ZM71.8479 17.6031C71.4167 18.5318 71.1083 19.1755 70.9286 19.5403C70.7489 19.905 70.6441 20.0797 70.6142 20.0644C70.5723 20.0368 70.9286 19.1878 71.6802 17.5203C72.0844 16.6375 72.3809 16 72.5695 15.6168C72.7582 15.2306 72.866 15.0467 72.8929 15.062C72.9199 15.0774 72.848 15.295 72.6743 15.7149C72.5006 16.1349 72.2252 16.7663 71.8479 17.6092V17.6031ZM97.1743 15.059C97.312 15.1172 97.312 15.5739 97.1743 16.4291C97.312 16.4873 97.2851 16.8368 97.0904 17.4774L97.1114 17.4345C97.863 15.767 98.3301 14.9731 98.5128 15.059C98.6804 15.1448 98.387 16.0214 97.6354 17.6889C97.3839 18.2437 97.1653 18.7004 96.9766 19.059C96.788 19.4146 96.6323 19.6751 96.5065 19.8407C96.3808 20.0062 96.2909 20.0797 96.234 20.0644C96.1502 20.0215 96.2281 19.6568 96.4646 18.9732L96.4017 19.1234C96.1502 19.6659 95.9556 20.0583 95.8178 20.3004C95.6921 20.7725 95.4914 21.3211 95.213 21.9464C95.0603 22.2897 94.8566 22.6821 94.6081 23.1235C94.5093 23.5495 94.3147 24.1074 94.0242 24.7909C93.8565 25.2047 93.6409 25.6032 93.3774 25.9894L93.3145 26.2898C93.6769 26.817 93.5511 27.7366 92.9372 29.0485C92.6737 29.5634 92.4282 29.968 92.2066 30.2684L92.1437 30.6761C92.4222 31.3474 92.3114 32.224 91.8084 33.306C91.5868 33.8179 91.2993 34.2624 90.952 34.6333C90.8831 35.1605 90.7424 35.6448 90.5328 36.0892C89.7512 37.7444 88.9577 38.3789 88.1492 37.9927C87.6192 37.7505 87.4665 37.0854 87.6881 36.0034C87.6192 35.7459 87.3258 35.4884 86.8108 35.234C86.3376 35.0072 86.2119 33.9712 86.4335 32.1321C86.0442 32.4876 85.7148 32.6041 85.4513 32.4754C85.0471 32.2761 84.9572 31.6968 85.1788 30.7435C85.095 30.4156 85.1159 29.9803 85.2417 29.4378C85.1309 29.1251 85.1429 28.6899 85.2836 28.132L85.2207 27.5312C84.7327 28.2025 84.3644 28.4722 84.1128 28.3435C83.8343 28.2148 83.7984 27.7243 84.008 26.8661C83.8673 26.6515 83.8823 26.2101 84.0499 25.5388C83.8972 25.3978 83.9182 24.9473 84.1128 24.1902L84.0499 24.1687L83.7775 24.7879C84.1817 25.2017 84.0499 26.1427 83.3792 27.6109C83.0588 28.2669 82.8013 28.7726 82.6067 29.1312C82.942 29.7596 82.8282 30.673 82.2713 31.8685C82.0347 32.3681 81.7682 32.788 81.4778 33.1313L81.4149 33.539C81.6365 34.2225 81.5197 35.0716 81.0586 36.0831C80.277 37.7383 79.4925 38.3728 78.696 37.9866C78.2918 37.7873 78.1241 37.2938 78.1959 36.5091C77.8905 36.6931 77.612 36.7298 77.3605 36.6164C76.8575 36.359 76.7197 35.3474 76.9413 33.5788C76.564 33.8792 76.2526 33.9712 76.0011 33.8578C75.5819 33.6432 75.507 32.6102 75.7705 30.7558C75.7286 30.6424 75.7436 30.2133 75.8124 29.4715L75.7495 29.0209C75.2884 29.6063 74.9261 29.8332 74.6626 29.7044C74.3691 29.5634 74.3272 29.0546 74.5368 28.1841C74.426 27.9573 74.447 27.5282 74.5997 26.8998C74.447 26.7006 74.459 26.2714 74.6416 25.6155C74.0278 26.627 73.5816 27.0714 73.3031 26.9427C73.0816 26.8415 73.0816 26.3879 73.3031 25.5726C73.1235 25.4714 73.1504 25.0178 73.387 24.2024L73.3031 24.181C73.1085 24.1105 73.1085 23.6538 73.3031 22.8108C73.3031 22.7955 73.2822 22.7035 73.2403 22.5319C72.9768 23.0591 72.7252 23.4729 72.4887 23.7733C72.2371 24.0859 72.0635 24.2239 71.9676 24.181C71.773 24.1105 71.773 23.6538 71.9676 22.8108C71.788 22.725 71.8898 22.1702 72.2821 21.1434L71.9676 21.4223C71.773 21.3365 72.0515 20.4598 72.8031 18.7924C73.5547 17.0943 74.0368 16.3034 74.2464 16.4169C74.3841 16.5027 74.2314 17.0943 73.7852 18.1916L74.3063 17.5939L74.3482 17.4866C75.0878 15.8314 75.498 15.0191 75.5819 15.0467C75.6088 15.062 75.5938 15.1601 75.5309 15.3471C75.4681 15.5341 75.3543 15.8191 75.1866 16.2023C75.0189 16.5885 74.8093 17.0513 74.5608 17.5939L74.1835 18.6636C74.9081 17.0789 75.3752 16.331 75.5849 16.4169C75.7376 16.5027 75.6058 17.0728 75.1866 18.1272L75.5429 17.8054L75.6897 17.4835C76.4412 15.8283 76.8605 15.0161 76.9443 15.0436C77.0281 15.0866 76.6868 15.9417 75.9202 17.6123L75.6477 18.1885C75.6208 18.4031 75.522 18.7587 75.3543 19.2583L75.5849 19.1725C75.7795 19.2583 75.7795 19.7211 75.5849 20.564L75.6897 20.7142C75.9112 20.2575 76.1568 19.8713 76.4203 19.5587C76.6718 19.2583 76.8455 19.1326 76.9413 19.1725C77.121 19.2583 77.0731 19.7211 76.7946 20.564H76.9413C77.121 20.6652 77.1 21.1188 76.8784 21.9342H76.9413C77.1629 22.0476 77.1779 22.4706 76.9832 23.197C77.5551 22.1978 77.9863 21.7779 78.2798 21.9342C78.5313 22.0476 78.5433 22.5196 78.3217 23.3472C78.5433 23.4882 78.5583 23.9603 78.3636 24.7603C78.6002 24.9871 78.6271 25.4745 78.4475 26.2163L78.5732 26.6239C79.0044 26.1396 79.3608 25.9618 79.6392 26.0875C79.9746 26.2316 80.0435 26.7588 79.8488 27.6691L79.9536 27.9695C80.0794 27.5128 80.2171 27.1266 80.3729 26.814C80.6244 26.2438 80.9298 25.7442 81.2921 25.3182C81.2352 24.8063 81.4658 23.9633 81.9808 22.7955C82.1904 22.2959 82.442 21.833 82.7324 21.4039C82.5378 21.2323 82.8103 20.3556 83.5469 18.774C83.9362 17.9188 84.2536 17.2996 84.4991 16.9134C84.7416 16.5272 84.9213 16.3647 85.0321 16.4199C85.1698 16.4782 85.1219 16.9471 84.8854 17.833L84.9902 17.5969L85.0531 17.4682C85.8346 15.813 86.2778 15.0069 86.3915 15.0498C86.5173 15.1203 86.1969 15.9847 85.4303 17.6368L85.2627 17.9801C85.5561 17.41 85.7957 16.9962 85.9843 16.7387C86.173 16.4812 86.3077 16.3739 86.3915 16.4169C86.5293 16.4751 86.4754 16.9502 86.2239 17.8514L86.3915 17.4651V17.4437C86.5862 17.0299 86.7569 16.6713 86.9036 16.3647C87.0503 16.0582 87.1791 15.8038 87.2899 15.6046C87.4007 15.4053 87.4905 15.2582 87.5623 15.1663C87.6312 15.0743 87.6881 15.0345 87.73 15.0498C87.8678 15.108 87.5564 15.9693 86.7898 17.6368C86.7479 17.7379 86.685 17.8759 86.6011 18.0537C86.5173 18.2314 86.4544 18.3632 86.4125 18.4491C86.2718 18.9058 86.1969 19.1633 86.1819 19.2184L86.3915 19.1755C86.5592 19.2613 86.5173 19.7181 86.2658 20.5457L86.3915 20.5671C86.5862 20.6805 86.5712 21.1372 86.3496 21.9373H86.3915L87.1641 20.889C87.4426 20.6192 87.6312 20.5119 87.727 20.5671C87.9366 20.6805 87.9277 21.1372 87.7061 21.9373H87.727C87.9786 22.066 87.9995 22.5442 87.7899 23.3718L87.9576 24.0982C88.4307 23.4576 88.808 23.2001 89.0865 23.3288C89.365 23.4576 89.4009 23.948 89.1913 24.8063C89.4009 25.0484 89.4219 25.5327 89.2542 26.2622C89.4488 26.5473 89.4698 27.0316 89.317 27.7182L89.3799 27.8684C89.7991 27.4822 90.1465 27.3565 90.425 27.4822L90.6136 27.6109C90.6406 26.9825 90.8352 26.2622 91.1975 25.45C91.449 24.9227 91.7485 24.4292 92.0958 23.9756C92.027 23.476 92.2635 22.6361 92.8055 21.453C93.057 20.9257 93.3145 20.4629 93.578 20.0614H93.5361C93.3684 19.9755 93.6679 19.0989 94.4344 17.4314C95.186 15.7916 95.6472 15.0007 95.8148 15.0559C95.9526 15.1141 95.731 15.8191 95.1471 17.174C95.2848 16.9471 95.5094 16.6958 95.8148 16.426C95.9676 16.5119 95.8777 17.0176 95.5423 17.9464L95.7729 17.4314C96.4826 15.8927 96.9437 15.0988 97.1533 15.0559H97.1743V15.059ZM74.1895 15.3594C74.1206 15.5463 74.0008 15.8314 73.8331 16.2145C73.6655 16.6008 73.4558 17.0636 73.2073 17.6061C72.4557 19.2736 72.0425 20.0951 71.9736 20.0675C71.9467 20.0552 72.0186 19.8345 72.1922 19.4146C72.3659 18.9947 72.6414 18.3632 73.0187 17.5203C73.7703 15.8529 74.1805 15.0314 74.2524 15.059C74.2793 15.0743 74.2583 15.1724 74.1895 15.3594ZM77.2827 17.6245C76.9054 18.4675 76.6149 19.0866 76.4053 19.4851C76.1957 19.8836 76.0639 20.0767 76.0071 20.0614C75.9232 20.0184 76.2586 19.1633 77.0102 17.4958C77.7618 15.8283 78.187 15.0161 78.2858 15.0559C78.3696 15.0988 78.0342 15.954 77.2827 17.6245ZM81.337 17.6245C80.9598 18.4675 80.6693 19.0866 80.4597 19.4851C80.2501 19.8836 80.1183 20.0767 80.0614 20.0614C79.9506 20.0184 80.277 19.1633 81.0436 17.4958C81.7952 15.8406 82.2264 15.0283 82.3402 15.0559C82.439 15.0988 82.1036 15.954 81.337 17.6245ZM83.6966 16.4291C83.9332 16.5425 83.6607 17.4345 82.8821 19.102C82.4929 19.9449 82.1755 20.5579 81.9299 20.9411C81.6874 21.3273 81.5077 21.4897 81.3969 21.4346C81.1753 21.3334 81.4448 20.4506 82.2114 18.7832C82.9211 17.2445 83.4032 16.4598 83.6547 16.4291H83.6966ZM82.7145 17.6245C81.9479 19.292 81.5107 20.1043 81.3969 20.0644C81.2981 20.0062 81.6275 19.1449 82.3791 17.4774C83.1307 15.8222 83.5619 15.0161 83.6756 15.059C83.7864 15.1295 83.466 15.9877 82.7145 17.6276V17.6245ZM85.0351 15.059C85.1609 15.1295 84.8405 15.9939 84.0739 17.646C83.2924 19.3012 82.8552 20.1073 82.7564 20.0644C82.6306 19.9939 82.951 19.1295 83.7176 17.4774C84.4153 15.9356 84.8464 15.1325 85.0141 15.059H85.0351ZM88.1492 17.646C87.9546 18.0751 87.7839 18.4368 87.6372 18.7372C87.4905 19.0376 87.3617 19.2889 87.2509 19.4974C87.1401 19.7058 87.0503 19.8529 86.9784 19.9479C86.9096 20.0399 86.8527 20.0797 86.8108 20.0644C86.67 20.0062 86.9784 19.1387 87.73 17.4559C88.4397 15.9142 88.8859 15.1172 89.0685 15.059C89.2362 15.1295 88.9278 15.9939 88.1492 17.646ZM93.1229 15.059C93.2906 15.1295 92.9822 16 92.2036 17.6674C91.452 19.3349 90.9999 20.1349 90.8442 20.0644C90.6765 19.9939 90.9819 19.1234 91.7635 17.4559C92.4731 15.9019 92.9193 15.1019 93.1019 15.059H93.1229ZM93.5601 17.6674C92.8205 19.3349 92.3683 20.1349 92.2006 20.0644C92.0479 19.9939 92.3474 19.1234 93.0989 17.4559C93.8086 15.8866 94.2608 15.0896 94.4584 15.059C94.6381 15.1448 94.3386 16.0153 93.5601 17.6674ZM99.8722 15.059C100.052 15.1448 99.7674 16.0214 99.0158 17.6889C98.2642 19.3564 97.7911 20.1502 97.5935 20.0644C97.4108 19.9786 97.6983 19.102 98.4499 17.4345C99.1595 15.8958 99.6267 15.1019 99.8512 15.059H99.8722Z" fill="#0000A8"/>
<path d="M122.294 28.7054C122.294 30.1031 121.884 31.3997 121.06 32.5982C120.237 33.7967 119.06 34.7591 117.53 35.4856C115.997 36.212 114.227 36.5768 112.221 36.5768C110.215 36.5768 108.382 36.0772 106.81 35.0779C105.235 34.0786 104.016 32.6748 103.154 30.8633C102.289 29.0517 101.857 26.9643 101.857 24.595C101.857 22.2256 102.289 20.1382 103.154 18.3267C104.016 16.5151 105.223 15.1113 106.768 14.112C108.313 13.1128 110.062 12.6162 112.014 12.6162C113.967 12.6162 115.7 13.1066 117.219 14.0906C118.737 15.0745 119.919 16.4661 120.77 18.2623C121.62 20.0585 122.045 22.1704 122.045 24.595V25.8364H106.038V32.7668H118.159V28.7023H122.297L122.294 28.7054ZM117.946 22.5873V16.3404H106.076V22.5873H117.946Z" fill="#0000A8"/>
<path d="M125.594 3.42381L133.951 0V13.6891L137.296 11.9787H140.64L145.656 13.6891L149.001 20.5337V27.3782L145.656 34.2228L140.64 35.9332H137.296L133.951 34.2228L132.28 32.5124L130.609 35.9362L125.594 32.5124L128.938 30.8021V5.13419L125.594 3.42381ZM135.625 15.4026L133.954 18.8264V29.0947L135.625 32.5186L138.97 34.2289L142.314 32.5186L143.985 23.9636L142.314 15.4056L138.97 13.6953L135.625 15.4056V15.4026Z" fill="#0000A8"/>
</svg>
