<svg width="249" height="74" viewBox="0 0 249 74" fill="none" xmlns="http://www.w3.org/2000/svg">
<path d="M6.3551 59.9422V53.6113H0V33.8423H6.3551V27.4409H25.4204V14.7085H32.4761V53.6113H26.0509V59.9422H6.3551ZM7.05567 52.9056H25.3554V34.4724H7.05567V52.9056Z" fill="#00FE6D"/>
<path d="M106.581 65.0025C106.581 68.2335 105.961 70.537 104.725 71.9232C103.484 73.3093 101.332 73.9999 98.2596 73.9999H54.1292C50.9666 73.9999 48.6798 73.2841 47.2587 71.8526C45.8375 70.4211 45.127 68.1377 45.127 64.9975V15.1265C45.127 12.2181 45.9176 9.98013 47.4989 8.41252C49.0801 6.84492 51.2919 6.05859 54.1342 6.05859H96.183C99.4356 6.05859 101.983 6.80963 103.824 8.30667C105.666 9.80371 106.586 12.082 106.586 15.1265V65.0076L106.581 65.0025ZM54.1292 8.59902C52.0375 8.59902 50.4312 9.15852 49.3053 10.2826C48.1794 11.4066 47.619 13.0196 47.619 15.1265V62.8401C47.619 66.7314 49.7907 68.6821 54.1342 68.6821H94.0713C96.1629 68.6821 97.6541 68.2335 98.5399 67.3413C99.4256 66.4492 99.8709 64.9471 99.8709 62.8401V15.1265C99.8709 10.7765 97.9394 8.59902 94.0713 8.59902H54.1342H54.1292ZM83.2526 50.0271C84.0032 50.4404 84.3785 51.0453 84.3785 51.8468C83.3577 53.243 81.9465 54.3771 80.1501 55.2491C78.3536 56.1211 76.5222 56.5546 74.6607 56.5546C70.8876 56.5546 67.8852 55.5011 65.6584 53.3942C63.4317 51.2873 62.3158 48.6662 62.3158 45.5259C62.3158 41.8161 63.5718 38.7767 66.0838 36.4076C68.5958 34.0386 71.2529 32.854 74.0452 32.854C77.2978 32.854 79.7598 33.8067 81.4261 35.707C83.0975 37.6073 83.9331 39.8049 83.9331 42.3C83.9331 42.92 83.6379 43.2174 83.0474 43.1922H68.9311C68.9311 46.5592 69.6066 49.0341 70.9577 50.6118C72.3088 52.1895 73.8951 52.9809 75.7165 52.9809C78.9241 52.9809 81.4361 51.998 83.2526 50.0271ZM69.0662 40.8886H76.5372C77.0576 40.8886 77.3228 40.6467 77.3228 40.1679C77.3228 38.3835 77.0426 37.1486 76.4871 36.4731C75.9317 35.7977 75.116 35.46 74.0502 35.46C73.4797 35.46 72.9193 35.5608 72.3638 35.7675C71.8084 35.9741 71.1779 36.5185 70.4723 37.4006C69.7667 38.2827 69.3014 39.4471 69.0762 40.8886H69.0662Z" fill="#00FE6D"/>
<path d="M117.8 28.9125C116.544 31.6344 115.868 32.9903 115.773 32.9903C115.703 32.9449 116.299 31.5487 117.555 28.8066C118.205 27.4003 118.7 26.367 119.041 25.7117C119.376 25.0565 119.561 24.7389 119.581 24.7641C119.651 24.8095 119.056 26.1956 117.8 28.9175V28.9125ZM121.813 27.0172C122.163 27.2037 121.698 28.6604 120.417 31.3773C119.766 32.7634 119.241 33.7766 118.846 34.4218C118.45 35.067 118.17 35.3442 118.01 35.2484C117.685 35.1073 118.16 33.6657 119.441 30.9236C120.582 28.3681 121.363 27.0676 121.783 27.0172H121.818H121.813ZM120.067 28.9478C119.346 30.475 118.831 31.5335 118.53 32.1334C118.23 32.7332 118.055 33.0205 118.005 32.9953C117.935 32.9499 118.53 31.5537 119.786 28.8117C120.462 27.36 120.957 26.3116 121.273 25.6815C121.588 25.0464 121.768 24.7439 121.813 24.7692C121.858 24.7944 121.738 25.1522 121.448 25.8428C121.157 26.5333 120.697 27.5717 120.067 28.9578V28.9478ZM162.391 24.7641C162.621 24.8599 162.621 25.6109 162.391 27.0172C162.621 27.113 162.576 27.6876 162.25 28.7411L162.285 28.6705C163.541 25.9285 164.322 24.623 164.627 24.7641C164.908 24.9052 164.417 26.3468 163.161 29.0889C162.741 30.0012 162.376 30.7523 162.06 31.342C161.745 31.9267 161.485 32.3551 161.275 32.6273C161.064 32.8995 160.914 33.0205 160.819 32.9953C160.679 32.9247 160.809 32.3249 161.205 31.2009L161.1 31.4479C160.679 32.34 160.354 32.9852 160.124 33.3834C159.914 34.1597 159.578 35.0619 159.113 36.0902C158.858 36.6547 158.517 37.2999 158.102 38.0257C157.937 38.7264 157.612 39.6437 157.126 40.7678C156.846 41.4483 156.486 42.1035 156.045 42.7386L155.94 43.2326C156.546 44.0996 156.336 45.6117 155.31 47.7691C154.87 48.6159 154.459 49.2812 154.089 49.7752L153.984 50.4456C154.449 51.5495 154.264 52.9911 153.423 54.7704C153.053 55.6121 152.573 56.343 151.992 56.9529C151.877 57.8199 151.642 58.6163 151.292 59.3472C149.986 62.0691 148.66 63.1124 147.308 62.4773C146.423 62.0791 146.168 60.9853 146.538 59.206C146.423 58.7826 145.932 58.3592 145.072 57.9409C144.281 57.5679 144.071 55.8642 144.441 52.8399C143.791 53.4246 143.24 53.6161 142.8 53.4044C142.124 53.0768 141.974 52.1241 142.344 50.5565C142.204 50.0172 142.239 49.3014 142.45 48.4092C142.264 47.8951 142.284 47.1793 142.52 46.262L142.415 45.274C141.599 46.3779 140.983 46.8215 140.563 46.6098C140.098 46.3981 140.038 45.5916 140.388 44.1802C140.153 43.8274 140.178 43.1016 140.458 41.9977C140.203 41.7658 140.238 41.0249 140.563 39.7798L140.458 39.7446L140.003 40.7627C140.678 41.4432 140.458 42.9907 139.337 45.4051C138.802 46.4837 138.371 47.3154 138.046 47.9052C138.606 48.9385 138.416 50.4406 137.486 52.4064C137.09 53.228 136.645 53.9185 136.159 54.4831L136.054 55.1535C136.425 56.2775 136.23 57.6737 135.459 59.3371C134.153 62.059 132.842 63.1024 131.511 62.4673C130.835 62.1396 130.555 61.3281 130.675 60.0377C130.165 60.3402 129.699 60.4006 129.279 60.2141C128.438 59.7907 128.208 58.1274 128.578 55.219C127.948 55.713 127.427 55.8642 127.007 55.6777C126.307 55.3248 126.181 53.6262 126.622 50.5767C126.552 50.3902 126.577 49.6845 126.692 48.4647L126.587 47.7237C125.816 48.6865 125.211 49.0595 124.77 48.8478C124.28 48.6159 124.21 47.7792 124.56 46.3477C124.375 45.9747 124.41 45.269 124.665 44.2357C124.41 43.908 124.43 43.2024 124.735 42.1237C123.709 43.7871 122.964 44.5179 122.499 44.3062C122.128 44.1399 122.128 43.3939 122.499 42.0531C122.198 41.8868 122.243 41.1408 122.639 39.8L122.499 39.7647C122.173 39.6488 122.173 38.8978 122.499 37.5116C122.499 37.4864 122.463 37.3352 122.393 37.0529C121.953 37.9199 121.533 38.6004 121.137 39.0943C120.717 39.6085 120.427 39.8353 120.267 39.7647C119.941 39.6488 119.941 38.8978 120.267 37.5116C119.966 37.3705 120.137 36.4581 120.792 34.7696L120.267 35.2282C119.941 35.0871 120.407 33.6455 121.663 30.9035C122.919 28.111 123.724 26.8106 124.075 26.9971C124.305 27.1382 124.05 28.111 123.304 29.9155L124.175 28.9326L124.245 28.7562C125.481 26.0343 126.166 24.6986 126.307 24.744C126.352 24.7692 126.327 24.9304 126.221 25.2379C126.116 25.5454 125.926 26.0142 125.646 26.6442C125.366 27.2793 125.016 28.0405 124.6 28.9326L123.97 30.6918C125.181 28.0858 125.961 26.8559 126.312 26.9971C126.567 27.1382 126.347 28.0757 125.646 29.8097L126.242 29.2804L126.487 28.7512C127.743 26.0293 128.443 24.6935 128.583 24.7389C128.724 24.8095 128.153 26.2158 126.872 28.9629L126.417 29.9105C126.372 30.2633 126.206 30.848 125.926 31.6696L126.312 31.5285C126.637 31.6696 126.637 32.4308 126.312 33.8169L126.487 34.0639C126.857 33.3128 127.267 32.6777 127.708 32.1636C128.128 31.6696 128.418 31.463 128.578 31.5285C128.879 31.6696 128.799 32.4308 128.333 33.8169H128.578C128.879 33.9832 128.844 34.7292 128.473 36.07H128.578C128.949 36.2565 128.974 36.9521 128.648 38.1467C129.604 36.5035 130.325 35.8129 130.815 36.07C131.236 36.2565 131.256 37.0328 130.885 38.3937C131.256 38.6256 131.281 39.4018 130.955 40.7174C131.351 41.0904 131.396 41.8918 131.095 43.1116L131.306 43.782C132.026 42.9856 132.622 42.6933 133.087 42.8999C133.647 43.1368 133.763 44.0038 133.437 45.5008L133.612 45.9948C133.823 45.2438 134.053 44.6087 134.313 44.0945C134.733 43.157 135.244 42.3354 135.849 41.6348C135.754 40.793 136.139 39.4068 137 37.4864C137.35 36.6648 137.771 35.9037 138.256 35.198C137.931 34.9157 138.386 33.4741 139.617 30.8732C140.268 29.4669 140.798 28.4487 141.209 27.8136C141.614 27.1785 141.914 26.9114 142.099 27.0021C142.329 27.0979 142.249 27.8691 141.854 29.3258L142.029 28.9377L142.134 28.726C143.44 26.0041 144.181 24.6784 144.371 24.749C144.581 24.8649 144.046 26.2864 142.765 29.0032L142.485 29.5677C142.975 28.6302 143.375 27.9497 143.691 27.5263C144.006 27.1029 144.231 26.9265 144.371 26.9971C144.601 27.0928 144.511 27.8741 144.091 29.356L144.371 28.7209V28.6856C144.696 28.0052 144.982 27.4154 145.227 26.9114C145.472 26.4073 145.687 25.989 145.872 25.6613C146.057 25.3337 146.208 25.0917 146.328 24.9405C146.443 24.7893 146.538 24.7238 146.608 24.749C146.838 24.8448 146.318 26.2611 145.037 29.0032C144.967 29.1695 144.861 29.3964 144.721 29.6887C144.581 29.9811 144.476 30.1978 144.406 30.3389C144.171 31.09 144.046 31.5134 144.021 31.6041L144.371 31.5335C144.651 31.6747 144.581 32.4257 144.161 33.7867L144.371 33.8219C144.696 34.0084 144.671 34.7595 144.301 36.0751H144.371L145.662 34.3512C146.127 33.9076 146.443 33.7312 146.603 33.8219C146.953 34.0084 146.938 34.7595 146.568 36.0751H146.603C147.023 36.2868 147.058 37.0731 146.708 38.434L146.988 39.6286C147.779 38.5752 148.409 38.1518 148.875 38.3635C149.34 38.5752 149.4 39.3816 149.05 40.793C149.4 41.1912 149.435 41.9876 149.155 43.1872C149.48 43.656 149.515 44.4524 149.26 45.5815L149.365 45.8285C150.066 45.1934 150.646 44.9867 151.111 45.1934L151.427 45.4051C151.472 44.3718 151.797 43.1872 152.403 41.8515C152.823 40.9845 153.323 40.173 153.904 39.427C153.789 38.6054 154.184 37.2243 155.09 35.2787C155.51 34.4117 155.94 33.6506 156.381 32.9903H156.311C156.03 32.8491 156.531 31.4075 157.812 28.6655C159.068 25.9688 159.839 24.6683 160.119 24.7591C160.349 24.8548 159.979 26.0142 159.003 28.2421C159.233 27.8691 159.608 27.4558 160.119 27.0122C160.374 27.1533 160.224 27.985 159.663 29.5123L160.049 28.6655C161.235 26.1351 162.005 24.8296 162.356 24.7591H162.391V24.7641ZM123.98 25.2581C123.865 25.5656 123.664 26.0343 123.384 26.6644C123.104 27.2995 122.754 28.0606 122.338 28.9528C121.082 31.6948 120.392 33.0457 120.277 33.0003C120.232 32.9802 120.352 32.6173 120.642 31.9267C120.932 31.2362 121.393 30.1978 122.023 28.8117C123.279 26.0696 123.965 24.7187 124.085 24.7641C124.13 24.7893 124.095 24.9506 123.98 25.2581ZM129.149 28.983C128.518 30.3692 128.033 31.3874 127.683 32.0426C127.332 32.6979 127.112 33.0155 127.017 32.9903C126.877 32.9197 127.437 31.5134 128.693 28.7713C129.949 26.0293 130.66 24.6935 130.825 24.7591C130.965 24.8296 130.405 26.2359 129.149 28.983ZM135.924 28.983C135.294 30.3692 134.808 31.3874 134.458 32.0426C134.108 32.6979 133.888 33.0155 133.793 32.9903C133.607 32.9197 134.153 31.5134 135.434 28.7713C136.69 26.0494 137.41 24.7137 137.601 24.7591C137.766 24.8296 137.205 26.2359 135.924 28.983ZM139.867 27.0172C140.263 27.2037 139.807 28.6705 138.506 31.4126C137.856 32.7987 137.325 33.8068 136.915 34.4369C136.51 35.072 136.21 35.3391 136.024 35.2484C135.654 35.0821 136.104 33.6304 137.385 30.8884C138.571 28.358 139.377 27.0676 139.797 27.0172H139.867ZM138.226 28.983C136.945 31.7251 136.215 33.0608 136.024 32.9953C135.859 32.8995 136.41 31.4831 137.666 28.7411C138.922 26.0192 139.642 24.6935 139.832 24.7641C140.018 24.88 139.482 26.2914 138.226 28.9881V28.983ZM142.104 24.7641C142.314 24.88 141.779 26.3015 140.498 29.0183C139.192 31.7402 138.461 33.0659 138.296 32.9953C138.086 32.8794 138.621 31.4579 139.902 28.7411C141.068 26.2057 141.789 24.8851 142.069 24.7641H142.104ZM147.308 29.0183C146.983 29.724 146.698 30.3188 146.453 30.8127C146.208 31.3067 145.992 31.72 145.807 32.0628C145.622 32.4056 145.472 32.6475 145.352 32.8038C145.237 32.955 145.142 33.0205 145.072 32.9953C144.836 32.8995 145.352 31.4731 146.608 28.7058C147.794 26.1704 148.539 24.8599 148.845 24.7641C149.125 24.88 148.609 26.3015 147.308 29.0183ZM155.62 24.7641C155.9 24.88 155.385 26.3116 154.084 29.0536C152.828 31.7956 152.072 33.1112 151.812 32.9953C151.532 32.8794 152.042 31.4479 153.348 28.7058C154.534 26.1503 155.28 24.8347 155.585 24.7641H155.62ZM156.351 29.0536C155.115 31.7956 154.359 33.1112 154.079 32.9953C153.824 32.8794 154.324 31.4479 155.58 28.7058C156.766 26.1251 157.522 24.8145 157.852 24.7641C158.152 24.9052 157.652 26.3368 156.351 29.0536ZM166.899 24.7641C167.199 24.9052 166.724 26.3468 165.468 29.0889C164.212 31.8309 163.421 33.1364 163.091 32.9953C162.786 32.8542 163.266 31.4126 164.522 28.6705C165.708 26.1402 166.489 24.8347 166.864 24.7641H166.899Z" fill="#00FE6D"/>
<path d="M204.369 47.2043C204.369 49.5028 203.684 51.6349 202.308 53.6058C200.931 55.5766 198.965 57.1594 196.408 58.354C193.846 59.5486 190.888 60.1484 187.536 60.1484C184.183 60.1484 181.121 59.3268 178.493 57.6836C175.861 56.0404 173.825 53.7318 172.384 50.7528C170.937 47.7739 170.217 44.3413 170.217 40.445C170.217 36.5486 170.937 33.116 172.384 30.1371C173.825 27.1581 175.841 24.8496 178.423 23.2064C181.005 21.5631 183.928 20.7466 187.19 20.7466C190.453 20.7466 193.35 21.5531 195.887 23.1711C198.424 24.7891 200.401 27.0775 201.822 30.0312C203.243 32.985 203.954 36.4579 203.954 40.445V42.4864H177.202V53.883H197.459V47.1993H204.374L204.369 47.2043ZM197.103 37.1434V26.8708H177.267V37.1434H197.103Z" fill="#00FE6D"/>
<path d="M209.883 5.63027L223.849 0V22.511L229.439 19.6984H235.028L243.41 22.511L248.999 33.7665V45.022L243.41 56.2775L235.028 59.0901H229.439L223.849 56.2775L221.057 53.4649L218.265 59.0952L209.883 53.4649L215.472 50.6523V8.44289L209.883 5.63027ZM226.646 25.3287L223.854 30.9589V47.8447L226.646 53.475L232.236 56.2876L237.825 53.475L240.618 39.4069L237.825 25.3337L232.236 22.5211L226.646 25.3337V25.3287Z" fill="#00FE6D"/>
</svg>
