<svg width="64" height="64" viewBox="0 0 64 64" fill="none" xmlns="http://www.w3.org/2000/svg">
<rect width="64" height="64" rx="32" fill="#151A26"/>
<g clip-path="url(#clip0_7902_11720)">
<path d="M22.0673 38.4973C21.859 38.4973 21.6508 38.5062 21.4431 38.4957C21.0731 38.4769 20.7032 38.4492 20.3365 38.3934C20.0109 38.3442 19.7583 38.0473 19.7528 37.7167C19.7473 37.3845 19.9882 37.0788 20.31 37.0191C20.4102 37.0003 20.5143 37.0042 20.6146 37.0163C21.036 37.0677 21.458 37.0932 21.8828 37.102C22.2317 37.1092 22.5784 37.0943 22.9257 37.0727C23.3981 37.044 23.8644 36.9754 24.3285 36.8853C24.9798 36.7582 25.6151 36.5741 26.2343 36.3358C27.4211 35.8792 28.5039 35.2451 29.4819 34.433C29.5157 34.4048 29.5489 34.3739 29.5872 34.3523C29.6824 34.2987 29.6747 34.2699 29.6038 34.1914C29.3545 33.9156 29.117 33.6303 28.8866 33.3384C28.3898 32.7088 27.9334 32.0526 27.5502 31.3472C27.4793 31.2167 27.4787 31.2212 27.3231 31.2433C26.9027 31.303 26.4813 31.3466 26.0565 31.3688C25.7469 31.3848 25.4379 31.3892 25.1277 31.3826C24.6542 31.3726 24.1829 31.3372 23.7138 31.2742C23.0204 31.1814 22.3375 31.036 21.6668 30.8342C20.5326 30.4931 19.4648 30.0066 18.4635 29.3764C18.1938 29.2067 18.0836 28.9546 18.1323 28.6384C18.1722 28.3786 18.3915 28.1497 18.664 28.09C18.8634 28.0458 19.0494 28.0867 19.2233 28.1939C19.3851 28.294 19.5484 28.3918 19.714 28.4858C20.6987 29.0442 21.7455 29.4427 22.8482 29.6948C23.4396 29.8297 24.0389 29.9148 24.6448 29.9563C25.0114 29.9817 25.3792 29.9895 25.7458 29.9773C26.0903 29.9657 26.4348 29.9441 26.777 29.901C26.885 29.8872 26.89 29.8811 26.8546 29.7766C26.7061 29.3355 26.5998 28.885 26.5389 28.4239C26.4924 28.0729 26.4863 27.7191 26.5001 27.3653C26.5322 26.5532 26.7504 25.7892 27.1093 25.0639C27.3513 24.5746 27.6521 24.1219 28.0004 23.7012C28.6567 22.9085 29.416 22.2296 30.28 21.6696C31.3118 21.0012 32.4294 20.5369 33.6318 20.2776C34.077 20.1814 34.5273 20.1162 34.982 20.0808C35.4677 20.0427 35.954 20.0382 36.4386 20.0697C37.4238 20.1333 38.3814 20.3368 39.308 20.6812C40.0374 20.952 40.7252 21.3031 41.3732 21.7315C41.8163 22.0251 42.2322 22.354 42.6232 22.7144C43.3199 23.3573 43.918 24.0804 44.4109 24.8897C45.0085 25.8721 45.4283 26.9247 45.6626 28.0508C45.7562 28.4996 45.8177 28.9524 45.8526 29.4107C45.8858 29.848 45.8886 30.2858 45.8642 30.7214C45.8177 31.5468 45.6715 32.3566 45.4217 33.1461C45.307 33.5082 45.1791 33.8653 45.0207 34.2108C44.6364 35.05 44.1623 35.8339 43.5686 36.5437C43.2102 36.9721 42.8226 37.3712 42.4 37.7361C41.6695 38.3669 40.8603 38.8616 39.9305 39.1447C39.5876 39.2492 39.2393 39.3221 38.8821 39.3564C38.6533 39.378 38.4246 39.4056 38.1959 39.3979C37.554 39.3769 36.9232 39.2779 36.3095 39.0844C36.1949 39.0479 36.196 39.0501 36.1129 39.1474C35.6748 39.6643 35.2002 40.1447 34.6879 40.5892C34.0986 41.1011 33.4662 41.5527 32.7955 41.9508C32.0517 42.3919 31.2702 42.7518 30.4544 43.0387C29.7533 43.2853 29.035 43.466 28.3028 43.5893C27.9899 43.6418 27.6748 43.68 27.358 43.7093C26.9698 43.7447 26.5826 43.7612 26.1933 43.759C25.8865 43.7574 25.6943 43.5456 25.7375 43.2449C25.8117 42.7313 26.1949 42.3753 26.705 42.351C27.9373 42.2924 29.1286 42.0453 30.2805 41.6086C31.5377 41.132 32.6747 40.4543 33.6999 39.5853C34.0549 39.284 34.3828 38.9562 34.7056 38.6228C34.7272 38.6007 34.7483 38.5775 34.7688 38.5548C34.8336 38.4824 34.833 38.4763 34.7511 38.4321C34.6541 38.3796 34.5567 38.3276 34.4597 38.274C33.5337 37.7632 32.693 37.1335 31.8944 36.4442C31.4923 36.097 31.1058 35.7343 30.7264 35.3634C30.6732 35.3114 30.6176 35.3107 30.5597 35.3612C29.8181 36.0047 29.0101 36.5497 28.1422 37.0091C27.0733 37.5747 25.9452 37.9777 24.7639 38.2303C24.354 38.3182 23.9403 38.3818 23.5233 38.4282C23.2818 38.4548 23.0403 38.4702 22.7989 38.4918C22.5563 38.5134 22.312 38.5034 22.0689 38.4984L22.0673 38.4973ZM39.7278 30.7889C39.715 31.0393 39.7571 31.3804 39.8413 31.7148C39.9803 32.2682 40.2135 32.7712 40.6444 33.1643C40.9395 33.4335 41.284 33.5883 41.6872 33.5905C42.1386 33.5927 42.5196 33.4098 42.8508 33.1173C43.2152 32.7961 43.4739 32.3992 43.6638 31.9542C43.8649 31.4826 43.9729 30.9895 44.0055 30.4815C44.0211 30.2405 44.0161 29.9978 43.9895 29.7545C43.9491 29.3886 43.8721 29.0331 43.7342 28.692C43.573 28.294 43.3476 27.9396 43.0075 27.666C42.7218 27.436 42.3945 27.3116 42.0306 27.3094C41.7243 27.3078 41.4397 27.4051 41.1794 27.5687C40.7479 27.8401 40.4405 28.2227 40.2074 28.6671C39.8751 29.3007 39.7267 29.9795 39.7283 30.7883L39.7278 30.7889ZM37.5534 32.0614C37.5396 32.2461 37.5712 32.4324 37.6315 32.6137C37.6836 32.7701 37.7534 32.9172 37.8813 33.0283C38.0563 33.1803 38.2457 33.1726 38.4157 33.015C38.5265 32.9122 38.5941 32.7851 38.6439 32.6469C38.7508 32.35 38.7746 32.0449 38.7165 31.7353C38.6777 31.5302 38.6101 31.3345 38.4778 31.1675C38.3288 30.9785 38.0652 30.9055 37.8575 31.1222C37.7705 31.2134 37.7041 31.3151 37.6592 31.4323C37.5828 31.6324 37.5424 31.8386 37.5534 32.0614Z" fill="#36A9E1"/>
<path d="M39.7274 30.7885C39.7257 29.9791 39.8742 29.3008 40.2065 28.6673C40.4396 28.2223 40.7464 27.8397 41.1784 27.5688C41.4387 27.4052 41.7234 27.3085 42.0297 27.3096C42.3941 27.3112 42.7209 27.4362 43.0066 27.6661C43.3467 27.9398 43.5721 28.2936 43.7333 28.6922C43.8712 29.0333 43.9481 29.3882 43.9886 29.7547C44.0151 29.9979 44.0201 30.2406 44.0046 30.4816C43.9714 30.9897 43.864 31.4833 43.6629 31.9543C43.473 32.3994 43.2143 32.7963 42.8499 33.1175C42.5181 33.4094 42.1371 33.5923 41.6863 33.5907C41.2831 33.589 40.9386 33.4337 40.6434 33.1645C40.2131 32.7714 39.9794 32.2683 39.8404 31.715C39.7562 31.3805 39.7141 31.0394 39.7268 30.789L39.7274 30.7885Z" fill="#9FE4FF"/>
<path d="M37.554 32.0615C37.5424 31.8387 37.5828 31.633 37.6598 31.4324C37.7047 31.3152 37.7711 31.2129 37.8581 31.1222C38.0652 30.9055 38.3288 30.9791 38.4783 31.1676C38.6107 31.3351 38.6783 31.5302 38.7171 31.7353C38.7752 32.0443 38.7514 32.35 38.6445 32.6469C38.5947 32.7851 38.5271 32.9123 38.4163 33.0151C38.2463 33.1726 38.0569 33.1804 37.8819 33.0283C37.7539 32.9172 37.6842 32.7702 37.6321 32.6137C37.5717 32.4324 37.5402 32.2461 37.554 32.0615Z" fill="#9FE4FF"/>
</g>
<defs>
<clipPath id="clip0_7902_11720">
<rect width="27.759" height="23.7108" fill="white" transform="translate(18.1211 20.0483)"/>
</clipPath>
</defs>
</svg>
