<svg width="51" height="51" viewBox="0 0 51 51" fill="none" xmlns="http://www.w3.org/2000/svg">
<path d="M39.1156 37.1398C42.6529 33.1975 44.8096 27.9911 44.8096 22.3033C44.8129 10.0047 34.7586 0 22.4065 0C10.0544 0 0 10.0047 0 22.3033C0 34.6019 10.051 44.6066 22.4065 44.6066C27.7477 44.6066 32.6657 42.7307 36.5222 39.6109L47.9539 51L50.5002 48.4654L39.1189 37.1432L39.1156 37.1398ZM22.4065 41.0254C12.0162 41.0254 3.59444 32.6424 3.59444 22.3C3.59444 11.9575 12.0162 3.57789 22.4065 3.57789C32.7968 3.57789 41.2185 11.9609 41.2185 22.3033C41.2185 32.6457 32.7968 41.0287 22.4065 41.0287V41.0254Z" fill="#0043FF"/>
<path d="M37.2582 22.6117C37.2381 23.6717 37.1003 24.7216 36.8551 25.7549H28.0336L28.0269 25.7482L26.6765 23.3941L29.552 18.4252H23.7908L22.4102 16.0712L26.9687 8.27002C27.9765 8.59103 28.9473 9.02238 29.8577 9.5507L26.5085 15.3121H32.2764L33.6436 17.6461L30.7614 22.615H37.2616L37.2582 22.6117Z" fill="#0043FF"/>
<path d="M32.3772 33.2377C31.5877 33.9465 30.7311 34.5685 29.8107 35.0901L26.6697 29.6731L23.7875 34.6421H21.0396L18.1405 29.6899L14.9895 35.1069C14.0757 34.5852 13.2124 33.9633 12.4297 33.2544L16.7867 25.7609H19.5178L22.4001 30.7198L25.2823 25.7441H28.0134L28.0202 25.7508L32.3704 33.2377H32.3772Z" fill="#0043FF"/>
<path d="M21.0391 18.4246H15.2712L18.1468 23.3935L16.7863 25.7643H7.97147C7.72625 24.7277 7.59187 23.6677 7.56836 22.6011H14.0552L11.1796 17.6254L12.5468 15.2848H18.3215L14.9722 9.53005C15.886 9.00172 16.8568 8.57037 17.8612 8.24268L22.4063 16.0739L21.0391 18.428V18.4246Z" fill="#0043FF"/>
</svg>
