<svg width="74" height="74" viewBox="0 0 74 74" fill="none" xmlns="http://www.w3.org/2000/svg">
<rect width="74" height="74" rx="37" fill="#151A26"/>
<path d="M45.274 44.8536C45.2729 44.8525 45.2729 44.8507 45.2739 44.8495C47.4118 42.4548 48.7151 39.2928 48.7151 35.8386C48.7172 28.3673 42.6374 22.2896 35.1681 22.2896C27.6989 22.2896 21.6191 28.3673 21.6191 35.8386C21.6191 43.3098 27.6969 49.3876 35.1681 49.3876C36.7485 49.3876 38.2675 49.1147 39.68 48.6141C42.1637 47.7338 45.1197 47.7698 46.9821 49.6339L49.8469 52.5012C50.2718 52.9266 50.9612 52.9267 51.3864 52.5015C51.8115 52.0764 51.8114 51.3871 51.3862 50.9621L45.274 44.8536ZM35.1681 47.213C35.1681 47.2125 35.1677 47.212 35.1671 47.212C28.8847 47.2115 23.7927 42.1191 23.7927 35.8365C23.7927 29.5536 28.8852 24.4631 35.1681 24.4631C41.4511 24.4631 46.5436 29.5556 46.5436 35.8386C46.5436 42.1211 41.4516 47.2135 35.1692 47.214C35.1686 47.214 35.1681 47.2136 35.1681 47.213Z" fill="#FF0000"/>
<path d="M44.1475 36.0264C44.1471 36.026 44.1465 36.0263 44.1464 36.0268C44.1373 36.5083 44.0883 36.9864 44.0022 37.4593C43.9512 37.7395 43.7016 37.9348 43.4169 37.9348H38.5728C38.57 37.9348 38.5673 37.9337 38.5654 37.9318C38.5647 37.9311 38.5641 37.9304 38.5637 37.9296L38.1778 37.2539C37.9115 36.7874 37.9126 36.2145 38.1807 35.7491C38.7614 34.7411 38.0341 33.4822 36.8709 33.4822H36.8247C36.3157 33.4822 35.8451 33.2119 35.5885 32.7724C35.3286 32.3272 35.3282 31.7767 35.5874 31.3311L37.4945 28.0522C37.7457 27.6205 38.2672 27.4155 38.7258 27.6134C39.2643 27.8459 39.4338 28.5016 39.1401 29.0093L38.9322 29.3685C38.361 30.3557 39.0734 31.591 40.2139 31.591H40.3174C40.8231 31.591 41.2906 31.8596 41.5453 32.2964C41.8022 32.737 41.8034 33.2814 41.5484 33.7231L41.0387 34.6059C40.6739 35.2377 41.1298 36.0274 41.8594 36.0274H44.147C44.1476 36.0274 44.1479 36.0268 44.1475 36.0264Z" fill="#FF0000"/>
<path d="M41.1935 42.4809C41.1947 42.4809 41.1952 42.4824 41.1944 42.4832C40.8498 42.7938 40.4841 43.0769 40.098 43.3294C39.8521 43.4903 39.5263 43.4008 39.3794 43.1463L38.9524 42.4064C38.4161 41.4772 37.0749 41.4771 36.5385 42.4062L36.4191 42.6129C36.1614 43.0592 35.6853 43.3341 35.17 43.3341C34.6567 43.3341 34.1822 43.0614 33.9238 42.6179L33.8009 42.4071C33.2602 41.4792 31.919 41.4811 31.3809 42.4105L31.2136 42.6995C30.92 43.2065 30.2678 43.3863 29.7977 43.0367C29.3959 42.7379 29.3137 42.1819 29.5645 41.7486L31.3558 38.6535C31.6118 38.2112 32.0841 37.9389 32.5951 37.9389C33.1062 37.9389 33.5785 38.2113 33.8344 38.6537L33.8564 38.6916C34.4376 39.6961 35.8902 39.6915 36.4699 38.6862C36.7397 38.2182 37.2395 37.9287 37.7796 37.9287H38.5538C38.5566 37.9287 38.5592 37.9298 38.5612 37.9318C38.5619 37.9324 38.5624 37.9332 38.5629 37.934L41.1924 42.4803C41.1926 42.4807 41.1931 42.4809 41.1935 42.4809Z" fill="#FF0000"/>
<path d="M34.341 33.4827C34.341 33.4825 34.3408 33.4823 34.3405 33.4823H33.0634C32.0805 33.4823 31.4658 34.5458 31.9564 35.3975L32.1805 35.7865C32.4353 36.2289 32.4363 36.7734 32.1831 37.2167C31.9272 37.6646 31.4509 37.9411 30.9351 37.9411H27.2862C26.7898 37.9411 26.3521 37.6007 26.2832 37.1091C26.1999 36.515 26.6888 36.0194 27.2888 36.0194H27.6527C28.7493 36.0194 29.4354 34.8332 28.8886 33.8827L28.7902 33.7115C28.5358 33.2694 28.537 32.725 28.7935 32.284C29.0487 31.845 29.5182 31.5749 30.026 31.5749H30.1335C31.2722 31.5749 31.9831 30.3414 31.4123 29.3562L31.2027 28.9943C30.9097 28.4886 31.0799 27.8351 31.616 27.6022C32.0755 27.4026 32.5987 27.6075 32.8494 28.0412L35.0568 31.8623C35.1254 31.9811 35.1254 32.1274 35.0568 32.2462L34.3418 33.4829C34.3415 33.4833 34.341 33.4832 34.341 33.4827Z" fill="#FF0000"/>
</svg>
