<svg width="22" height="22" viewBox="0 0 22 22" fill="none" xmlns="http://www.w3.org/2000/svg">
<path d="M16.7816 15.9339C18.2992 14.2425 19.2244 12.0089 19.2244 9.56867C19.2259 4.29227 14.9123 0 9.61293 0C4.31357 0 0 4.29227 0 9.56867C0 14.8451 4.31213 19.1373 9.61293 19.1373C11.9045 19.1373 14.0144 18.3325 15.6689 16.9941L20.5734 21.8803L21.6659 20.7929L16.783 15.9354L16.7816 15.9339ZM9.61293 17.6009C5.15524 17.6009 1.5421 14.0044 1.5421 9.56724C1.5421 5.13007 5.15524 1.535 9.61293 1.535C14.0706 1.535 17.6838 5.13151 17.6838 9.56867C17.6838 14.0058 14.0706 17.6023 9.61293 17.6023V17.6009Z" fill="#FF0000"/>
<path d="M15.9835 9.70078C15.9748 10.1555 15.9157 10.606 15.8105 11.0493H12.0259L12.023 11.0464L11.4436 10.0365L12.6773 7.90468H10.2056L9.61328 6.89474L11.569 3.54785C12.0014 3.68557 12.4179 3.87063 12.8085 4.0973L11.3716 6.56909H13.8461L14.4327 7.57043L13.1962 9.70222H15.9849L15.9835 9.70078Z" fill="#FF0000"/>
<path d="M13.89 14.2598C13.5513 14.564 13.1838 14.8308 12.7889 15.0546L11.4414 12.7306L10.2048 14.8624H9.02588L7.7821 12.7377L6.43024 15.0618C6.03823 14.838 5.66784 14.5711 5.33203 14.267L7.20129 11.0521H8.37301L9.60957 13.1796L10.8461 11.0449H12.0179L12.0207 11.0478L13.8871 14.2598H13.89Z" fill="#FF0000"/>
<path d="M9.02538 7.90444H6.55081L7.78449 10.0362L7.2008 11.0534H3.41904C3.31383 10.6086 3.25618 10.1539 3.24609 9.69624H6.02909L4.7954 7.56158L5.38198 6.55737H7.85944L6.42254 4.08845C6.81455 3.86178 7.23107 3.67672 7.66199 3.53613L9.61196 6.89593L9.02538 7.90588V7.90444Z" fill="#FF0000"/>
</svg>
