<svg width="64" height="64" viewBox="0 0 64 64" fill="none" xmlns="http://www.w3.org/2000/svg">
<rect width="64" height="64" rx="32" fill="#151A26"/>
<path d="M45.5956 45.3423H18.4805V47.4214H45.5956V45.3423Z" fill="white"/>
<path d="M26.6154 34.6349L22.5586 41.6313L22.7255 41.7664C23.1322 42.0991 23.5598 42.411 23.9978 42.702L24.2272 42.858L27.6583 36.9324L30.9643 42.5981H33.1022L36.3977 36.9116L39.8288 42.8372L40.0583 42.6813C40.4963 42.3902 40.9239 42.0783 41.3306 41.7456L41.4975 41.6105L37.4406 34.6245H35.3131L32.0176 40.311L28.7325 34.6349H26.605H26.6154Z" fill="white"/>
<path d="M43.135 25.1222L42.0712 23.303H35.4802L39.1303 17.0343L38.88 16.9096C38.4107 16.6704 37.931 16.4625 37.4408 16.2754L37.2322 16.2026L32.9668 23.5109L34.041 25.3405H40.632L37.3365 31.027L38.4003 32.8671H46.6286L46.6704 32.6592C46.7747 32.1394 46.8477 31.6092 46.8894 31.0894L46.9102 30.8087H39.8394L43.135 25.1326V25.1222Z" fill="white"/>
<path d="M26.7195 31.0381L23.4344 25.3516H30.0151L31.0058 23.6467L31.0892 23.5219L31.1101 23.4699L30.9954 23.3556L26.8343 16.1929L26.6257 16.276C26.1355 16.4632 25.6558 16.6711 25.1865 16.9102L24.9362 17.0349L28.5863 23.3036H21.9953L20.9315 25.1229L24.2166 30.8094H17.1562L17.1771 31.09C17.2188 31.6202 17.2918 32.1608 17.3961 32.6806L17.4378 32.8885H25.6662L26.73 31.0485L26.7195 31.0381Z" fill="white"/>
</svg>
