<svg width="64" height="64" viewBox="0 0 64 64" fill="none" xmlns="http://www.w3.org/2000/svg">
<rect width="64" height="64" rx="32" fill="#151A26"/>
<path d="M32.0987 45.3795C39.541 45.3795 45.5743 39.3462 45.5743 31.9038C45.5743 24.4615 39.541 18.4282 32.0987 18.4282C24.6563 18.4282 18.623 24.4615 18.623 31.9038C18.623 39.3462 24.6563 45.3795 32.0987 45.3795Z" fill="#FF0000"/>
<path d="M38.0802 32.1248L40.1442 28.5489L39.1674 26.869H35.0371L37.4371 22.7267C36.782 22.3444 36.0876 22.0338 35.3659 21.8003L32.0996 27.4161L33.086 29.1105H37.2163L35.1523 32.6888L36.1291 34.3855H42.4457C42.6232 33.6445 42.7205 32.8866 42.7361 32.1248H38.0802Z" fill="white"/>
<path d="M31.1185 40.7858H33.0841L35.1528 37.2099L37.404 41.1098C38.0616 40.7315 38.6771 40.2842 39.2399 39.7754L36.12 34.3804H34.1641L32.0953 37.9587L30.0314 34.39H28.073L24.9531 39.785C25.5151 40.2949 26.1307 40.7423 26.7891 41.1194L29.0426 37.2171L31.1185 40.7858Z" fill="white"/>
<path d="M29.0516 32.6885L26.9901 29.1102H31.118L32.0996 27.4158L28.8428 21.7832C28.1212 22.0167 27.4268 22.3273 26.7717 22.7096L29.1716 26.8519H25.0366L24.0574 28.5318L26.1213 32.1125H21.4727C21.487 32.8799 21.5844 33.6436 21.763 34.39H28.0749L29.0516 32.6885Z" fill="white"/>
</svg>
