<svg width="120" height="108" viewBox="0 0 120 108" fill="none" xmlns="http://www.w3.org/2000/svg">
<path d="M98.7636 101.866C96.7041 103.678 94.379 105.401 91.5887 107.146L77.6598 83.0436L64.373 106.019H55.3601L42.0512 83.0436L28.1 107.19C25.5313 105.6 23.0954 103.81 20.8145 101.866L37.4894 72.9917H46.5687L59.8776 95.9674L73.1644 72.9917H82.0444L98.7858 101.91L98.7636 101.866Z" fill="#00FE6D"/>
<path d="M119.76 59.9575C119.627 62.6528 119.228 65.5026 118.542 68.8164H84.6382L80.1207 61.018L93.4296 38.0422H66.8339L62.3164 30.2438L79.8771 0.132324C82.7338 1.17065 85.4576 2.38571 88.0263 3.77751L73.2337 29.3159H99.8294L104.325 36.9818L91.038 59.9575H119.76Z" fill="#00FE6D"/>
<path d="M52.8593 38.0425H26.2635L39.5725 61.0182L35.1214 68.7946H1.17367C0.575761 65.8563 0.199302 62.8297 0 59.8031H28.6552L15.3684 36.8274L19.8637 29.1615H46.4595L31.6668 3.64518C34.2356 2.25339 36.9594 1.03833 39.8161 0L57.3768 30.2661L52.8593 38.0646V38.0425Z" fill="#00FE6D"/>
</svg>
