<svg width="34" height="34" viewBox="0 0 34 34" fill="none" xmlns="http://www.w3.org/2000/svg">
<path d="M17.0008 33.3913C26.0536 33.3913 33.3923 26.0526 33.3923 16.9999C33.3923 7.94711 26.0536 0.608398 17.0008 0.608398C7.94808 0.608398 0.609375 7.94711 0.609375 16.9999C0.609375 26.0526 7.94808 33.3913 17.0008 33.3913Z" fill="#FF0000"/>
<path d="M24.2747 17.2685L26.7853 12.9188L25.5971 10.8754H20.5731L23.4924 5.83678C22.6955 5.37179 21.8509 4.994 20.9731 4.70996L17 11.541L18.1998 13.6019H23.2238L20.7133 17.9545L21.9014 20.0184H29.5848C29.8007 19.1171 29.9191 18.1951 29.938 17.2685H24.2747Z" fill="white"/>
<path d="M15.81 27.8041H18.2009L20.7173 23.4545L23.4555 28.1982C24.2555 27.7381 25.0041 27.194 25.6887 26.5751L21.8937 20.0127H19.5145L16.9982 24.3653L14.4876 20.0244H12.1055L8.31055 26.5868C8.99409 27.207 9.74287 27.7512 10.5438 28.2099L13.2849 23.4632L15.81 27.8041Z" fill="white"/>
<path d="M13.2931 17.9544L10.7855 13.6019H15.8066L17.0006 11.5409L13.0392 4.68945C12.1614 4.97349 11.3167 5.35128 10.5199 5.81628L13.4391 10.8549H8.40927L7.21823 12.8983L9.72876 17.2538H4.07422C4.09168 18.1873 4.21011 19.1162 4.42745 20.0242H12.105L13.2931 17.9544Z" fill="white"/>
</svg>
