<svg width="60" height="60" viewBox="0 0 60 60" fill="none" xmlns="http://www.w3.org/2000/svg">
<g clip-path="url(#clip0_9423_46986)">
<mask id="mask0_9423_46986" style="mask-type:luminance" maskUnits="userSpaceOnUse" x="0" y="0" width="60" height="60">
<path d="M60 0H0V60H60V0Z" fill="white"/>
</mask>
<g mask="url(#mask0_9423_46986)">
<path fill-rule="evenodd" clip-rule="evenodd" d="M0 0C8.28426 0 15 6.71571 15 15C6.71574 15 0 8.28429 0 0ZM30 0C21.7157 0 15 6.71571 15 15C6.71574 15 0 21.7157 0 30C0 38.2842 6.71574 45 15 45C6.71574 45 0 51.7158 0 60C8.28426 60 15 53.2842 15 45C15 53.2842 21.7157 60 30 60C38.2842 60 45 53.2842 45 45C45 53.2842 51.7158 60 60 60C60 51.7158 53.2842 45 45 45C53.2842 45 60 38.2842 60 30C60 21.7157 53.2842 15 45 15C53.2842 15 60 8.28429 60 0C51.7158 0 45 6.71571 45 15C45 6.71571 38.2842 0 30 0ZM45 45C45 36.7158 38.2842 30 30 30C30 38.2842 36.7158 45 45 45ZM30 30C38.2842 30 45 23.2843 45 15C45 23.2843 51.7158 30 60 30C51.7158 30 45 36.7158 45 45C36.7158 45 30 51.7158 30 60C30 51.7158 23.2843 45 15 45C23.2843 45 30 38.2842 30 30ZM30 30C21.7157 30 15 36.7158 15 45C15 36.7158 8.28426 30 0 30C8.28426 30 15 23.2843 15 15C15 23.2843 21.7157 30 30 30ZM30 30C30 21.7157 36.7158 15 45 15C36.7158 15 30 8.28429 30 0C30 8.28429 23.2843 15 15 15C23.2843 15 30 21.7157 30 30Z" fill="#00FE6D"/>
</g>
</g>
<defs>
<clipPath id="clip0_9423_46986">
<rect width="60" height="60" fill="white"/>
</clipPath>
</defs>
</svg>
