<svg width="255" height="275" viewBox="0 0 255 275" fill="none" xmlns="http://www.w3.org/2000/svg">
<g clip-path="url(#clip0_8160_53854)">
<g clip-path="url(#clip1_8160_53854)">
<path d="M260.163 301.745C260.274 298.319 260.016 294.912 259.575 291.523C259.299 289.349 259.096 287.121 258.269 285.039C256.852 277.561 254.369 270.396 251.702 263.323C248.85 255.753 245.245 248.496 240.94 241.626C240.572 241.055 240.572 240.576 240.959 240.042C241.989 238.66 242.578 237.058 243.001 235.4C244.16 231.145 244.362 226.817 244.159 222.415C243.92 217.958 243.369 213.537 242.412 209.19C240.444 200.128 237.629 191.361 233.049 183.256C230.713 179.112 228.119 175.17 224.293 172.205C221.533 170.087 218.498 168.65 214.911 169.055C212.207 169.368 209.576 170.16 207.075 171.192C201.869 173.31 197.215 176.423 192.763 179.794C187.98 183.44 183.363 187.327 179.206 191.692C178.58 192.355 177.973 192.503 177.072 192.189C174.846 191.416 172.565 190.753 170.303 190.145C167.304 189.335 164.324 188.45 161.197 188.1C161.013 188.008 160.829 187.898 160.627 187.843C155.402 186.664 150.086 186.203 144.77 185.743C142.562 185.632 140.373 185.54 138.166 185.448H121.481C118.998 185.595 116.496 185.614 114.031 185.982C110.867 185.927 107.722 186.332 104.631 186.866C102.093 187.29 99.5359 187.622 97.0894 188.395C92.3434 189.371 87.671 190.642 83.0722 192.208C82.1524 192.521 81.6005 192.355 80.9567 191.692C79.3931 190.108 77.8663 188.469 76.1555 187.051C71.9798 183.588 67.9329 179.959 63.3524 176.957C58.9744 174.065 54.4675 171.579 49.4456 169.958C44.3133 168.319 39.7513 168.982 35.5572 172.444C33.1474 174.434 31.2711 176.847 29.5235 179.388C24.9983 185.927 22.239 193.258 19.9028 200.773C18.2473 206.059 17.1067 211.456 16.4445 216.926C15.8927 221.365 15.5431 225.822 16.1502 230.28C16.6101 233.687 17.1067 237.095 19.1854 239.987C19.6085 240.576 19.6269 241.018 19.2038 241.663C16.2606 246.267 13.8876 251.167 11.533 256.085C8.64493 262.126 6.51107 268.481 4.54278 274.872C3.51265 278.224 2.44572 281.576 1.91226 285.058C1.7467 285.518 1.50756 285.96 1.41559 286.439C0.551009 291.504 -0.148011 296.588 0.0359418 301.745C-0.0560345 304.232 0.054337 306.737 0.311871 309.205C0.348661 313.791 1.59954 318.138 3.01597 322.43C3.40228 323.627 3.58623 324.953 4.57957 325.892C4.52439 326.261 4.67155 326.574 4.81871 326.905C5.59131 328.784 6.51107 330.589 7.55961 332.339C8.40579 334.126 9.47271 335.783 10.558 337.423C12.0113 339.614 13.7956 341.567 15.488 343.538C17.3091 345.656 19.259 347.682 21.632 349.247C22.2942 350.205 23.214 350.96 24.1153 351.642C29.5419 355.768 35.1893 359.58 41.3517 362.601C47.0726 365.401 52.8487 368.053 58.9192 370.061C67.6569 372.971 76.4315 375.605 85.5187 377.281C89.7313 378.055 93.9622 378.847 98.1931 379.528C98.1931 379.528 98.1931 379.528 98.2299 379.528C99.1864 379.731 120.562 384.078 152.661 380.725C153.894 380.596 155.145 380.449 156.396 380.302C156.432 380.302 156.469 380.302 156.506 380.302C157.555 380.154 158.603 380.025 159.652 379.897C160.167 379.823 160.682 379.768 161.178 379.694C161.454 379.657 161.73 379.62 162.006 379.583C162.135 379.565 162.245 379.547 162.374 379.528C167.01 378.865 171.59 377.963 176.189 377.06C186.803 374.942 197.141 371.811 207.222 367.887C213.329 365.511 219.234 362.693 224.863 359.341C229.701 356.449 234.355 353.318 238.567 349.561C239.524 348.695 240.517 347.866 241.455 346.982C243.902 344.624 246.091 342.027 248.188 339.393C249.88 337.275 251.573 335.12 252.493 332.505C253.872 330.479 254.994 328.324 255.638 325.929C256.944 324.032 257.459 321.803 258.048 319.648C258.986 316.241 259.924 312.833 259.924 309.242C260.035 306.755 260.366 304.268 260.2 301.782L260.163 301.745ZM120.654 294.249C123.744 292.609 127 291.891 130.514 292.002C132.758 292.075 134.91 292.407 137.044 293.107C138.552 293.604 139.693 294.728 141.109 295.335C138.736 299.222 135.94 302.758 132.279 305.539C130.422 306.958 129.759 306.976 127.883 305.558C124.186 302.758 121.316 299.222 118.851 295.317C119.697 295.391 120.028 294.58 120.635 294.267L120.654 294.249ZM41.0574 215.692C40.2296 216.447 39.9537 216.208 39.6042 215.342C38.0774 211.658 37.0656 207.864 36.9736 203.72C37.1944 199.631 37.8566 195.542 40.6527 192.189C44.7916 187.216 50.1079 185.743 56.2519 187.382C61.5497 188.8 65.707 192.024 69.1653 196.223C69.8828 197.089 69.57 197.365 68.7606 197.752C64.125 199.962 59.5446 202.246 55.2217 205.046C50.255 208.269 45.3987 211.677 41.039 215.71L41.0574 215.692ZM100.235 300.806C98.8737 302.021 97.9171 303.587 96.5743 304.821C92.0491 309.021 86.8248 311.765 80.6992 312.741C80.2577 312.815 79.8346 312.925 79.3931 313.036C76.5602 313.312 73.7274 313.294 70.8945 312.741C63.334 311.305 57.1348 307.713 52.3889 301.579C50.9356 299.701 49.8135 297.656 48.6546 295.612C48.5627 295.354 48.4707 295.096 48.3787 294.856C48.1028 294.101 47.8452 293.346 47.5877 292.591C47.0542 290.896 46.5944 289.183 46.3736 287.397C45.7114 282.203 46.2264 277.156 48.2499 272.33C51.745 264.078 57.6499 258.203 66.1485 255.256C71.9798 253.23 77.9767 253.101 84.0103 254.758C88.9402 256.121 93.0976 258.719 96.7398 262.255C100.934 266.344 103.638 271.262 104.907 276.99C105.441 278.795 105.625 280.674 105.662 282.516C105.772 287.544 104.76 292.333 102.387 296.809C101.67 298.135 100.952 299.48 100.235 300.806ZM209.999 295.262C207.645 300.29 204.389 304.582 199.79 307.731C195.467 310.678 190.74 312.594 185.442 313.036C183.878 313.165 182.333 313.239 180.769 313.239C178.728 312.889 176.649 312.686 174.625 312.078C168.389 310.218 163.147 306.866 159.192 301.616C158.953 301.303 158.75 300.935 158.327 300.824C158.106 300.437 157.922 300.032 157.683 299.664C154.556 294.654 152.809 289.257 152.845 283.289C152.845 281.098 153.268 278.961 153.489 276.806C154.575 273.012 156.083 269.438 158.419 266.215C162.153 261.039 166.936 257.208 173.007 255.201C178.783 253.303 184.669 253.119 190.611 254.703C195.578 256.029 199.735 258.608 203.396 262.163C208.436 267.062 211.306 272.993 212.207 279.974C212.888 285.297 211.968 290.344 209.999 295.262ZM220.485 215.545C220.246 216.079 220.062 216.521 219.381 215.895C211.122 208.49 201.869 202.596 191.825 197.899C190.225 197.163 190.004 197.328 191.31 195.836C196.001 190.495 201.538 186.701 209.025 186.774C214.322 186.83 219.951 190.919 221.699 195.947C222.6 198.544 223.097 201.178 223.189 204.106C223.005 207.974 222.104 211.842 220.466 215.545H220.485Z" fill="#1AE19D"/>
</g>
</g>
<defs>
<clipPath id="clip0_8160_53854">
<rect width="255" height="275" fill="white"/>
</clipPath>
<clipPath id="clip1_8160_53854">
<rect width="260.219" height="212.996" fill="white" transform="translate(0 169)"/>
</clipPath>
</defs>
</svg>
