<svg width="64" height="64" viewBox="0 0 64 64" fill="none" xmlns="http://www.w3.org/2000/svg">
<rect width="64" height="64" rx="32" fill="#151A26"/>
<g clip-path="url(#clip0_7898_11385)">
<path d="M34.7887 40.5921C34.6158 40.6246 34.4436 40.653 34.2715 40.6781C34.2601 40.6781 34.2503 40.6805 34.239 40.683C34.2154 40.6854 34.1927 40.6903 34.1691 40.6919C34.1269 40.6992 34.0831 40.7032 34.0384 40.7105C33.9499 40.7195 33.8589 40.7316 33.7704 40.743C33.7655 40.7454 33.7631 40.7454 33.7615 40.7454C33.6543 40.7568 33.5471 40.7713 33.4423 40.7803C30.7008 41.0641 28.8753 40.6967 28.7941 40.6781H28.7892C28.6398 40.6546 28.4912 40.6294 28.3418 40.6011C29.5282 40.3935 30.7406 40.1543 31.9766 39.8818C32.8999 40.1446 33.8419 40.387 34.7904 40.5921H34.7887Z" fill="white"/>
<path d="M31.0463 39.6078C30.0791 39.8106 29.1274 39.9946 28.1927 40.1552C27.8054 40.2225 27.4237 40.2857 27.0436 40.3441C23.9944 40.8193 21.1457 41.0609 18.5625 41.0609C16.884 41.0609 15.2915 40.9587 13.8322 40.756H13.8298C13.1071 40.6255 12.049 40.4049 11.2353 39.9808C10.3566 39.5243 9.88563 38.8983 9.83203 38.1207V38.1159C9.83447 37.245 10.3379 36.4139 11.0558 35.6557C11.7737 34.8967 12.7108 34.2051 13.5805 33.614H13.5829C14.3917 33.0999 15.2192 32.6085 16.0613 32.1431C16.1523 32.2266 16.2457 32.3085 16.3407 32.3896C15.4482 32.8574 14.585 33.3512 13.7624 33.8629C13.0186 34.3608 12.0701 35.0313 11.3376 35.7814C10.5426 36.5987 10.1487 37.348 10.1325 38.0769C10.1934 38.7775 10.6222 39.3175 11.4448 39.7295C12.2097 40.1114 13.1818 40.3092 13.9435 40.4373C15.0836 40.5792 16.3285 40.6514 17.6432 40.6514C20.2288 40.6514 22.9395 40.3887 25.6534 39.946C25.5787 39.92 25.5064 39.8973 25.4317 39.8714C25.2011 39.7968 24.977 39.7084 24.7536 39.6151C24.4759 39.4984 24.2031 39.3686 23.931 39.2357C23.4064 38.9794 22.9241 38.6559 22.4604 38.3024C22.3832 38.244 22.3069 38.1815 22.2484 38.0996C22.0454 37.9667 21.8798 37.7948 21.7238 37.6131C21.5793 37.4453 21.4274 37.2782 21.3016 37.0917C21.2082 36.9523 21.1172 36.8128 21.045 36.6587C20.9564 36.5095 20.8769 36.3563 20.8119 36.1982C20.8005 36.1682 20.7883 36.1422 20.7932 36.1098C20.7071 36.0303 20.6933 35.9168 20.66 35.8163C20.5951 35.6184 20.5342 35.4206 20.4895 35.2178C20.4919 35.2203 20.4944 35.2203 20.4968 35.2227C21.7182 35.9071 23.0938 36.5841 24.7049 37.2855C26.5353 38.0607 28.7173 38.8983 31.0463 39.6086V39.6078Z" fill="white"/>
<path d="M52.7302 24.9104C51.9539 24.4749 50.9023 24.1587 49.6111 23.9649C48.5806 23.8295 47.4689 23.7597 46.3101 23.7597C44.5503 23.7597 42.6452 23.913 40.4543 24.2325C40.408 24.1417 40.3609 24.0508 40.3098 23.9625C40.2797 23.9089 40.2464 23.853 40.2164 23.7995C40.0418 23.5059 39.8388 23.2335 39.561 23.0194C39.328 22.8402 39.0665 22.7194 38.7587 22.7518C38.5281 22.7778 38.304 22.8475 38.0896 22.9335C37.647 23.1151 37.2483 23.3778 36.8682 23.6665C36.4833 23.9576 36.113 24.2673 35.7728 24.616C35.7517 24.6347 35.7306 24.6582 35.7094 24.6793C35.6558 24.7352 35.6047 24.749 35.5275 24.7214C35.4951 24.7101 35.4642 24.7003 35.4317 24.6914C35.2734 24.6379 35.1101 24.5917 34.9493 24.5495C34.6927 24.4798 34.4361 24.4028 34.1706 24.3752C34.1568 24.3663 34.1405 24.3565 34.1219 24.3517C33.6768 24.2519 33.2221 24.2122 32.7698 24.1725C32.5806 24.1652 32.3922 24.1563 32.2054 24.149H30.7786C30.5667 24.1603 30.3547 24.1603 30.142 24.1936C29.8715 24.1911 29.6036 24.2236 29.3396 24.2706C29.1228 24.3055 28.9036 24.3338 28.6941 24.4011C28.288 24.483 27.8901 24.5917 27.4979 24.7247C27.4183 24.7506 27.372 24.736 27.316 24.6801C27.1828 24.5455 27.0529 24.4052 26.9059 24.2844C26.5494 23.9884 26.2043 23.6795 25.8129 23.4232C25.4401 23.1792 25.0552 22.9643 24.624 22.8273C24.1855 22.6878 23.7965 22.7437 23.44 23.0389C23.2329 23.2092 23.0738 23.4135 22.9227 23.63C22.5378 24.1863 22.3007 24.8098 22.1001 25.4504C22.0465 25.6247 21.9978 25.8015 21.958 25.9791C21.9207 26.1307 21.8906 26.2815 21.8646 26.4331C20.4492 26.1583 19.1791 26.0237 17.9854 26.0237C17.9269 26.0237 17.8669 26.0237 17.8084 26.0261C16.8826 26.052 16.1136 26.1866 15.5281 26.4267C14.7445 26.7478 14.2881 27.2578 14.1712 27.9397V27.9422C14.0778 28.6265 14.332 29.3944 14.9313 30.228C15.2415 30.6634 15.6442 31.1126 16.1323 31.5732C16.2492 31.6851 16.3702 31.797 16.4961 31.9064C16.5919 31.9924 16.6894 32.0767 16.7901 32.1602C16.8063 32.174 16.8201 32.1862 16.8363 32.2C16.9533 32.2957 17.0694 32.3889 17.188 32.4797C18.16 33.2436 19.2254 33.9555 20.424 34.6447C20.5239 34.7031 20.6246 34.7591 20.7269 34.8166C21.9345 35.4961 23.2979 36.1643 24.8928 36.8608C26.9213 37.7171 29.3802 38.6528 31.9959 39.4053C32.3061 39.4961 32.6204 39.582 32.9379 39.668C33.9286 39.9307 34.938 40.1683 35.9474 40.3597C37.6982 40.6929 39.4563 40.8924 41.1389 40.8924C41.2623 40.8924 41.3882 40.89 41.5092 40.89L41.5116 40.8875H41.514C42.8125 40.8154 44.3351 40.5753 44.5658 39.3582V39.3534C44.6754 38.4152 43.9665 37.4519 43.1252 36.6111C43.0042 36.4902 42.8807 36.3686 42.7549 36.2551C42.9181 36.1918 43.0789 36.1294 43.2372 36.0662C43.5003 35.964 43.7618 35.8586 44.0184 35.7515C46.224 34.8393 48.1543 33.8541 49.914 32.7392C51.1727 31.9219 52.1821 31.1005 52.9186 30.2993C53.8931 29.2355 54.3779 28.2065 54.3616 27.2408V27.2383C54.3154 26.2726 53.7648 25.4901 52.7294 24.9104H52.7302ZM21.3863 30.1639C21.3067 30.3318 21.2328 30.5012 21.1646 30.6764C21.0225 31.0323 20.9015 31.3956 20.7895 31.7637C20.7009 32.05 20.61 32.3338 20.5653 32.6322C20.5515 32.6719 20.5304 32.7092 20.5231 32.7489C20.502 32.8746 20.4809 33.0003 20.4646 33.126C20.4386 33.2963 20.42 33.4682 20.411 33.6401C19.5251 33.0927 18.7488 32.5576 18.082 32.0386C17.9424 31.934 17.8068 31.8246 17.676 31.7175C17.8295 31.6429 17.9862 31.5683 18.1421 31.4962C19.2076 30.9886 20.3079 30.5142 21.4318 30.069C21.4156 30.1015 21.4018 30.1323 21.3855 30.1647L21.3863 30.1639ZM22.0417 28.9346C21.9434 29.0887 21.8524 29.2444 21.7688 29.4049C20.4354 29.9588 19.1085 30.5645 17.8084 31.2205C17.6565 31.2951 17.5079 31.3721 17.3585 31.4483C17.2302 31.3364 17.1043 31.2269 16.9882 31.1175C16.825 30.9642 16.6731 30.815 16.531 30.6658C15.6012 29.6904 15.1976 28.8479 15.3673 28.2284C15.4697 27.8513 15.7872 27.5554 16.3069 27.351C16.855 27.137 17.6143 27.0275 18.5685 27.0275C19.5226 27.0275 20.5475 27.1272 21.7599 27.3251C21.7509 27.4832 21.7509 27.6413 21.7623 27.7978C21.7672 27.8538 21.7737 27.9073 21.781 27.9632C21.8208 28.2543 21.8622 28.5454 22.04 28.7919C22.0774 28.8406 22.0774 28.8779 22.0425 28.9338L22.0417 28.9346ZM23.9094 26.7234C23.8396 26.7883 23.816 26.768 23.786 26.6934C23.7413 26.584 23.7023 26.4745 23.669 26.3626C23.6041 26.151 23.5667 25.9345 23.5618 25.7042C23.5805 25.3547 23.6365 25.0085 23.8745 24.7222C24.2285 24.2982 24.6833 24.1725 25.2079 24.3128C25.6602 24.4336 26.0143 24.7085 26.3107 25.0644C26.374 25.139 26.3456 25.1625 26.2782 25.195C25.8819 25.3839 25.4905 25.5769 25.1218 25.8169C24.7954 26.0285 24.4762 26.2475 24.1757 26.494C24.0848 26.5686 23.9963 26.6456 23.9102 26.7242L23.9094 26.7234ZM29.148 33.6344C29.0871 33.7463 29.027 33.8598 28.9661 33.9741C28.8475 34.0763 28.7679 34.2093 28.651 34.3163C28.2637 34.6723 27.8186 34.9074 27.2941 34.9918C27.2567 34.9966 27.2193 35.0056 27.1844 35.0153C26.9416 35.0388 26.6996 35.0364 26.4593 34.9918C25.8137 34.8685 25.2818 34.5612 24.8766 34.0398C24.7531 33.8793 24.6573 33.7049 24.5574 33.5298C24.5501 33.5087 24.5436 33.4876 24.5339 33.4649C24.5128 33.4017 24.4892 33.3368 24.4689 33.2744C24.4226 33.13 24.3853 32.9833 24.3641 32.8324C24.3081 32.3905 24.3503 31.9592 24.5249 31.5497C24.823 30.8467 25.3289 30.3464 26.054 30.095C26.5526 29.9231 27.0634 29.9109 27.5791 30.0528C28.0014 30.1672 28.3554 30.3901 28.6681 30.691C29.0246 31.0405 29.2576 31.4589 29.3648 31.9454C29.4095 32.0986 29.4257 32.26 29.4282 32.4181C29.4395 32.8438 29.351 33.2541 29.148 33.6352V33.6344ZM31.7052 34.3747C31.5444 34.4955 31.4883 34.498 31.3276 34.3771C31.0125 34.1396 30.7656 33.8371 30.5585 33.5038C30.6308 33.5111 30.6584 33.4406 30.7104 33.413C30.9735 33.2736 31.2537 33.2127 31.5517 33.2225C31.745 33.2298 31.9293 33.2549 32.1112 33.3157C32.2395 33.3603 32.3378 33.4528 32.4588 33.5063C32.2557 33.8371 32.0162 34.1371 31.706 34.3747H31.7052ZM38.2585 24.26C38.4777 24.2625 38.7035 24.346 38.8951 24.4814C38.4055 24.5649 37.902 24.6557 37.3823 24.7539C37.2288 24.7839 37.0745 24.8171 36.9186 24.8495C37.2824 24.4936 37.7087 24.2536 38.2593 24.2609L38.2585 24.26ZM34.5287 30.4266C34.722 30.2823 34.9412 30.168 35.1816 30.0893C35.6737 29.9288 36.1772 29.9125 36.6855 30.0471C37.1102 30.159 37.4667 30.3804 37.7769 30.6829C38.2081 31.0996 38.4534 31.6048 38.5297 32.1984C38.5484 32.3427 38.5533 32.4846 38.546 32.6241C38.537 32.7943 38.5086 32.9614 38.4664 33.1244C37.0534 32.247 35.5966 31.4597 34.156 30.7615C34.268 30.6358 34.3939 30.5239 34.5287 30.4266ZM42.8629 36.7092C43.1471 36.984 43.4297 37.2841 43.6668 37.5962C44.1516 38.232 44.3636 38.7858 44.3148 39.2934C44.215 39.771 43.8723 40.1083 43.2681 40.3248C42.6996 40.5275 42.0045 40.5835 41.4588 40.611H41.4004C39.9736 40.611 38.4258 40.4367 36.8171 40.1269C37.1297 40.0337 37.4375 39.9315 37.7453 39.8196C37.8638 39.775 37.9832 39.7312 38.1018 39.685C38.6215 39.4823 39.1274 39.2431 39.6081 38.9561C40.0207 38.712 40.4194 38.4436 40.7783 38.1225C40.8603 38.0503 40.9464 37.9782 41.0252 37.9036C41.2323 37.7008 41.419 37.4819 41.5985 37.2565C41.6285 37.2192 41.657 37.1819 41.687 37.1446C40.5355 37.5541 39.2996 37.9571 37.9548 38.3601C36.9032 38.6625 35.8637 38.9447 34.8332 39.2074C34.5181 39.2845 34.2063 39.3631 33.8937 39.4377C33.5932 39.3558 33.2879 39.2674 32.9842 39.1766C33.2871 39.1069 33.5924 39.0323 33.8977 38.9577C35.1889 38.6431 36.4996 38.2944 37.8257 37.9125C39.3385 37.4584 40.7166 37.0027 41.985 36.5389C41.9339 36.4927 41.8803 36.4481 41.8316 36.4043C40.7101 35.5034 39.4603 34.6561 38.1318 33.872C37.9597 34.142 37.7428 34.3771 37.4675 34.5636C37.0989 34.815 36.6961 34.978 36.2438 35.0153C36.1106 35.0266 35.9782 35.0339 35.845 35.0315C35.6705 35.0015 35.4934 34.9853 35.3205 34.9334C34.7869 34.7753 34.3387 34.489 34.0009 34.0414C33.9797 34.0139 33.9635 33.9831 33.9286 33.9741C33.9099 33.9417 33.8937 33.9068 33.8726 33.876C33.6046 33.4479 33.4552 32.9889 33.46 32.4813C33.46 32.2924 33.4949 32.1116 33.5136 31.9275C33.551 31.8018 33.5932 31.6762 33.6419 31.5578C33.7004 31.4134 33.7702 31.2764 33.8539 31.1459C35.4041 31.844 36.9243 32.6168 38.3535 33.4617C39.7105 34.2628 40.9854 35.1264 42.1304 36.0459C42.2425 36.1416 42.361 36.2462 42.482 36.3556C42.6054 36.4675 42.7338 36.5859 42.8621 36.7092H42.8629ZM52.6774 28.0216C52.6685 28.0638 52.6588 28.1051 52.645 28.1497C52.4395 28.8925 51.7874 29.7325 50.7171 30.6261C49.1433 31.9389 46.6674 33.3546 43.5556 34.7209C43.2291 34.8604 42.8962 34.9983 42.5535 35.1377C42.5811 34.9885 42.6022 34.8401 42.6022 34.6885C42.6022 34.6626 42.6046 34.6399 42.6071 34.6139C42.6184 34.4274 42.6371 34.2393 42.6258 34.0528C42.6347 33.7593 42.6119 33.4682 42.577 33.1819C42.5535 32.9954 42.5348 32.8073 42.465 32.6305C42.344 31.9924 42.1312 31.3826 41.9055 30.7802C41.661 30.1355 41.3533 29.5185 40.9846 28.9322C40.9545 28.8836 40.9521 28.8438 40.987 28.7976C41.0755 28.6792 41.1243 28.5438 41.1616 28.4043C41.2599 28.0411 41.2785 27.6713 41.2599 27.2959C41.2412 26.9164 41.1925 26.5418 41.1104 26.1712C41.0804 26.0318 41.0471 25.8915 41.0106 25.7545C40.4998 25.808 39.9801 25.8688 39.4506 25.9361C39.4206 26.1988 39.3483 26.4599 39.2362 26.7113C39.2175 26.7559 39.2013 26.7924 39.1428 26.7413C38.8813 26.5086 38.6093 26.2921 38.3243 26.0942C38.1334 25.9572 37.9369 25.8291 37.7347 25.7099C38.3129 25.6215 38.8838 25.5396 39.4457 25.4658C39.9305 25.405 40.4088 25.3474 40.8798 25.2955C41.7073 25.2071 42.5121 25.1374 43.2835 25.0863C44.0322 25.0466 44.7525 25.0255 45.4233 25.0255H45.4257C47.6475 25.0255 49.4121 25.2396 50.6668 25.6636C51.5202 25.9523 52.1122 26.3245 52.4314 26.7786C52.4525 26.8061 52.4712 26.8345 52.4874 26.8621C52.5832 27.0153 52.6506 27.1783 52.6856 27.351C52.7302 27.5627 52.7278 27.7865 52.6782 28.0216H52.6774Z" fill="white"/>
</g>
<defs>
<clipPath id="clip0_7898_11385">
<rect width="44.5301" height="18.3133" fill="white" transform="translate(9.83203 22.7471)"/>
</clipPath>
</defs>
</svg>
