<svg width="198" height="44" viewBox="0 0 198 44" fill="none" xmlns="http://www.w3.org/2000/svg">
<path d="M59.5951 11.1016C60.2082 11.1016 60.8083 11.1728 61.402 11.3151C61.9957 11.4574 62.5313 11.6709 63.0217 11.9621C63.5121 12.2467 63.9122 12.6608 64.2155 13.1913C64.5188 13.7218 64.6543 14.4011 64.6156 15.2163H71.3462C71.3075 13.5795 70.9784 12.1497 70.3653 10.9205C69.7523 9.69123 68.894 8.69491 67.797 7.91208C66.6935 7.13572 65.4287 6.55345 64.0026 6.16528C62.5764 5.7771 61.0212 5.58301 59.3499 5.58301C56.4137 5.58301 53.9938 6.17822 52.0966 7.36216C50.1994 8.5461 49.2508 10.3705 49.2508 12.8225C49.2121 14.4594 49.5476 15.7792 50.2575 16.782C50.9738 17.7848 51.8966 18.5805 53.0388 19.1757C54.181 19.7709 55.3941 20.2497 56.6783 20.6185C57.9625 20.9872 59.1757 21.3366 60.3179 21.6601C61.4601 21.99 62.3893 22.3653 63.0991 22.7923C63.8154 23.2193 64.1704 23.8274 64.1704 24.6038C64.2091 24.9337 64.1123 25.2766 63.8671 25.6454C63.6218 26.0141 63.2153 26.3312 62.641 26.5964C62.0667 26.8617 61.2923 26.9975 60.3179 26.9975C59.0531 26.9975 58.0915 26.7905 57.4398 26.3829C56.788 25.9753 56.3298 25.516 56.0653 25.0049C55.8007 24.4938 55.6458 24.0215 55.6071 23.5945C55.5684 23.1675 55.549 22.9281 55.549 22.8893H48.7539C48.7539 24.4808 49.0507 25.833 49.6444 26.9393C50.2381 28.0456 51.0189 28.9514 51.9998 29.6695C52.9807 30.3876 54.0067 30.9375 55.0909 31.3257C56.1685 31.7139 57.201 31.9792 58.1819 32.1215C59.1628 32.2638 59.9371 32.335 60.505 32.335C62.7055 32.335 64.6027 32.0568 66.1966 31.5069C67.7906 30.957 69.0231 30.1482 69.9007 29.0808C70.7783 28.0197 71.2171 26.687 71.2171 25.0955C71.2171 23.5039 70.8493 22.2812 70.1137 21.3237C69.378 20.3661 68.4423 19.5963 67.3001 19.0205C66.1579 18.4511 64.9254 17.9788 63.596 17.6101C62.2732 17.2413 61.0342 16.8919 59.892 16.5685C58.7498 16.245 57.8141 15.8439 57.0784 15.3716C56.3427 14.8993 55.9749 14.2394 55.9749 13.3789C55.9749 12.8096 56.2524 12.2856 56.8009 11.8133C57.3494 11.341 58.2787 11.1081 59.5822 11.1081L59.5951 11.1016Z" fill="#00FE6D"/>
<path d="M86.3928 24.2349L80.5786 6.44336H72.9897L82.8436 31.7785L81.6175 34.4763C81.0884 35.6603 80.585 36.5013 80.1204 36.993C79.6493 37.4847 79.1589 37.7694 78.6491 37.8535C78.1393 37.9376 77.5972 37.9764 77.0294 37.9764H72.9316V43.6826H78.1328C79.4815 43.6826 80.6237 43.5791 81.5594 43.3786C82.4951 43.1715 83.334 42.7833 84.0697 42.214C84.8053 41.6382 85.5087 40.7907 86.1799 39.665C86.851 38.5393 87.5995 37.0383 88.4126 35.1556L100.286 6.44336H92.6975L86.3928 24.2349Z" fill="#00FE6D"/>
<path d="M127.359 13.0683C127.133 11.8843 126.714 10.791 126.107 9.78817C125.494 8.78537 124.617 7.97667 123.475 7.36205C122.332 6.74743 120.861 6.44336 119.067 6.44336C117.434 6.44336 116.086 6.68921 115.027 7.1809C113.969 7.67259 113.143 8.23545 112.549 8.86948C111.956 9.5035 111.543 10.0858 111.298 10.6163C111.052 11.1468 110.91 11.4315 110.872 11.4767H110.749L109.523 6.44336H103.16V31.7203H110.749V19.635C110.749 18.4898 110.859 17.4159 111.085 16.4131C111.31 15.4103 111.775 14.5822 112.491 13.9287C113.208 13.2753 114.298 12.9454 115.763 12.9454C117.228 12.9454 118.364 13.2624 119.035 13.8964C119.706 14.5304 120.145 15.3391 120.351 16.3225C120.558 17.3059 120.655 18.3475 120.655 19.4538V31.7203H127.811V19.512C127.811 18.6516 127.792 17.6617 127.753 16.536C127.714 15.4103 127.579 14.2587 127.353 13.0683H127.359Z" fill="#00FE6D"/>
<path d="M141.465 11.5354H147.157V6.44377H141.465V0H135.593C135.593 1.42979 135.502 2.58786 135.315 3.46773C135.128 4.3476 134.844 4.99457 134.457 5.40215C134.07 5.80974 133.579 6.08794 132.986 6.23027C132.392 6.3726 131.708 6.44377 130.934 6.44377V11.5354H134.541V24.6041C134.541 27.2243 135.154 29.0616 136.374 30.1227C137.6 31.1837 139.31 31.7207 141.517 31.7207H147.331V26.0144H141.459V11.5354H141.465Z" fill="#00FE6D"/>
<path d="M164.135 7.3944C162.851 8.02842 161.851 8.82419 161.134 9.78817C160.418 10.7521 159.908 11.7485 159.605 12.7966C159.515 13.1006 159.444 13.3853 159.379 13.67L158.902 6.44336H151.926V31.7203H159.327V21.233C159.327 19.9261 159.521 18.8392 159.908 17.9787C160.295 17.1183 160.87 16.4454 161.625 15.9537C162.38 15.462 163.361 15.1256 164.561 14.9445C165.761 14.7633 167.181 14.6663 168.814 14.6663H169.607V6.44336H168.872C166.994 6.44336 165.413 6.76037 164.129 7.3944H164.135Z" fill="#00FE6D"/>
<path d="M190.418 6.4436V11.2311H190.296C190.212 11.1082 190.031 10.7912 189.747 10.2801C189.463 9.769 189.025 9.20614 188.431 8.59152C187.837 7.97691 187.031 7.45934 186.011 7.02587C184.991 6.59887 183.707 6.37891 182.158 6.37891C179.874 6.37891 178.048 6.92236 176.68 8.00279C175.312 9.08969 174.311 10.6101 173.679 12.5704C173.047 14.5307 172.73 16.8274 172.73 19.4411C172.73 22.0549 173.034 24.3257 173.647 26.2537C174.26 28.1751 175.26 29.6696 176.647 30.7306C178.035 31.7917 179.868 32.3287 182.152 32.3287C183.662 32.3287 184.927 32.1346 185.946 31.7464C186.966 31.3582 187.779 30.8989 188.392 30.3683C189.005 29.8378 189.463 29.3332 189.767 28.8674C190.07 28.3951 190.244 28.0781 190.289 27.9164H190.412L191.574 31.7205H198.001V6.4436H190.412H190.418ZM189.993 22.8247C189.747 23.8469 189.257 24.6557 188.521 25.2509C187.786 25.8461 186.689 26.1437 185.217 26.1437C183.746 26.1437 182.636 25.8396 181.881 25.225C181.126 24.6104 180.629 23.8017 180.384 22.7989C180.139 21.7961 180.016 20.7027 180.016 19.5188C180.016 18.3348 180.139 17.2414 180.384 16.2386C180.629 15.2359 181.126 14.4271 181.881 13.8125C182.636 13.1979 183.746 12.8938 185.217 12.8938C186.689 12.8938 187.786 13.1785 188.521 13.7543C189.257 14.3301 189.747 15.1259 189.993 16.1481C190.238 17.1703 190.36 18.296 190.36 19.5188C190.36 20.7415 190.238 21.809 189.993 22.8312V22.8247Z" fill="#00FE6D"/>
<path d="M15.5455 32.1219V24.3648C11.2478 24.3648 7.76953 20.8776 7.76953 16.5688H0C0 25.1735 6.95644 32.1478 15.5391 32.1542C15.0615 33.6487 14.8034 35.2467 14.8034 36.9029H22.5794C22.5794 32.6006 26.0576 29.107 30.3554 29.107V21.3111C23.4312 21.3111 17.5718 25.8463 15.5584 32.1154L15.5455 32.1219Z" fill="#00FE6D"/>
<path d="M22.5858 5.72528C23.0634 4.23079 23.3215 2.63279 23.3215 0.976562H15.5455C15.5455 5.27888 12.0673 8.77248 7.76953 8.77248V16.5684C14.6937 16.5684 20.5531 12.0332 22.5665 5.7641V13.5212C26.8643 13.5212 30.3425 17.0083 30.3425 21.3171H38.1185C38.1185 12.7125 31.162 5.73822 22.5794 5.73175L22.5858 5.72528Z" fill="#00FE6D"/>
</svg>
