<svg width="100%" height="100%" viewBox="0 0 211 211" fill="none" xmlns="http://www.w3.org/2000/svg">
<g clip-path="url(#clip0_2551_20001)">
<rect y="0.895874" width="210.104" height="210.104" rx="8" fill="#1A202E"/>
<mask id="mask0_2551_20001" style="mask-type:luminance" maskUnits="userSpaceOnUse" x="0" y="0" width="211" height="211">
<path d="M210.104 0.895874H0V211H210.104V0.895874Z" fill="white"/>
</mask>
<g mask="url(#mask0_2551_20001)">
<path fill-rule="evenodd" clip-rule="evenodd" d="M45.441 184.372L45.4409 211H59.6112V184.372C59.6112 173.982 68.0344 165.559 78.425 165.559H78.4763H105.052H131.626H131.68C142.069 165.559 150.493 173.982 150.493 184.372V211H164.663V184.372C164.663 173.982 173.087 165.559 183.478 165.559H183.528H210.104V151.389H183.528H183.478C173.087 151.389 164.663 142.966 164.663 132.575V105.948V79.3208C164.663 68.9301 173.087 60.5068 183.478 60.5068L183.528 60.5069H210.104V46.3369H183.528H183.478C173.087 46.3369 164.663 37.9136 164.663 27.523V0.895874L150.493 0.895875V27.523C150.493 37.9136 142.069 46.3369 131.68 46.3369H131.628H105.052H78.4762H78.425C68.0344 46.3369 59.6112 37.9136 59.6112 27.523V0.895879L45.4409 0.895879V27.523C45.4409 37.9136 37.0176 46.337 26.627 46.337L26.5759 46.3369H0L7.88416e-08 60.5069H26.5744L26.627 60.5068C37.0176 60.5068 45.441 68.9301 45.441 79.3208L45.4409 105.948L45.441 132.575C45.441 142.966 37.0176 151.389 26.627 151.389H26.5759H0L7.88416e-08 165.559H26.5744H26.627C37.0176 165.559 45.441 173.982 45.441 184.372ZM150.493 105.948V79.3208C150.493 68.9301 142.069 60.5068 131.68 60.5068L131.626 60.5069H105.052H78.4763L78.425 60.5068C68.0344 60.5068 59.6112 68.9301 59.6112 79.3208V105.948V132.575C59.6112 142.966 68.0344 151.389 78.425 151.389H78.4762H105.052H131.628H131.68C142.069 151.389 150.493 142.966 150.493 132.575V105.948Z" fill="#2E374C"/>
</g>
</g>
<defs>
<clipPath id="clip0_2551_20001">
<rect y="0.895874" width="210.104" height="210.104" rx="8" fill="white"/>
</clipPath>
</defs>
</svg>
