<svg width="100%" height="100%" viewBox="0 0 211 211" fill="none" xmlns="http://www.w3.org/2000/svg">
<g clip-path="url(#clip0_2551_19999)">
<rect width="210.104" height="210.104" rx="8" fill="#1A202E"/>
<mask id="mask0_2551_19999" style="mask-type:luminance" maskUnits="userSpaceOnUse" x="0" y="0" width="211" height="211">
<path d="M0.5 0.5H209.604V209.604H0.5V0.5Z" fill="white" stroke="white"/>
</mask>
<g mask="url(#mask0_2551_19999)">
<path fill-rule="evenodd" clip-rule="evenodd" d="M0 0C0 58.0187 47.0334 105.052 105.052 105.052C47.0334 105.052 0 152.086 0 210.104H12.6062C12.6062 159.048 53.9956 117.658 105.052 117.658C156.108 117.658 197.498 159.048 197.498 210.104H210.104C210.104 152.086 163.07 105.052 105.052 105.052C163.07 105.052 210.104 58.0187 210.104 0H197.498C197.498 51.0564 156.108 92.4458 105.052 92.4458C53.9956 92.4458 12.6062 51.0564 12.6062 0H0ZM25.2125 0C25.2125 44.0941 60.9579 79.8396 105.052 79.8396C149.147 79.8396 184.892 44.0941 184.892 0H172.285C172.285 37.1319 142.184 67.2333 105.052 67.2333C67.9201 67.2333 37.8187 37.1319 37.8187 0H25.2125ZM50.425 0C50.425 30.1697 74.8824 54.6271 105.052 54.6271C135.222 54.6271 159.679 30.1697 159.679 0H147.073C147.073 23.2075 128.259 42.0208 105.052 42.0208C81.8446 42.0208 63.0312 23.2075 63.0312 0H50.425ZM105.052 130.265C149.147 130.265 184.892 166.01 184.892 210.104H172.285C172.285 172.972 142.184 142.871 105.052 142.871C67.9201 142.871 37.8187 172.972 37.8187 210.104H25.2125C25.2125 166.01 60.9579 130.265 105.052 130.265ZM105.052 155.477C135.222 155.477 159.679 179.934 159.679 210.104H147.073C147.073 186.897 128.259 168.083 105.052 168.083C81.8446 168.083 63.0312 186.897 63.0312 210.104H50.425C50.425 179.934 74.8824 155.477 105.052 155.477Z" fill="#2E374C"/>
</g>
</g>
<defs>
<clipPath id="clip0_2551_19999">
<rect width="210.104" height="210.104" rx="8" fill="white"/>
</clipPath>
</defs>
</svg>
