<svg width="269" height="77" viewBox="0 0 269 77" fill="none" xmlns="http://www.w3.org/2000/svg">
<path d="M97.8448 30.031H90.7492V22.5002H93.8532C96.9572 22.5002 99.1736 20.2855 99.1736 17.184V11.8678H105.823V22.5002H114.693V30.031H105.823V49.081C105.823 52.6235 108.486 55.2841 112.031 55.2841C112.652 55.2841 113.272 55.197 113.893 55.1047L114.693 54.8381V61.9281C114.339 62.1075 113.893 62.2818 113.452 62.3689C112.564 62.6355 111.502 62.8098 110.261 62.8098C103.165 62.8098 97.8448 57.4936 97.8448 49.0759V30.0259V30.031Z" fill="white"/>
<path d="M124.447 6.55164H132.43V26.4886C133.23 25.6889 134.205 24.8942 135.267 24.2739C137.129 23.2128 139.967 22.0593 143.517 22.0593C152.388 22.0593 159.478 29.1492 159.478 39.3407V62.3792H151.495V39.3407C151.495 34.1117 147.149 29.5952 142.183 29.5952C136.775 29.5952 132.43 34.1168 132.43 39.3407V62.3792H124.447V6.55164Z" fill="white"/>
<path d="M171.894 69.91C176.419 69.91 178.456 67.7825 179.431 65.0347L180.76 61.0463L165.24 22.5002H173.664L184.751 51.3008L195.838 22.5002H204.263L187.414 65.0347C183.869 73.8984 180.765 76.9949 174.557 76.9949C173.849 76.9949 173.315 76.9077 172.694 76.8154L171.894 76.5489V69.9049V69.91Z" fill="white"/>
<path d="M210.471 22.5002H216.232L218.007 26.4886C218.715 25.6889 219.603 24.8942 220.578 24.2739C222.261 23.2128 224.744 22.0593 228.207 22.0593C229.182 22.0593 229.715 22.2387 230.157 22.3259L230.865 22.5053V30.4821L230.064 30.3027C229.443 30.2156 228.823 30.0361 228.202 30.0361C222.794 30.0361 218.449 34.5577 218.449 39.7816V62.3792H210.466V22.5002H210.471Z" fill="white"/>
<path d="M261.463 58.3908C260.663 59.1905 259.78 59.9851 258.713 60.6054C256.851 61.7589 253.926 62.8201 249.935 62.8201C241.064 62.8201 236.19 57.9448 236.19 50.86C236.19 42.8831 241.511 37.567 261.022 37.567V36.2392C261.022 32.2508 258.452 29.5952 253.485 29.5952C248.165 29.5952 245.948 31.7227 245.502 34.4705H237.519C237.96 27.3806 243.64 22.0644 253.48 22.0644C262.792 22.0644 269 28.2675 269 36.2443V62.3843H263.233L261.458 58.3959L261.463 58.3908ZM261.022 44.6569C246.831 44.6569 244.173 47.3176 244.173 51.3008C244.173 53.5155 246.39 55.7301 250.381 55.7301C257.123 55.7301 261.022 51.7417 261.022 46.7793V44.6518V44.6569Z" fill="white"/>
<path d="M26.3351 60.7387L13.165 68.3362L0 60.7439L13.165 53.1464L26.3351 60.7387Z" fill="#FE0000"/>
<path d="M26.4634 45.6156V15.2308L39.6284 22.9872V53.0798L26.3351 60.7387L39.3154 68.3362L65.7839 53.213L52.6138 45.4823L65.7839 37.7105L52.6138 30.2925L65.7839 22.654L26.4634 0L0 15.1232L13.2984 22.8283L0 30.1848L13.2984 38.0181L0 45.6822L13.165 53.1464L26.4634 45.6156Z" fill="#FE0000"/>
</svg>
