<svg xmlns="http://www.w3.org/2000/svg" xmlns:xlink="http://www.w3.org/1999/xlink" width="1274" height="743" viewBox="0 0 1274 743">
  <defs>
    <clipPath id="clip-path">
      <rect id="Rectangle_65" data-name="Rectangle 65" width="1274" height="743" transform="translate(-0.077 572)" fill="#fff" stroke="#707070" stroke-width="1"/>
    </clipPath>
  </defs>
  <g id="Groupe_de_masques_1" data-name="Groupe de masques 1" transform="translate(0.077 -572)" clip-path="url(#clip-path)">
    <g id="Groupe_77" data-name="Groupe 77" transform="translate(-1778.851 359.923)">
      <path id="Tracé_845" data-name="Tracé 845" d="M723.893,378.292,825.558,319.6l101.667,58.7L825.56,436.989Zm101.665-54.94L730.4,378.292l95.163,54.943,95.161-54.94Z" transform="translate(554.484 244.8)" fill="red"/>
      <path id="Tracé_846" data-name="Tracé 846" d="M779.822,346.333l101.665-58.694,101.667,58.7L881.489,405.03Zm101.665-54.939-95.161,54.939,95.163,54.943,95.161-54.94Z" transform="translate(597.324 220.321)" fill="red"/>
      <path id="Tracé_847" data-name="Tracé 847" d="M835.751,314.373l101.665-58.694,101.667,58.7L937.418,373.07Zm101.665-54.94-95.161,54.94,95.163,54.943,95.161-54.94Z" transform="translate(640.164 195.84)" fill="red"/>
      <path id="Tracé_848" data-name="Tracé 848" d="M891.681,282.415l101.665-58.7,101.667,58.7L993.348,341.11Zm101.665-54.941-95.161,54.941,95.163,54.943,95.161-54.941Z" transform="translate(683.005 171.36)" fill="red"/>
      <path id="Tracé_849" data-name="Tracé 849" d="M947.61,250.454l101.666-58.694,101.667,58.7-101.666,58.694Zm101.666-54.939-95.161,54.939,95.163,54.943,95.162-54.939Z" transform="translate(725.845 146.88)" fill="red"/>
      <path id="Tracé_850" data-name="Tracé 850" d="M1003.539,218.494,1105.206,159.8l101.665,58.7-101.665,58.694Zm101.667-54.939-95.163,54.939,95.163,54.943,95.161-54.939Z" transform="translate(768.686 122.399)" fill="red"/>
      <path id="Tracé_851" data-name="Tracé 851" d="M667.615,410.183l101.666-58.694,101.667,58.7L769.282,468.88Zm101.666-54.939-95.161,54.939,95.163,54.943,95.161-54.94Z" transform="translate(511.376 269.228)" fill="red"/>
      <path id="Tracé_852" data-name="Tracé 852" d="M668.578,346.333l101.665-58.694,101.667,58.7L770.245,405.03Zm101.665-54.939-95.161,54.939,95.163,54.943,95.161-54.94Z" transform="translate(512.114 220.321)" fill="red"/>
      <path id="Tracé_853" data-name="Tracé 853" d="M724.507,314.373l101.665-58.694,101.667,58.7L826.174,373.07Zm101.665-54.94-95.161,54.94,95.163,54.943,95.161-54.94Z" transform="translate(554.954 195.84)" fill="red"/>
      <path id="Tracé_854" data-name="Tracé 854" d="M780.437,282.415l101.665-58.7,101.667,58.7L882.1,341.11ZM882.1,227.474l-95.161,54.941L882.1,337.358l95.161-54.941Z" transform="translate(597.795 171.36)" fill="red"/>
      <path id="Tracé_855" data-name="Tracé 855" d="M836.366,250.454,938.031,191.76l101.667,58.7L938.033,309.151Zm101.665-54.939L842.87,250.454,938.033,305.4l95.161-54.939Z" transform="translate(640.635 146.88)" fill="red"/>
      <path id="Tracé_856" data-name="Tracé 856" d="M892.295,218.494,993.961,159.8l101.667,58.7L993.962,277.191Zm101.666-54.939L898.8,218.494l95.163,54.943,95.161-54.939Z" transform="translate(683.475 122.399)" fill="red"/>
      <path id="Tracé_857" data-name="Tracé 857" d="M948.225,186.535l101.666-58.694,101.667,58.7-101.666,58.694ZM1049.891,131.6l-95.161,54.939,95.163,54.943,95.161-54.939Z" transform="translate(726.316 97.919)" fill="red"/>
      <path id="Tracé_858" data-name="Tracé 858" d="M612.3,378.224,713.966,319.53l101.667,58.7L713.967,436.921Zm101.666-54.939L618.8,378.224l95.163,54.943,95.161-54.939Z" transform="translate(469.006 244.748)" fill="red"/>
      <path id="Tracé_859" data-name="Tracé 859" d="M613.263,314.373l101.665-58.694,101.667,58.7L714.93,373.07Zm101.665-54.94-95.161,54.94,95.163,54.943,95.161-54.94Z" transform="translate(469.744 195.84)" fill="red"/>
      <path id="Tracé_860" data-name="Tracé 860" d="M669.192,282.415l101.665-58.7,101.667,58.7L770.859,341.11Zm101.665-54.941L675.7,282.415l95.163,54.943,95.161-54.941Z" transform="translate(512.584 171.36)" fill="red"/>
      <path id="Tracé_861" data-name="Tracé 861" d="M725.122,250.454,826.787,191.76l101.667,58.7L826.789,309.151Zm101.665-54.939-95.161,54.939L826.789,305.4l95.161-54.939Z" transform="translate(555.425 146.88)" fill="red"/>
      <path id="Tracé_862" data-name="Tracé 862" d="M781.051,218.494,882.716,159.8l101.667,58.7L882.718,277.191Zm101.665-54.939-95.161,54.939,95.163,54.943L977.88,218.5Z" transform="translate(598.265 122.399)" fill="red"/>
      <path id="Tracé_863" data-name="Tracé 863" d="M836.981,186.535l101.665-58.694,101.667,58.7L938.648,245.232ZM938.646,131.6l-95.161,54.939,95.163,54.943,95.161-54.939Z" transform="translate(641.106 97.919)" fill="red"/>
      <path id="Tracé_864" data-name="Tracé 864" d="M892.91,154.575,994.576,95.881l101.667,58.7L994.577,213.272ZM994.576,99.635l-95.161,54.939,95.163,54.943,95.161-54.939Z" transform="translate(683.946 73.439)" fill="red"/>
      <path id="Tracé_865" data-name="Tracé 865" d="M556.985,346.264,658.65,287.57l101.667,58.7L658.652,404.961ZM658.65,291.324l-95.161,54.939,95.163,54.943,95.161-54.94Z" transform="translate(426.636 220.268)" fill="red"/>
      <path id="Tracé_866" data-name="Tracé 866" d="M557.948,282.415l101.667-58.7,101.665,58.7L659.615,341.11Zm101.667-54.941-95.163,54.941,95.163,54.943,95.161-54.941Z" transform="translate(427.374 171.36)" fill="red"/>
      <path id="Tracé_867" data-name="Tracé 867" d="M613.878,250.454,715.543,191.76l101.667,58.7L715.545,309.151Zm101.665-54.939-95.161,54.939L715.545,305.4l95.161-54.939Z" transform="translate(470.215 146.88)" fill="red"/>
      <path id="Tracé_868" data-name="Tracé 868" d="M669.807,218.494,771.472,159.8,873.14,218.5,771.474,277.191Zm101.665-54.939-95.161,54.939,95.163,54.943L866.635,218.5Z" transform="translate(513.055 122.399)" fill="red"/>
      <path id="Tracé_869" data-name="Tracé 869" d="M725.736,186.535,827.4,127.841l101.667,58.7L827.4,245.232ZM827.4,131.6,732.24,186.535,827.4,241.478l95.161-54.939Z" transform="translate(555.896 97.919)" fill="red"/>
      <path id="Tracé_870" data-name="Tracé 870" d="M781.666,154.575,883.331,95.881,985,154.578,883.333,213.272ZM883.331,99.635,788.17,154.575l95.163,54.943,95.161-54.939Z" transform="translate(598.736 73.439)" fill="red"/>
      <path id="Tracé_871" data-name="Tracé 871" d="M837.595,122.615,939.26,63.921l101.667,58.7L939.262,181.312ZM939.26,67.675,844.1,122.615l95.163,54.943,95.161-54.939Z" transform="translate(641.577 48.958)" fill="red"/>
      <path id="Tracé_872" data-name="Tracé 872" d="M501.67,314.3,603.335,255.61,705,314.307,603.337,373Zm101.665-54.94L508.174,314.3l95.163,54.943,95.161-54.94Z" transform="translate(384.267 195.787)" fill="red"/>
      <path id="Tracé_873" data-name="Tracé 873" d="M502.634,250.454,604.3,191.76l101.667,58.7L604.3,309.151ZM604.3,195.514l-95.161,54.939L604.3,305.4l95.161-54.939Z" transform="translate(385.005 146.88)" fill="red"/>
      <path id="Tracé_874" data-name="Tracé 874" d="M558.563,218.494,660.229,159.8,761.9,218.5,660.23,277.191Zm101.666-54.939-95.161,54.939,95.163,54.943L755.391,218.5Z" transform="translate(427.845 122.399)" fill="red"/>
      <path id="Tracé_875" data-name="Tracé 875" d="M614.492,186.535l101.665-58.694,101.667,58.7L716.159,245.232ZM716.157,131.6,621,186.535l95.163,54.943,95.161-54.939Z" transform="translate(470.685 97.919)" fill="red"/>
      <path id="Tracé_876" data-name="Tracé 876" d="M670.422,154.575,772.087,95.881l101.667,58.7L772.089,213.272ZM772.087,99.635l-95.161,54.939,95.163,54.943,95.161-54.939Z" transform="translate(513.526 73.439)" fill="red"/>
      <path id="Tracé_877" data-name="Tracé 877" d="M726.351,122.615,828.016,63.921l101.667,58.7L828.018,181.312ZM828.016,67.675l-95.161,54.939,95.163,54.943,95.161-54.939Z" transform="translate(556.367 48.958)" fill="red"/>
      <path id="Tracé_878" data-name="Tracé 878" d="M782.28,90.656,883.945,31.962l101.667,58.7L883.947,149.353ZM883.945,35.716,788.784,90.656,883.947,145.6l95.161-54.939Z" transform="translate(599.207 24.479)" fill="red"/>
      <path id="Tracé_879" data-name="Tracé 879" d="M446.356,282.345l101.665-58.694,101.667,58.7L548.023,341.042Zm101.665-54.939L452.86,282.345l95.163,54.943,95.161-54.939Z" transform="translate(341.897 171.307)" fill="red"/>
      <path id="Tracé_880" data-name="Tracé 880" d="M447.319,218.494,548.984,159.8l101.667,58.7L548.986,277.191Zm101.665-54.939-95.161,54.939,95.163,54.943L644.148,218.5Z" transform="translate(342.635 122.399)" fill="red"/>
      <path id="Tracé_881" data-name="Tracé 881" d="M503.248,186.535l101.665-58.694,101.667,58.7L604.915,245.232ZM604.913,131.6l-95.161,54.939,95.163,54.943,95.161-54.939Z" transform="translate(385.475 97.919)" fill="red"/>
      <path id="Tracé_882" data-name="Tracé 882" d="M559.178,154.575,660.843,95.881l101.667,58.7L660.845,213.272ZM660.843,99.635l-95.161,54.939,95.163,54.943,95.161-54.939Z" transform="translate(428.316 73.439)" fill="red"/>
      <path id="Tracé_883" data-name="Tracé 883" d="M615.107,122.615,716.772,63.921l101.667,58.7L716.774,181.312ZM716.772,67.675l-95.161,54.939,95.163,54.943,95.161-54.939Z" transform="translate(471.156 48.958)" fill="red"/>
      <path id="Tracé_884" data-name="Tracé 884" d="M671.036,90.656,772.7,31.962l101.667,58.7L772.7,149.353ZM772.7,35.716,677.54,90.656,772.7,145.6l95.161-54.939Z" transform="translate(513.997 24.479)" fill="red"/>
      <path id="Tracé_885" data-name="Tracé 885" d="M733.469,58.7,828.63,3.756,923.8,58.7l-95.163,54.939ZM828.63,0,726.965,58.7l101.667,58.7L930.3,58.7Z" transform="translate(556.837 -0.002)" fill="red"/>
      <path id="Tracé_886" data-name="Tracé 886" d="M391.041,250.385l101.665-58.694,101.667,58.7L492.708,309.082Zm101.665-54.939-95.161,54.939,95.163,54.943,95.161-54.94Z" transform="translate(299.528 146.827)" fill="red"/>
      <path id="Tracé_887" data-name="Tracé 887" d="M1057.043,570.822l101.666-58.694,101.667,58.7L1158.71,629.519Zm101.666-54.939-95.161,54.939,95.163,54.943,95.161-54.939Z" transform="translate(809.668 392.274)" fill="red"/>
      <path id="Tracé_888" data-name="Tracé 888" d="M1112.973,538.862l101.665-58.694,101.667,58.7L1214.64,597.56Zm101.665-54.939-95.161,54.939,95.163,54.943,95.161-54.94Z" transform="translate(852.509 367.793)" fill="red"/>
      <path id="Tracé_889" data-name="Tracé 889" d="M1168.9,506.9l101.665-58.694,101.667,58.7L1270.569,565.6Zm101.665-54.939L1175.406,506.9l95.163,54.943,95.161-54.94Z" transform="translate(895.349 343.313)" fill="red"/>
      <path id="Tracé_890" data-name="Tracé 890" d="M1224.831,474.943,1326.5,416.249l101.666,58.7L1326.5,533.64ZM1326.5,420l-95.163,54.939,95.163,54.943,95.161-54.939Z" transform="translate(938.19 318.833)" fill="red"/>
      <path id="Tracé_891" data-name="Tracé 891" d="M1280.761,442.983l101.665-58.694,101.667,58.7L1382.428,501.68Zm101.665-54.939-95.161,54.939,95.163,54.943,95.161-54.939Z" transform="translate(981.031 294.352)" fill="red"/>
      <path id="Tracé_892" data-name="Tracé 892" d="M1336.69,411.024l101.666-58.694,101.667,58.7-101.665,58.694Zm101.666-54.939-95.161,54.939,95.163,54.943,95.161-54.939Z" transform="translate(1023.871 269.872)" fill="red"/>
      <path id="Tracé_893" data-name="Tracé 893" d="M1000.765,602.713l101.665-58.694,101.667,58.7L1102.432,661.41Zm101.665-54.939-95.161,54.939,95.163,54.943,95.161-54.94Z" transform="translate(766.561 416.701)" fill="red"/>
      <path id="Tracé_894" data-name="Tracé 894" d="M1001.729,538.862l101.665-58.694,101.667,58.7L1103.4,597.56Zm101.665-54.939-95.161,54.939,95.163,54.943,95.162-54.94Z" transform="translate(767.299 367.793)" fill="red"/>
      <path id="Tracé_895" data-name="Tracé 895" d="M1057.658,506.9l101.666-58.694,101.667,58.7L1159.325,565.6Zm101.666-54.939L1064.162,506.9l95.163,54.943,95.161-54.94Z" transform="translate(810.139 343.313)" fill="red"/>
      <path id="Tracé_896" data-name="Tracé 896" d="M1113.587,474.943l101.665-58.694,101.667,58.7L1215.254,533.64ZM1215.252,420l-95.161,54.939,95.163,54.943,95.161-54.939Z" transform="translate(852.979 318.833)" fill="red"/>
      <path id="Tracé_897" data-name="Tracé 897" d="M1169.517,442.983l101.666-58.694,101.667,58.7L1271.184,501.68Zm101.666-54.939-95.161,54.939,95.163,54.943,95.161-54.939Z" transform="translate(895.82 294.352)" fill="red"/>
      <path id="Tracé_898" data-name="Tracé 898" d="M1225.446,411.024l101.665-58.694,101.667,58.7-101.666,58.694Zm101.665-54.939-95.161,54.939,95.163,54.943,95.161-54.939Z" transform="translate(938.661 269.872)" fill="red"/>
      <path id="Tracé_899" data-name="Tracé 899" d="M1281.375,379.064,1383.04,320.37l101.667,58.7-101.666,58.694Zm101.665-54.94-95.161,54.94,95.163,54.943,95.162-54.939Z" transform="translate(981.501 245.392)" fill="red"/>
      <path id="Tracé_900" data-name="Tracé 900" d="M945.45,570.753l101.665-58.694,101.667,58.7L1047.117,629.45Zm101.665-54.939-95.161,54.939,95.163,54.943,95.161-54.939Z" transform="translate(724.191 392.221)" fill="red"/>
      <path id="Tracé_901" data-name="Tracé 901" d="M946.414,506.9l101.665-58.694,101.667,58.7L1048.081,565.6Zm101.665-54.939L952.918,506.9l95.163,54.943,95.161-54.94Z" transform="translate(724.929 343.313)" fill="red"/>
      <path id="Tracé_902" data-name="Tracé 902" d="M1002.343,474.943l101.665-58.694,101.667,58.7L1104.01,533.64ZM1104.009,420l-95.161,54.939,95.163,54.943,95.161-54.939Z" transform="translate(767.769 318.833)" fill="red"/>
      <path id="Tracé_903" data-name="Tracé 903" d="M1058.272,442.983l101.667-58.694,101.665,58.7L1159.941,501.68Zm101.667-54.939-95.163,54.939,95.165,54.943,95.161-54.939Z" transform="translate(810.61 294.352)" fill="red"/>
      <path id="Tracé_904" data-name="Tracé 904" d="M1114.2,411.024l101.665-58.694,101.667,58.7-101.665,58.694Zm101.665-54.939-95.161,54.939,95.163,54.943,95.161-54.939Z" transform="translate(853.451 269.872)" fill="red"/>
      <path id="Tracé_905" data-name="Tracé 905" d="M1170.131,379.064,1271.8,320.37l101.667,58.7L1271.8,437.761Zm101.665-54.94-95.161,54.94,95.163,54.943,95.161-54.939Z" transform="translate(896.291 245.392)" fill="red"/>
      <path id="Tracé_906" data-name="Tracé 906" d="M1226.061,347.1l101.665-58.694,101.667,58.7L1327.728,405.8Zm101.665-54.939L1232.565,347.1l95.163,54.943,95.161-54.939Z" transform="translate(939.132 220.911)" fill="red"/>
      <path id="Tracé_907" data-name="Tracé 907" d="M890.136,538.794,991.8,480.1l101.667,58.7L991.8,597.491ZM991.8,483.855,896.64,538.794,991.8,593.737l95.161-54.939Z" transform="translate(681.822 367.741)" fill="red"/>
      <path id="Tracé_908" data-name="Tracé 908" d="M891.1,474.943l101.665-58.694,101.667,58.7L992.766,533.64ZM992.764,420,897.6,474.943l95.163,54.943,95.161-54.939Z" transform="translate(682.559 318.833)" fill="red"/>
      <path id="Tracé_909" data-name="Tracé 909" d="M947.028,442.983l101.665-58.694,101.667,58.7L1048.7,501.68Zm101.665-54.939-95.161,54.939,95.163,54.943,95.161-54.939Z" transform="translate(725.399 294.352)" fill="red"/>
      <path id="Tracé_910" data-name="Tracé 910" d="M1002.958,411.024l101.665-58.694,101.667,58.7-101.665,58.694Zm101.665-54.939-95.161,54.939,95.163,54.943,95.161-54.939Z" transform="translate(768.24 269.872)" fill="red"/>
      <path id="Tracé_911" data-name="Tracé 911" d="M1058.887,379.064l101.666-58.694,101.667,58.7-101.665,58.694Zm101.666-54.94-95.161,54.94,95.163,54.943,95.161-54.939Z" transform="translate(811.081 245.392)" fill="red"/>
      <path id="Tracé_912" data-name="Tracé 912" d="M1114.817,347.1l101.665-58.694,101.667,58.7L1216.484,405.8Zm101.665-54.939L1121.321,347.1l95.163,54.943,95.161-54.939Z" transform="translate(853.922 220.911)" fill="red"/>
      <path id="Tracé_913" data-name="Tracé 913" d="M1170.746,315.145l101.666-58.694,101.667,58.7-101.666,58.694Zm101.666-54.94-95.161,54.94,95.163,54.943,95.161-54.94Z" transform="translate(896.762 196.431)" fill="red"/>
      <path id="Tracé_914" data-name="Tracé 914" d="M834.821,506.834,936.486,448.14l101.667,58.7L936.488,565.531Zm101.666-54.94-95.161,54.94,95.163,54.943,95.161-54.939Z" transform="translate(639.452 343.26)" fill="red"/>
      <path id="Tracé_915" data-name="Tracé 915" d="M835.784,442.983,937.45,384.289l101.667,58.7L937.451,501.68ZM937.45,388.044l-95.161,54.939,95.163,54.943,95.161-54.939Z" transform="translate(640.189 294.352)" fill="red"/>
      <path id="Tracé_916" data-name="Tracé 916" d="M891.714,411.024,993.38,352.33l101.667,58.7L993.381,469.721ZM993.38,356.084l-95.161,54.939,95.163,54.943,95.161-54.939Z" transform="translate(683.03 269.872)" fill="red"/>
      <path id="Tracé_917" data-name="Tracé 917" d="M947.643,379.064l101.665-58.694,101.667,58.7L1049.31,437.761Zm101.665-54.94-95.161,54.94,95.163,54.943,95.161-54.939Z" transform="translate(725.871 245.392)" fill="red"/>
      <path id="Tracé_918" data-name="Tracé 918" d="M1003.572,347.1l101.665-58.694,101.667,58.7L1105.239,405.8Zm101.665-54.939L1010.076,347.1l95.163,54.943,95.161-54.939Z" transform="translate(768.711 220.911)" fill="red"/>
      <path id="Tracé_919" data-name="Tracé 919" d="M1059.5,315.145l101.666-58.694,101.667,58.7-101.665,58.694Zm101.666-54.94-95.161,54.94,95.163,54.943,95.161-54.94Z" transform="translate(811.552 196.431)" fill="red"/>
      <path id="Tracé_920" data-name="Tracé 920" d="M1115.431,283.185,1217.1,224.491l101.667,58.7L1217.1,341.882ZM1217.1,228.245l-95.161,54.939,95.163,54.943,95.161-54.939Z" transform="translate(854.392 171.951)" fill="red"/>
      <path id="Tracé_921" data-name="Tracé 921" d="M779.506,474.874,881.172,416.18l101.667,58.7L881.173,533.571Zm101.665-54.939L786.01,474.874l95.163,54.943,95.161-54.939Z" transform="translate(597.082 318.78)" fill="red"/>
      <path id="Tracé_922" data-name="Tracé 922" d="M780.47,411.024,882.135,352.33l101.667,58.7L882.137,469.721Zm101.665-54.939-95.161,54.939,95.163,54.943L977.3,411.028Z" transform="translate(597.82 269.872)" fill="red"/>
      <path id="Tracé_923" data-name="Tracé 923" d="M836.4,379.064,938.064,320.37l101.667,58.7L938.066,437.761Zm101.665-54.94L842.9,379.064l95.163,54.943,95.161-54.939Z" transform="translate(640.66 245.392)" fill="red"/>
      <path id="Tracé_924" data-name="Tracé 924" d="M892.328,347.1,993.993,288.41l101.667,58.7L994,405.8Zm101.665-54.939L898.832,347.1,994,402.047l95.161-54.939Z" transform="translate(683.501 220.911)" fill="red"/>
      <path id="Tracé_925" data-name="Tracé 925" d="M948.258,315.145l101.665-58.694,101.667,58.7-101.666,58.694Zm101.665-54.94-95.161,54.94,95.163,54.943,95.161-54.94Z" transform="translate(726.342 196.431)" fill="red"/>
      <path id="Tracé_926" data-name="Tracé 926" d="M1004.187,283.185l101.665-58.694,101.667,58.7-101.666,58.694Zm101.665-54.939-95.161,54.939,95.163,54.943,95.161-54.939Z" transform="translate(769.182 171.951)" fill="red"/>
      <path id="Tracé_927" data-name="Tracé 927" d="M1060.116,251.226l101.665-58.694,101.667,58.7-101.666,58.694Zm101.665-54.939-95.161,54.939,95.163,54.943,95.161-54.939Z" transform="translate(812.022 147.471)" fill="red"/>
      <path id="Tracé_928" data-name="Tracé 928" d="M724.192,442.915l101.665-58.694,101.667,58.7L825.859,501.612Zm101.665-54.94L730.7,442.915l95.163,54.943,95.161-54.94Z" transform="translate(554.713 294.3)" fill="red"/>
      <path id="Tracé_929" data-name="Tracé 929" d="M1390.194,763.351l101.665-58.694,101.667,58.7-101.666,58.694Zm101.665-54.939L1396.7,763.351l95.163,54.943,95.161-54.939Z" transform="translate(1064.853 539.746)" fill="red"/>
      <path id="Tracé_930" data-name="Tracé 930" d="M1446.123,731.392,1547.788,672.7l101.667,58.7L1547.79,790.089Zm101.665-54.939-95.161,54.939,95.163,54.943,95.161-54.94Z" transform="translate(1107.694 515.266)" fill="red"/>
      <path id="Tracé_931" data-name="Tracé 931" d="M1502.053,699.432l101.665-58.694,101.667,58.7L1603.72,758.129Zm101.665-54.94-95.161,54.94,95.163,54.943,95.161-54.939Z" transform="translate(1150.535 490.786)" fill="red"/>
      <path id="Tracé_932" data-name="Tracé 932" d="M1557.982,667.472l101.665-58.694,101.667,58.7-101.665,58.694Zm101.665-54.939-95.161,54.939,95.163,54.943,95.161-54.94Z" transform="translate(1193.375 466.305)" fill="red"/>
      <path id="Tracé_933" data-name="Tracé 933" d="M1613.911,635.513l101.665-58.694,101.667,58.7L1715.578,694.21Zm101.665-54.939-95.161,54.939,95.163,54.943,95.161-54.939Z" transform="translate(1236.215 441.825)" fill="red"/>
      <path id="Tracé_934" data-name="Tracé 934" d="M1676.346,603.553l95.16-54.939,95.165,54.943L1771.507,658.5Zm-6.506,0,101.667,58.7,101.667-58.694-101.669-58.7Z" transform="translate(1279.055 417.345)" fill="red"/>
      <path id="Tracé_935" data-name="Tracé 935" d="M1333.916,795.242l101.665-58.694,101.667,58.7-101.666,58.694ZM1435.581,740.3l-95.161,54.939,95.163,54.943,95.161-54.94Z" transform="translate(1021.746 564.174)" fill="red"/>
      <path id="Tracé_936" data-name="Tracé 936" d="M1334.879,731.392,1436.544,672.7l101.667,58.7-101.665,58.694Zm101.665-54.939-95.161,54.939,95.163,54.943,95.161-54.94Z" transform="translate(1022.484 515.266)" fill="red"/>
      <path id="Tracé_937" data-name="Tracé 937" d="M1390.809,699.432l101.666-58.694,101.667,58.7-101.666,58.694Zm101.666-54.94-95.162,54.94,95.163,54.943,95.161-54.939Z" transform="translate(1065.324 490.786)" fill="red"/>
      <path id="Tracé_938" data-name="Tracé 938" d="M1446.738,667.472,1548.4,608.778l101.667,58.7-101.666,58.694ZM1548.4,612.532l-95.161,54.939,95.163,54.943,95.161-54.94Z" transform="translate(1108.165 466.305)" fill="red"/>
      <path id="Tracé_939" data-name="Tracé 939" d="M1502.667,635.513l101.665-58.694L1706,635.517,1604.334,694.21Zm101.665-54.939-95.161,54.939,95.163,54.943,95.161-54.939Z" transform="translate(1151.005 441.825)" fill="red"/>
      <path id="Tracé_940" data-name="Tracé 940" d="M1558.6,603.553l101.665-58.694,101.667,58.7L1660.264,662.25Zm101.665-54.939L1565.1,603.553l95.163,54.943,95.161-54.939Z" transform="translate(1193.846 417.345)" fill="red"/>
      <path id="Tracé_941" data-name="Tracé 941" d="M1614.526,571.594,1716.191,512.9l101.667,58.7-101.666,58.694Zm101.665-54.939-95.161,54.939,95.163,54.943,95.162-54.939Z" transform="translate(1236.686 392.865)" fill="red"/>
      <path id="Tracé_942" data-name="Tracé 942" d="M1278.6,763.283l101.666-58.694,101.667,58.7L1380.268,821.98Zm101.666-54.939-95.161,54.939,95.163,54.943,95.161-54.94Z" transform="translate(979.376 539.694)" fill="red"/>
      <path id="Tracé_943" data-name="Tracé 943" d="M1279.564,699.432l101.667-58.694,101.665,58.7-101.664,58.694Zm101.667-54.94-95.163,54.94,95.165,54.943,95.161-54.939Z" transform="translate(980.114 490.786)" fill="red"/>
      <path id="Tracé_944" data-name="Tracé 944" d="M1335.494,667.472l101.665-58.694,101.667,58.7-101.666,58.694Zm101.665-54.939L1342,667.472l95.163,54.943,95.161-54.94Z" transform="translate(1022.955 466.305)" fill="red"/>
      <path id="Tracé_945" data-name="Tracé 945" d="M1391.423,635.513l101.666-58.694,101.667,58.7L1493.09,694.21Zm101.666-54.939-95.161,54.939,95.163,54.943,95.161-54.939Z" transform="translate(1065.795 441.825)" fill="red"/>
      <path id="Tracé_946" data-name="Tracé 946" d="M1447.353,603.553l101.666-58.694,101.667,58.7L1549.02,662.25Zm101.666-54.939-95.161,54.939L1549.02,658.5l95.161-54.939Z" transform="translate(1108.636 417.345)" fill="red"/>
      <path id="Tracé_947" data-name="Tracé 947" d="M1503.282,571.594,1604.947,512.9l101.667,58.7-101.665,58.694Zm101.665-54.939-95.161,54.939,95.163,54.943,95.161-54.939Z" transform="translate(1151.476 392.865)" fill="red"/>
      <path id="Tracé_948" data-name="Tracé 948" d="M1559.211,539.634l101.665-58.694,101.667,58.7-101.665,58.694Zm101.665-54.939-95.161,54.939,95.163,54.943,95.161-54.94Z" transform="translate(1194.316 368.384)" fill="red"/>
      <path id="Tracé_949" data-name="Tracé 949" d="M1223.286,731.323l101.665-58.694,101.667,58.7-101.666,58.694Zm101.665-54.94-95.161,54.94,95.163,54.943,95.161-54.939Z" transform="translate(937.006 515.213)" fill="red"/>
      <path id="Tracé_950" data-name="Tracé 950" d="M1224.25,667.472l101.666-58.694,101.667,58.7-101.666,58.694Zm101.666-54.939-95.161,54.939,95.163,54.943,95.161-54.94Z" transform="translate(937.745 466.305)" fill="red"/>
      <path id="Tracé_951" data-name="Tracé 951" d="M1280.179,635.513l101.666-58.694,101.667,58.7L1381.846,694.21Zm101.666-54.939-95.161,54.939,95.163,54.943,95.161-54.939Z" transform="translate(980.585 441.825)" fill="red"/>
      <path id="Tracé_952" data-name="Tracé 952" d="M1336.108,603.553l101.665-58.694,101.667,58.7L1437.775,662.25Zm101.665-54.939-95.161,54.939,95.163,54.943,95.161-54.939Z" transform="translate(1023.425 417.345)" fill="red"/>
      <path id="Tracé_953" data-name="Tracé 953" d="M1392.038,571.594,1493.7,512.9l101.667,58.7-101.665,58.694ZM1493.7,516.655l-95.162,54.939,95.163,54.943,95.161-54.939Z" transform="translate(1066.266 392.865)" fill="red"/>
      <path id="Tracé_954" data-name="Tracé 954" d="M1447.967,539.634l101.665-58.694,101.667,58.7-101.665,58.694Zm101.665-54.939-95.161,54.939,95.163,54.943,95.161-54.94Z" transform="translate(1109.106 368.384)" fill="red"/>
      <path id="Tracé_955" data-name="Tracé 955" d="M1503.9,507.674l101.667-58.694,101.667,58.7-101.666,58.694Zm101.667-54.94-95.163,54.94,95.165,54.943,95.161-54.94Z" transform="translate(1151.946 343.904)" fill="red"/>
      <path id="Tracé_956" data-name="Tracé 956" d="M1167.972,699.363l101.665-58.694,101.667,58.7L1269.639,758.06Zm101.665-54.94-95.161,54.94,95.163,54.943,95.161-54.94Z" transform="translate(894.637 490.733)" fill="red"/>
      <path id="Tracé_957" data-name="Tracé 957" d="M1168.935,635.513,1270.6,576.819l101.667,58.7L1270.6,694.21ZM1270.6,580.573l-95.161,54.939,95.163,54.943,95.161-54.939Z" transform="translate(895.375 441.825)" fill="red"/>
      <path id="Tracé_958" data-name="Tracé 958" d="M1224.864,603.553l101.665-58.694,101.667,58.7L1326.531,662.25Zm101.665-54.939-95.161,54.939,95.163,54.943,95.161-54.939Z" transform="translate(938.215 417.345)" fill="red"/>
      <path id="Tracé_959" data-name="Tracé 959" d="M1280.794,571.594,1382.459,512.9l101.667,58.7-101.666,58.694Zm101.666-54.939L1287.3,571.594l95.163,54.943,95.161-54.939Z" transform="translate(981.056 392.865)" fill="red"/>
      <path id="Tracé_960" data-name="Tracé 960" d="M1336.723,539.634l101.665-58.694,101.667,58.7L1438.39,598.331Zm101.665-54.939-95.161,54.939,95.163,54.943,95.161-54.94Z" transform="translate(1023.896 368.384)" fill="red"/>
      <path id="Tracé_961" data-name="Tracé 961" d="M1392.652,507.674,1494.32,448.98l101.667,58.7-101.665,58.694Zm101.667-54.94-95.163,54.94,95.165,54.943,95.161-54.94Z" transform="translate(1066.736 343.904)" fill="red"/>
      <path id="Tracé_962" data-name="Tracé 962" d="M1448.582,475.715l101.665-58.694,101.667,58.7-101.665,58.694Zm101.665-54.939-95.161,54.939,95.163,54.943,95.161-54.94Z" transform="translate(1109.577 319.424)" fill="red"/>
      <path id="Tracé_963" data-name="Tracé 963" d="M1112.657,667.4l101.665-58.694,101.667,58.7L1214.324,726.1Zm101.665-54.939L1119.161,667.4l95.163,54.943,95.161-54.939Z" transform="translate(852.267 466.253)" fill="red"/>
      <path id="Tracé_964" data-name="Tracé 964" d="M1113.62,603.553l101.665-58.694,101.667,58.7L1215.287,662.25Zm101.665-54.939-95.161,54.939,95.163,54.943,95.161-54.939Z" transform="translate(853.005 417.345)" fill="red"/>
      <path id="Tracé_965" data-name="Tracé 965" d="M1169.55,571.594,1271.215,512.9l101.667,58.7-101.665,58.694Zm101.665-54.939-95.161,54.939,95.163,54.943,95.161-54.939Z" transform="translate(895.846 392.865)" fill="red"/>
      <path id="Tracé_966" data-name="Tracé 966" d="M1225.479,539.634l101.665-58.694,101.667,58.7-101.666,58.694Zm101.665-54.939-95.161,54.939,95.163,54.943,95.162-54.94Z" transform="translate(938.686 368.384)" fill="red"/>
      <path id="Tracé_967" data-name="Tracé 967" d="M1281.408,507.674l101.666-58.694,101.667,58.7-101.665,58.694Zm101.666-54.94-95.161,54.94,95.163,54.943,95.161-54.94Z" transform="translate(981.526 343.904)" fill="red"/>
      <path id="Tracé_968" data-name="Tracé 968" d="M1337.338,475.715,1439,417.021l101.667,58.7-101.666,58.694ZM1439,420.776l-95.161,54.939,95.163,54.943,95.161-54.94Z" transform="translate(1024.367 319.424)" fill="red"/>
      <path id="Tracé_969" data-name="Tracé 969" d="M1393.267,443.755l101.666-58.694,101.667,58.7-101.665,58.694Zm101.666-54.939-95.161,54.939,95.163,54.943,95.161-54.94Z" transform="translate(1067.207 294.943)" fill="red"/>
      <path id="Tracé_970" data-name="Tracé 970" d="M1057.342,635.444l101.665-58.694,101.667,58.7-101.665,58.694Zm101.665-54.94-95.161,54.94,95.163,54.943,95.161-54.94Z" transform="translate(809.897 441.772)" fill="red"/>
      <path id="Tracé_971" data-name="Tracé 971" d="M332.852,604.06l101.665-58.694,101.667,58.7L434.519,662.757ZM434.517,549.12,339.356,604.06,434.519,659l95.161-54.94Z" transform="translate(254.956 417.733)" fill="red"/>
      <path id="Tracé_972" data-name="Tracé 972" d="M388.781,572.1l101.665-58.694,101.667,58.7L490.448,630.8Zm101.665-54.94L395.285,572.1l95.163,54.943,95.161-54.94Z" transform="translate(297.796 393.253)" fill="red"/>
      <path id="Tracé_973" data-name="Tracé 973" d="M444.711,540.14l101.665-58.694,101.667,58.7L546.378,598.837ZM546.376,485.2l-95.161,54.94,95.163,54.943,95.161-54.939Z" transform="translate(340.637 368.772)" fill="red"/>
      <path id="Tracé_974" data-name="Tracé 974" d="M500.64,508.181l101.665-58.694,101.667,58.7L602.307,566.878Zm101.665-54.939-95.161,54.939,95.163,54.943,95.161-54.939Z" transform="translate(383.478 344.292)" fill="red"/>
      <path id="Tracé_975" data-name="Tracé 975" d="M556.569,476.221l101.665-58.694,101.667,58.7L658.236,534.918Zm101.665-54.939-95.161,54.939,95.163,54.943L753.4,476.224Z" transform="translate(426.318 319.812)" fill="red"/>
      <path id="Tracé_976" data-name="Tracé 976" d="M612.5,444.262l101.665-58.694,101.667,58.7L714.166,502.959Zm101.665-54.939L619,444.262,714.166,499.2l95.161-54.939Z" transform="translate(469.159 295.332)" fill="red"/>
      <path id="Tracé_977" data-name="Tracé 977" d="M276.574,635.951l101.665-58.694,101.667,58.7L378.241,694.649Zm101.665-54.939-95.161,54.939,95.163,54.943,95.161-54.94Z" transform="translate(211.849 442.161)" fill="red"/>
      <path id="Tracé_978" data-name="Tracé 978" d="M277.537,572.1,379.2,513.406,480.87,572.1,379.2,630.8ZM379.2,517.16,284.041,572.1,379.2,627.043l95.161-54.94Z" transform="translate(212.586 393.253)" fill="red"/>
      <path id="Tracé_979" data-name="Tracé 979" d="M333.467,540.14l101.665-58.694,101.667,58.7L435.134,598.837ZM435.132,485.2l-95.161,54.94,95.163,54.943L530.3,540.143Z" transform="translate(255.427 368.772)" fill="red"/>
      <path id="Tracé_980" data-name="Tracé 980" d="M389.4,508.181l101.665-58.694,101.667,58.7L491.063,566.878Zm101.665-54.939L395.9,508.181l95.163,54.943,95.161-54.939Z" transform="translate(298.267 344.292)" fill="red"/>
      <path id="Tracé_981" data-name="Tracé 981" d="M445.325,476.221l101.665-58.694,101.667,58.7L546.992,534.918Zm101.665-54.939-95.161,54.939,95.163,54.943,95.161-54.939Z" transform="translate(341.108 319.812)" fill="red"/>
      <path id="Tracé_982" data-name="Tracé 982" d="M501.255,444.262,602.92,385.568l101.667,58.7L602.922,502.959ZM602.92,389.322l-95.161,54.939L602.922,499.2l95.161-54.939Z" transform="translate(383.949 295.332)" fill="red"/>
      <path id="Tracé_983" data-name="Tracé 983" d="M557.184,412.3l101.665-58.694,101.667,58.7L658.851,471Zm101.665-54.939L563.688,412.3l95.163,54.943,95.161-54.94Z" transform="translate(426.789 270.851)" fill="red"/>
      <path id="Tracé_984" data-name="Tracé 984" d="M221.259,603.991,322.924,545.3l101.667,58.7L322.926,662.688Zm101.665-54.94-95.161,54.94,95.163,54.943,95.161-54.94Z" transform="translate(169.479 417.68)" fill="red"/>
      <path id="Tracé_985" data-name="Tracé 985" d="M222.223,540.14l101.665-58.694,101.667,58.7L323.89,598.837ZM323.888,485.2l-95.161,54.94,95.163,54.943,95.161-54.939Z" transform="translate(170.217 368.772)" fill="red"/>
      <path id="Tracé_986" data-name="Tracé 986" d="M278.152,508.181l101.665-58.694,101.667,58.7L379.819,566.878Zm101.665-54.939-95.161,54.939,95.163,54.943,95.161-54.939Z" transform="translate(213.057 344.292)" fill="red"/>
      <path id="Tracé_987" data-name="Tracé 987" d="M334.081,476.221l101.665-58.694,101.667,58.7L435.748,534.918Zm101.665-54.939-95.161,54.939,95.163,54.943,95.161-54.939Z" transform="translate(255.898 319.812)" fill="red"/>
      <path id="Tracé_988" data-name="Tracé 988" d="M390.011,444.262l101.665-58.694,101.667,58.7L491.678,502.959Zm101.665-54.939-95.161,54.939L491.678,499.2l95.161-54.939Z" transform="translate(298.739 295.332)" fill="red"/>
      <path id="Tracé_989" data-name="Tracé 989" d="M445.94,412.3l101.665-58.694,101.667,58.7L547.607,471Zm101.665-54.939L452.444,412.3l95.163,54.943,95.161-54.94Z" transform="translate(341.579 270.851)" fill="red"/>
      <path id="Tracé_990" data-name="Tracé 990" d="M501.869,380.342l101.665-58.694,101.667,58.7L603.536,439.039ZM603.534,325.4l-95.161,54.94,95.163,54.943,95.161-54.94Z" transform="translate(384.419 246.371)" fill="red"/>
      <path id="Tracé_991" data-name="Tracé 991" d="M165.945,572.031,267.61,513.337l101.665,58.7L267.61,630.728ZM267.61,517.092l-95.161,54.939,95.161,54.943,95.161-54.939Z" transform="translate(127.11 393.2)" fill="red"/>
      <path id="Tracé_992" data-name="Tracé 992" d="M166.908,508.181l101.665-58.694,101.667,58.7L268.575,566.878Zm101.665-54.939-95.161,54.939,95.163,54.943,95.161-54.939Z" transform="translate(127.847 344.292)" fill="red"/>
      <path id="Tracé_993" data-name="Tracé 993" d="M222.837,476.221,324.5,417.527l101.667,58.7L324.5,534.918ZM324.5,421.281l-95.161,54.939L324.5,531.164l95.161-54.939Z" transform="translate(170.687 319.812)" fill="red"/>
      <path id="Tracé_994" data-name="Tracé 994" d="M278.767,444.262l101.665-58.694,101.665,58.7L380.432,502.959Zm101.665-54.939-95.163,54.939L380.432,499.2,475.6,444.265Z" transform="translate(213.528 295.332)" fill="red"/>
      <path id="Tracé_995" data-name="Tracé 995" d="M334.7,412.3l101.665-58.694,101.667,58.7L436.363,471Zm101.665-54.939L341.2,412.3l95.163,54.943,95.161-54.94Z" transform="translate(256.369 270.851)" fill="red"/>
      <path id="Tracé_996" data-name="Tracé 996" d="M390.625,380.342,492.29,321.648l101.667,58.7L492.292,439.039ZM492.29,325.4l-95.161,54.94,95.163,54.943,95.161-54.94Z" transform="translate(299.209 246.371)" fill="red"/>
      <path id="Tracé_997" data-name="Tracé 997" d="M446.555,348.383,548.22,289.689l101.667,58.7L548.222,407.08ZM548.22,293.444l-95.161,54.939,95.163,54.943,95.161-54.939Z" transform="translate(342.05 221.891)" fill="red"/>
      <path id="Tracé_998" data-name="Tracé 998" d="M110.63,540.072,212.3,481.378l101.667,58.7L212.3,598.769ZM212.3,485.133l-95.161,54.94L212.3,595.015l95.161-54.939Z" transform="translate(84.74 368.72)" fill="red"/>
      <path id="Tracé_999" data-name="Tracé 999" d="M111.593,476.221l101.665-58.694,101.667,58.7L213.26,534.918Zm101.665-54.939L118.1,476.221l95.163,54.943,95.161-54.939Z" transform="translate(85.477 319.812)" fill="red"/>
      <path id="Tracé_1000" data-name="Tracé 1000" d="M167.522,444.262l101.665-58.694,101.667,58.7L269.189,502.959Zm101.665-54.939-95.161,54.939L269.189,499.2l95.161-54.939Z" transform="translate(128.318 295.332)" fill="red"/>
      <path id="Tracé_1001" data-name="Tracé 1001" d="M223.452,412.3l101.665-58.694,101.667,58.7L325.119,471Zm101.665-54.939L229.956,412.3l95.163,54.943,95.161-54.94Z" transform="translate(171.159 270.851)" fill="red"/>
      <path id="Tracé_1002" data-name="Tracé 1002" d="M279.381,380.342l101.665-58.694,101.667,58.7L381.048,439.039ZM381.046,325.4l-95.161,54.94,95.163,54.943,95.161-54.94Z" transform="translate(213.999 246.371)" fill="red"/>
      <path id="Tracé_1003" data-name="Tracé 1003" d="M335.31,348.383l101.665-58.694,101.667,58.7L436.977,407.08Zm101.665-54.939-95.161,54.939,95.163,54.943,95.161-54.939Z" transform="translate(256.839 221.891)" fill="red"/>
      <path id="Tracé_1004" data-name="Tracé 1004" d="M391.24,316.423l101.665-58.694,101.667,58.7L492.907,375.12Zm101.665-54.939-95.161,54.939,95.163,54.943,95.161-54.939Z" transform="translate(299.68 197.41)" fill="red"/>
      <path id="Tracé_1005" data-name="Tracé 1005" d="M55.315,508.112,156.98,449.418l101.667,58.7L156.982,566.81Zm101.665-54.94-95.161,54.94,95.163,54.943,95.161-54.94Z" transform="translate(42.37 344.239)" fill="red"/>
      <path id="Tracé_1006" data-name="Tracé 1006" d="M56.278,444.262l101.665-58.694,101.667,58.7L157.945,502.959Zm101.665-54.939L62.782,444.262,157.945,499.2l95.161-54.939Z" transform="translate(43.108 295.332)" fill="red"/>
      <path id="Tracé_1007" data-name="Tracé 1007" d="M112.208,412.3l101.665-58.694,101.667,58.7L213.875,471Zm101.665-54.939L118.712,412.3l95.163,54.943,95.161-54.94Z" transform="translate(85.949 270.851)" fill="red"/>
      <path id="Tracé_1008" data-name="Tracé 1008" d="M168.137,380.342,269.8,321.648l101.667,58.7L269.8,439.039ZM269.8,325.4l-95.161,54.94L269.8,435.285l95.161-54.94Z" transform="translate(128.789 246.371)" fill="red"/>
      <path id="Tracé_1009" data-name="Tracé 1009" d="M224.066,348.383l101.665-58.694,101.667,58.7L325.733,407.08Zm101.665-54.939L230.57,348.383l95.163,54.943,95.161-54.939Z" transform="translate(171.629 221.891)" fill="red"/>
      <path id="Tracé_1010" data-name="Tracé 1010" d="M280,316.423l101.665-58.694,101.667,58.7L381.663,375.12Zm101.665-54.939L286.5,316.423l95.163,54.943,95.161-54.939Z" transform="translate(214.47 197.41)" fill="red"/>
      <path id="Tracé_1011" data-name="Tracé 1011" d="M335.925,284.463,437.59,225.769l101.667,58.7L437.592,343.16ZM437.59,229.523l-95.161,54.939,95.163,54.943,95.161-54.94Z" transform="translate(257.31 172.93)" fill="red"/>
      <path id="Tracé_1012" data-name="Tracé 1012" d="M6.5,476.154l95.161-54.939,95.163,54.941L101.667,531.1Zm-6.5,0,101.667,58.7,101.667-58.7-101.669-58.7Z" transform="translate(0 319.759)" fill="red"/>
      <path id="Tracé_1013" data-name="Tracé 1013" d="M666,796.589,767.669,737.9l101.667,58.7L767.67,855.287Zm101.666-54.939-95.161,54.939,95.163,54.943,95.161-54.939Z" transform="translate(510.142 565.205)" fill="red"/>
      <path id="Tracé_1014" data-name="Tracé 1014" d="M721.932,764.63,823.6,705.936l101.667,58.7L823.6,823.327ZM823.6,709.69,728.436,764.63,823.6,819.573l95.161-54.939Z" transform="translate(552.982 540.726)" fill="red"/>
      <path id="Tracé_1015" data-name="Tracé 1015" d="M777.861,732.67l101.665-58.694,101.667,58.7L879.528,791.367ZM879.526,677.73,784.365,732.67l95.163,54.943,95.161-54.94Z" transform="translate(595.822 516.245)" fill="red"/>
      <path id="Tracé_1016" data-name="Tracé 1016" d="M833.791,700.71l101.665-58.694,101.667,58.7L935.458,759.407Zm101.665-54.939L840.3,700.71l95.163,54.943,95.161-54.939Z" transform="translate(638.663 491.764)" fill="red"/>
      <path id="Tracé_1017" data-name="Tracé 1017" d="M889.72,668.751l101.666-58.694,101.667,58.7L991.387,727.448Zm101.666-54.94-95.161,54.94,95.163,54.943,95.161-54.94Z" transform="translate(681.503 467.285)" fill="red"/>
      <path id="Tracé_1018" data-name="Tracé 1018" d="M945.649,636.791,1047.316,578.1l101.665,58.7-101.665,58.694Zm101.667-54.94-95.163,54.94,95.163,54.943,95.161-54.939Z" transform="translate(724.343 442.804)" fill="red"/>
      <path id="Tracé_1019" data-name="Tracé 1019" d="M609.725,828.48l101.666-58.694,101.667,58.7L711.392,887.177ZM711.391,773.54,616.229,828.48l95.163,54.943,95.161-54.939Z" transform="translate(467.034 589.633)" fill="red"/>
      <path id="Tracé_1020" data-name="Tracé 1020" d="M610.688,764.63l101.665-58.694,101.667,58.7L712.355,823.327ZM712.353,709.69,617.192,764.63l95.163,54.943,95.161-54.939Z" transform="translate(467.772 540.726)" fill="red"/>
      <path id="Tracé_1021" data-name="Tracé 1021" d="M666.617,732.67l101.665-58.694,101.667,58.7L768.284,791.367ZM768.282,677.73,673.121,732.67l95.163,54.943,95.161-54.94Z" transform="translate(510.612 516.245)" fill="red"/>
      <path id="Tracé_1022" data-name="Tracé 1022" d="M722.547,700.71l101.666-58.694,101.667,58.7L824.214,759.407Zm101.666-54.939L729.051,700.71l95.163,54.943,95.161-54.939Z" transform="translate(553.453 491.764)" fill="red"/>
      <path id="Tracé_1023" data-name="Tracé 1023" d="M778.476,668.751l101.665-58.694,101.667,58.7L880.143,727.448Zm101.665-54.94-95.161,54.94,95.163,54.943,95.161-54.94Z" transform="translate(596.293 467.285)" fill="red"/>
      <path id="Tracé_1024" data-name="Tracé 1024" d="M834.405,636.791,936.07,578.1l101.667,58.7L936.072,695.488Zm101.665-54.94-95.161,54.94,95.163,54.943,95.161-54.939Z" transform="translate(639.133 442.804)" fill="red"/>
      <path id="Tracé_1025" data-name="Tracé 1025" d="M890.335,604.831,992,546.137l101.667,58.7L992,663.528ZM992,549.891l-95.161,54.939L992,659.774l95.161-54.939Z" transform="translate(681.974 418.324)" fill="red"/>
      <path id="Tracé_1026" data-name="Tracé 1026" d="M554.41,796.521l101.665-58.694,101.667,58.7L656.077,855.218Zm101.665-54.94-95.161,54.94,95.163,54.943,95.161-54.939Z" transform="translate(424.664 565.153)" fill="red"/>
      <path id="Tracé_1027" data-name="Tracé 1027" d="M555.373,732.67l101.666-58.694,101.667,58.7L657.04,791.367ZM657.039,677.73,561.877,732.67l95.163,54.943,95.161-54.94Z" transform="translate(425.402 516.245)" fill="red"/>
      <path id="Tracé_1028" data-name="Tracé 1028" d="M611.3,700.71l101.665-58.694,101.667,58.7L712.97,759.407Zm101.665-54.939L617.807,700.71l95.163,54.943,95.161-54.939Z" transform="translate(468.243 491.764)" fill="red"/>
      <path id="Tracé_1029" data-name="Tracé 1029" d="M667.232,668.751,768.9,610.057l101.667,58.7L768.9,727.448ZM768.9,613.811l-95.161,54.94L768.9,723.694l95.161-54.94Z" transform="translate(511.083 467.285)" fill="red"/>
      <path id="Tracé_1030" data-name="Tracé 1030" d="M723.161,636.791,824.826,578.1l101.667,58.7L824.828,695.488Zm101.665-54.94-95.161,54.94,95.163,54.943,95.161-54.939Z" transform="translate(553.923 442.804)" fill="red"/>
      <path id="Tracé_1031" data-name="Tracé 1031" d="M779.091,604.831l101.665-58.694,101.667,58.7L880.758,663.528Zm101.665-54.939L785.6,604.831l95.163,54.943,95.161-54.939Z" transform="translate(596.764 418.324)" fill="red"/>
      <path id="Tracé_1032" data-name="Tracé 1032" d="M835.02,572.872l101.665-58.694,101.667,58.7L936.687,631.569Zm101.665-54.94-95.161,54.94,95.163,54.943,95.161-54.94Z" transform="translate(639.604 393.844)" fill="red"/>
      <path id="Tracé_1033" data-name="Tracé 1033" d="M499.1,764.561,600.76,705.867l101.667,58.7L600.762,823.259Zm101.665-54.94L505.6,764.561,600.762,819.5l95.161-54.94Z" transform="translate(382.294 540.673)" fill="red"/>
      <path id="Tracé_1034" data-name="Tracé 1034" d="M500.059,700.71l101.665-58.694,101.665,58.7L601.724,759.407Zm101.665-54.939L506.561,700.71l95.163,54.943,95.161-54.939Z" transform="translate(383.033 491.764)" fill="red"/>
      <path id="Tracé_1035" data-name="Tracé 1035" d="M555.988,668.751l101.666-58.694,101.667,58.7L657.655,727.448Zm101.666-54.94-95.161,54.94,95.163,54.943,95.161-54.94Z" transform="translate(425.873 467.285)" fill="red"/>
      <path id="Tracé_1036" data-name="Tracé 1036" d="M611.917,636.791,713.583,578.1l101.667,58.7L713.584,695.488Zm101.665-54.94-95.161,54.94,95.163,54.943,95.161-54.939Z" transform="translate(468.713 442.804)" fill="red"/>
      <path id="Tracé_1037" data-name="Tracé 1037" d="M667.847,604.831l101.666-58.694,101.667,58.7L769.514,663.528Zm101.666-54.939-95.161,54.939,95.163,54.943,95.161-54.939Z" transform="translate(511.554 418.324)" fill="red"/>
      <path id="Tracé_1038" data-name="Tracé 1038" d="M723.776,572.872l101.665-58.694,101.667,58.7L825.443,631.569Zm101.665-54.94-95.161,54.94,95.163,54.943,95.161-54.94Z" transform="translate(554.394 393.844)" fill="red"/>
      <path id="Tracé_1039" data-name="Tracé 1039" d="M779.705,540.912,881.37,482.218l101.667,58.7L881.372,599.609ZM881.37,485.972l-95.161,54.939,95.163,54.943,95.161-54.94Z" transform="translate(597.234 369.363)" fill="red"/>
      <path id="Tracé_1040" data-name="Tracé 1040" d="M443.78,732.6l101.665-58.694,101.667,58.7L545.447,791.3Zm101.665-54.939L450.284,732.6l95.163,54.943L640.609,732.6Z" transform="translate(339.924 516.192)" fill="red"/>
      <path id="Tracé_1041" data-name="Tracé 1041" d="M444.744,668.751l101.665-58.694,101.667,58.7L546.411,727.448Zm101.665-54.94-95.161,54.94,95.163,54.943,95.161-54.94Z" transform="translate(340.663 467.285)" fill="red"/>
      <path id="Tracé_1042" data-name="Tracé 1042" d="M500.673,636.791,602.339,578.1l101.667,58.7L602.34,695.488Zm101.665-54.94-95.161,54.94,95.163,54.943L697.5,636.795Z" transform="translate(383.503 442.804)" fill="red"/>
      <path id="Tracé_1043" data-name="Tracé 1043" d="M556.6,604.831l101.666-58.694,101.667,58.7L658.269,663.528Zm101.666-54.939-95.161,54.939,95.163,54.943,95.161-54.939Z" transform="translate(426.343 418.324)" fill="red"/>
      <path id="Tracé_1044" data-name="Tracé 1044" d="M612.532,572.872,714.2,514.178l101.667,58.7L714.2,631.569ZM714.2,517.932l-95.161,54.94L714.2,627.815l95.161-54.94Z" transform="translate(469.184 393.844)" fill="red"/>
      <path id="Tracé_1045" data-name="Tracé 1045" d="M668.461,540.912l101.665-58.694,101.667,58.7L770.128,599.609Zm101.665-54.939-95.161,54.939,95.163,54.943,95.161-54.94Z" transform="translate(512.024 369.363)" fill="red"/>
      <path id="Tracé_1046" data-name="Tracé 1046" d="M724.39,508.954l101.665-58.7,101.667,58.7L826.057,567.649Zm101.665-54.941-95.161,54.941L826.057,563.9l95.161-54.941Z" transform="translate(554.864 344.883)" fill="red"/>
      <path id="Tracé_1047" data-name="Tracé 1047" d="M388.466,700.642l101.665-58.694,101.667,58.7L490.133,759.339ZM490.131,645.7l-95.161,54.94,95.163,54.943,95.161-54.94Z" transform="translate(297.555 491.712)" fill="red"/>
      <path id="Tracé_1048" data-name="Tracé 1048" d="M389.429,636.791,491.094,578.1l101.667,58.7L491.1,695.488Zm101.665-54.94-95.161,54.94L491.1,691.734l95.161-54.939Z" transform="translate(298.293 442.804)" fill="red"/>
      <path id="Tracé_1049" data-name="Tracé 1049" d="M445.358,604.831l101.665-58.694,101.667,58.7L547.025,663.528Zm101.665-54.939-95.161,54.939,95.163,54.943,95.161-54.939Z" transform="translate(341.133 418.324)" fill="red"/>
      <path id="Tracé_1050" data-name="Tracé 1050" d="M501.288,572.872l101.665-58.694,101.667,58.7L602.955,631.569Zm101.665-54.94-95.161,54.94,95.163,54.943,95.161-54.94Z" transform="translate(383.974 393.844)" fill="red"/>
      <path id="Tracé_1051" data-name="Tracé 1051" d="M557.217,540.912l101.666-58.694,101.667,58.7L658.884,599.609Zm101.666-54.939-95.161,54.939,95.163,54.943,95.161-54.94Z" transform="translate(426.814 369.363)" fill="red"/>
      <path id="Tracé_1052" data-name="Tracé 1052" d="M613.146,508.954l101.667-58.7,101.665,58.7L714.813,567.649Zm101.667-54.941L619.65,508.954,714.813,563.9l95.161-54.941Z" transform="translate(469.654 344.883)" fill="red"/>
      <path id="Tracé_1053" data-name="Tracé 1053" d="M669.076,476.993,770.741,418.3,872.409,477,770.743,535.69Zm101.665-54.939L675.58,476.993l95.163,54.943L865.9,477Z" transform="translate(512.495 320.403)" fill="red"/>
      <path id="Tracé_1054" data-name="Tracé 1054" d="M333.151,668.682l101.665-58.694,101.667,58.7L434.818,727.379Zm101.665-54.939-95.161,54.939,95.163,54.943,95.161-54.939Z" transform="translate(255.185 467.232)" fill="red"/>
      <path id="Tracé_1055" data-name="Tracé 1055" d="M999.153,989.119l101.666-58.694,101.667,58.7-101.666,58.694Zm101.666-54.94-95.162,54.94,95.163,54.943,95.161-54.94Z" transform="translate(765.326 712.678)" fill="red"/>
      <path id="Tracé_1056" data-name="Tracé 1056" d="M1055.083,957.159l101.665-58.694,101.667,58.7-101.666,58.694Zm101.665-54.939-95.161,54.939,95.163,54.943,95.161-54.94Z" transform="translate(808.167 688.198)" fill="red"/>
      <path id="Tracé_1057" data-name="Tracé 1057" d="M1111.012,925.2l101.666-58.694,101.667,58.7L1212.679,983.9Zm101.666-54.94-95.161,54.94,95.163,54.943,95.161-54.94Z" transform="translate(851.007 663.717)" fill="red"/>
      <path id="Tracé_1058" data-name="Tracé 1058" d="M1166.941,893.24l101.665-58.694,101.667,58.7-101.666,58.694ZM1268.606,838.3l-95.161,54.939,95.163,54.943,95.161-54.939Z" transform="translate(893.847 639.237)" fill="red"/>
      <path id="Tracé_1059" data-name="Tracé 1059" d="M1222.871,861.28l101.665-58.694,101.667,58.7-101.665,58.694Zm101.665-54.94-95.161,54.94,95.163,54.943,95.161-54.94Z" transform="translate(936.688 614.757)" fill="red"/>
      <path id="Tracé_1060" data-name="Tracé 1060" d="M1278.8,829.321l101.666-58.694,101.667,58.7-101.665,58.694Zm101.666-54.939L1285.3,829.321l95.163,54.943,95.161-54.939Z" transform="translate(979.529 590.277)" fill="red"/>
      <path id="Tracé_1061" data-name="Tracé 1061" d="M949.379,1021.011l95.161-54.939,95.163,54.941-95.161,54.939Zm-6.5,0,101.667,58.7,101.667-58.7-101.669-58.7Z" transform="translate(722.218 737.105)" fill="red"/>
      <path id="Tracé_1062" data-name="Tracé 1062" d="M943.839,957.159,1045.5,898.465l101.667,58.7-101.665,58.694ZM1045.5,902.22l-95.161,54.939,95.163,54.943,95.161-54.94Z" transform="translate(722.957 688.198)" fill="red"/>
      <path id="Tracé_1063" data-name="Tracé 1063" d="M999.768,925.2l101.666-58.694L1203.1,925.2,1101.435,983.9Zm101.666-54.94-95.161,54.94,95.163,54.943L1196.6,925.2Z" transform="translate(765.797 663.717)" fill="red"/>
      <path id="Tracé_1064" data-name="Tracé 1064" d="M1055.7,893.24l101.665-58.694,101.667,58.7-101.666,58.694ZM1157.362,838.3,1062.2,893.24l95.163,54.943,95.161-54.939Z" transform="translate(808.637 639.237)" fill="red"/>
      <path id="Tracé_1065" data-name="Tracé 1065" d="M1111.627,861.28l101.666-58.694,101.667,58.7-101.665,58.694Zm101.666-54.94-95.161,54.94,95.163,54.943,95.161-54.94Z" transform="translate(851.478 614.757)" fill="red"/>
      <path id="Tracé_1066" data-name="Tracé 1066" d="M1167.556,829.321l101.665-58.694,101.667,58.7-101.665,58.694Zm101.665-54.939-95.161,54.939,95.163,54.943,95.161-54.939Z" transform="translate(894.318 590.277)" fill="red"/>
      <path id="Tracé_1067" data-name="Tracé 1067" d="M1223.485,797.361l101.665-58.694,101.667,58.7-101.666,58.694Zm101.665-54.94-95.161,54.94,95.163,54.943,95.161-54.94Z" transform="translate(937.158 565.797)" fill="red"/>
      <path id="Tracé_1068" data-name="Tracé 1068" d="M887.561,989.05l101.665-58.694,101.667,58.7-101.665,58.694Zm101.665-54.94-95.161,54.94,95.163,54.943,95.161-54.939Z" transform="translate(679.849 712.626)" fill="red"/>
      <path id="Tracé_1069" data-name="Tracé 1069" d="M888.524,925.2,990.19,866.505l101.667,58.7L990.191,983.9ZM990.19,870.26,895.028,925.2l95.163,54.943,95.161-54.94Z" transform="translate(680.587 663.717)" fill="red"/>
      <path id="Tracé_1070" data-name="Tracé 1070" d="M944.453,893.24l101.665-58.694,101.667,58.7L1046.12,951.937ZM1046.118,838.3,950.957,893.24l95.163,54.943,95.161-54.939Z" transform="translate(723.427 639.237)" fill="red"/>
      <path id="Tracé_1071" data-name="Tracé 1071" d="M1000.383,861.28l101.666-58.694,101.667,58.7L1102.05,919.977Zm101.666-54.94-95.161,54.94,95.163,54.943,95.161-54.94Z" transform="translate(766.268 614.757)" fill="red"/>
      <path id="Tracé_1072" data-name="Tracé 1072" d="M1056.312,829.321l101.665-58.694,101.667,58.7-101.666,58.694Zm101.665-54.939-95.161,54.939,95.163,54.943,95.161-54.939Z" transform="translate(809.108 590.277)" fill="red"/>
      <path id="Tracé_1073" data-name="Tracé 1073" d="M1112.241,797.361l101.666-58.694,101.667,58.7-101.665,58.694Zm101.666-54.94-95.161,54.94,95.163,54.943,95.161-54.94Z" transform="translate(851.948 565.797)" fill="red"/>
      <path id="Tracé_1074" data-name="Tracé 1074" d="M1168.171,765.4l101.665-58.694L1371.5,765.4,1269.838,824.1Zm101.665-54.939L1174.675,765.4l95.163,54.943L1365,765.4Z" transform="translate(894.789 541.316)" fill="red"/>
      <path id="Tracé_1075" data-name="Tracé 1075" d="M832.246,957.09,933.911,898.4l101.667,58.7-101.665,58.694Zm101.665-54.939L838.75,957.09l95.163,54.943,95.161-54.94Z" transform="translate(637.479 688.145)" fill="red"/>
      <path id="Tracé_1076" data-name="Tracé 1076" d="M833.209,893.24l101.666-58.694,101.667,58.7L934.876,951.937ZM934.875,838.3,839.713,893.24l95.163,54.943,95.161-54.939Z" transform="translate(638.217 639.237)" fill="red"/>
      <path id="Tracé_1077" data-name="Tracé 1077" d="M889.138,861.28l101.667-58.694,101.665,58.7L990.805,919.977Zm101.667-54.94-95.163,54.94,95.163,54.943,95.161-54.94Z" transform="translate(681.057 614.757)" fill="red"/>
      <path id="Tracé_1078" data-name="Tracé 1078" d="M945.068,829.321l101.665-58.694,101.667,58.7-101.666,58.694Zm101.665-54.939-95.161,54.939,95.163,54.943,95.161-54.939Z" transform="translate(723.898 590.277)" fill="red"/>
      <path id="Tracé_1079" data-name="Tracé 1079" d="M1001,797.361l101.665-58.694,101.667,58.7-101.665,58.694Zm101.665-54.94-95.161,54.94,95.163,54.943,95.161-54.94Z" transform="translate(766.738 565.797)" fill="red"/>
      <path id="Tracé_1080" data-name="Tracé 1080" d="M1056.927,765.4l101.665-58.694,101.667,58.7L1158.594,824.1Zm101.665-54.939L1063.429,765.4l95.165,54.943,95.161-54.939Z" transform="translate(809.579 541.316)" fill="red"/>
      <path id="Tracé_1081" data-name="Tracé 1081" d="M1112.856,733.442l101.666-58.694,101.667,58.7L1214.523,792.14ZM1214.522,678.5l-95.162,54.939,95.163,54.943,95.161-54.939Z" transform="translate(852.42 516.836)" fill="red"/>
      <path id="Tracé_1082" data-name="Tracé 1082" d="M776.931,925.131,878.6,866.437l101.667,58.7L878.6,983.828ZM878.6,870.191l-95.161,54.939L878.6,980.074l95.162-54.94Z" transform="translate(595.11 663.665)" fill="red"/>
      <path id="Tracé_1083" data-name="Tracé 1083" d="M777.894,861.28l101.665-58.694,101.667,58.7L879.561,919.977Zm101.665-54.94L784.4,861.28l95.163,54.943,95.161-54.94Z" transform="translate(595.847 614.757)" fill="red"/>
      <path id="Tracé_1084" data-name="Tracé 1084" d="M833.824,829.321,935.49,770.627l101.667,58.7L935.491,888.018ZM935.49,774.381l-95.161,54.939,95.163,54.943,95.161-54.939Z" transform="translate(638.688 590.277)" fill="red"/>
      <path id="Tracé_1085" data-name="Tracé 1085" d="M889.753,797.361l101.665-58.694,101.667,58.7L991.42,856.058Zm101.665-54.94-95.161,54.94L991.42,852.3l95.161-54.94Z" transform="translate(681.528 565.797)" fill="red"/>
      <path id="Tracé_1086" data-name="Tracé 1086" d="M945.682,765.4l101.667-58.694,101.666,58.7L1047.351,824.1Zm101.667-54.939L952.186,765.4l95.165,54.943L1142.51,765.4Z" transform="translate(724.368 541.316)" fill="red"/>
      <path id="Tracé_1087" data-name="Tracé 1087" d="M1001.612,733.442l101.665-58.694,101.667,58.7L1103.279,792.14ZM1103.278,678.5l-95.161,54.939,95.163,54.943,95.161-54.939Z" transform="translate(767.209 516.836)" fill="red"/>
      <path id="Tracé_1088" data-name="Tracé 1088" d="M1057.541,701.482l101.665-58.694,101.667,58.7-101.666,58.694Zm101.665-54.939-95.161,54.939,95.163,54.943,95.161-54.939Z" transform="translate(810.05 492.356)" fill="red"/>
      <path id="Tracé_1089" data-name="Tracé 1089" d="M721.616,893.171l101.665-58.694,101.667,58.7L823.283,951.869Zm101.665-54.939L728.12,893.171l95.163,54.943,95.161-54.939Z" transform="translate(552.74 639.185)" fill="red"/>
      <path id="Tracé_1090" data-name="Tracé 1090" d="M722.58,829.321l101.665-58.694,101.667,58.7L824.247,888.018Zm101.665-54.939-95.161,54.939,95.163,54.943,95.161-54.939Z" transform="translate(553.478 590.277)" fill="red"/>
      <path id="Tracé_1091" data-name="Tracé 1091" d="M778.509,797.361l101.666-58.694,101.667,58.7L880.176,856.058Zm101.666-54.94-95.161,54.94L880.176,852.3l95.161-54.94Z" transform="translate(596.318 565.797)" fill="red"/>
      <path id="Tracé_1092" data-name="Tracé 1092" d="M834.438,765.4,936.1,706.707l101.667,58.7L936.105,824.1ZM936.1,710.462,840.942,765.4l95.163,54.943,95.161-54.939Z" transform="translate(639.158 541.316)" fill="red"/>
      <path id="Tracé_1093" data-name="Tracé 1093" d="M890.368,733.442l101.666-58.694,101.667,58.7L992.035,792.14ZM992.034,678.5l-95.161,54.939,95.163,54.943,95.161-54.939Z" transform="translate(681.999 516.836)" fill="red"/>
      <path id="Tracé_1094" data-name="Tracé 1094" d="M946.3,701.482l101.666-58.694,101.667,58.7-101.666,58.694Zm101.666-54.939L952.8,701.482l95.163,54.943,95.161-54.939Z" transform="translate(724.84 492.356)" fill="red"/>
      <path id="Tracé_1095" data-name="Tracé 1095" d="M1002.226,669.523l101.665-58.694,101.667,58.7L1103.893,728.22Zm101.665-54.939-95.161,54.939,95.163,54.943,95.161-54.939Z" transform="translate(767.68 467.876)" fill="red"/>
      <path id="Tracé_1096" data-name="Tracé 1096" d="M666.3,861.211l101.665-58.694,101.667,58.7L767.969,919.908Zm101.665-54.939-95.161,54.939,95.163,54.943,95.161-54.94Z" transform="translate(510.371 614.704)" fill="red"/>
    </g>
  </g>
</svg>
