<?xml version="1.0" encoding="UTF-8" standalone="no"?>
<!-- Created with Inkscape (http://www.inkscape.org/) -->
<svg
   version="1.1"
   id="svg2"
   width="909.18665"
   height="303.04001"
   viewBox="0 0 909.18665 303.04001"
   sodipodi:docname="MASSA-LOGO-09-04-2021.ai"
   xmlns:inkscape="http://www.inkscape.org/namespaces/inkscape"
   xmlns:sodipodi="http://sodipodi.sourceforge.net/DTD/sodipodi-0.dtd"
   xmlns="http://www.w3.org/2000/svg"
   xmlns:svg="http://www.w3.org/2000/svg">
  <defs
     id="defs6">
    <clipPath
       clipPathUnits="userSpaceOnUse"
       id="clipPath24">
      <path
         d="M 0,227.28 H 681.89 V 0 H 0 Z"
         id="path22" />
    </clipPath>
  </defs>
  <sodipodi:namedview
     id="namedview4"
     pagecolor="#ffffff"
     bordercolor="#000000"
     borderopacity="0.25"
     inkscape:showpageshadow="2"
     inkscape:pageopacity="0.0"
     inkscape:pagecheckerboard="0"
     inkscape:deskcolor="#d1d1d1" />
  <g
     id="g8"
     inkscape:groupmode="layer"
     inkscape:label="MASSA-LOGO-09-04-2021"
     transform="matrix(1.3333333,0,0,-1.3333333,0,303.04)">
    <g
       id="g10"
       transform="translate(254.6042,90.0328)">
      <path
         d="m 0,0 -15.058,28.985 v -45.063 h -16.871 v 79.37 h 16.871 L 7.473,18.795 30.117,63.292 h 16.757 v -79.37 H 30.117 V 28.985 L 14.946,0 Z"
         style="fill:#000000;fill-opacity:1;fill-rule:nonzero;stroke:none"
         id="path12" />
    </g>
    <g
       id="g14"
       transform="translate(349.485,130.4539)">
      <path
         d="M 0,0 -9.85,-25.928 H 9.851 Z m 8.039,22.871 31.023,-79.37 H 21.626 l -6.34,15.625 h -30.685 l -6.227,-15.625 h -17.436 l 31.024,79.37 z"
         style="fill:#000000;fill-opacity:1;fill-rule:nonzero;stroke:none"
         id="path16" />
    </g>
    <g
       id="g18">
      <g
         id="g20"
         clip-path="url(#clipPath24)">
        <g
           id="g26"
           transform="translate(418.6652,106.7897)">
          <path
             d="m 0,0 c -15.511,2.604 -25.023,10.643 -25.023,23.777 0,7.36 2.831,13.134 8.606,17.437 5.774,4.415 12.68,6.567 20.72,6.567 12.341,0 22.531,-4.19 30.57,-12.682 L 23.551,23.211 c -6.001,6.114 -12.681,9.171 -20.154,9.171 -7.134,0 -11.662,-3.17 -11.662,-7.812 0,-4.189 3.736,-7.02 11.322,-8.379 L 10.87,14.946 C 28.646,12.115 37.59,3.85 37.59,-9.85 c 0,-7.247 -2.943,-13.134 -8.718,-17.55 -5.775,-4.416 -13.361,-6.68 -22.871,-6.68 -13.927,0 -25.815,6.227 -32.948,15.172 l 11.548,11.662 c 5.888,-7.586 13.361,-11.436 22.419,-11.436 8.605,0 13.813,3.624 13.813,8.605 0,4.19 -3.736,7.02 -11.096,8.379 z"
             style="fill:#000000;fill-opacity:1;fill-rule:nonzero;stroke:none"
             id="path28" />
        </g>
        <g
           id="g30"
           transform="translate(491.582,106.7897)">
          <path
             d="m 0,0 c -15.511,2.604 -25.023,10.643 -25.023,23.777 0,7.36 2.831,13.134 8.606,17.437 5.774,4.415 12.68,6.567 20.72,6.567 12.341,0 22.531,-4.19 30.57,-12.682 L 23.551,23.211 c -6.001,6.114 -12.682,9.171 -20.154,9.171 -7.134,0 -11.662,-3.17 -11.662,-7.812 0,-4.189 3.736,-7.02 11.322,-8.379 l 7.812,-1.245 C 28.646,12.115 37.59,3.85 37.59,-9.85 c 0,-7.247 -2.943,-13.134 -8.718,-17.55 -5.775,-4.416 -13.361,-6.68 -22.871,-6.68 -13.927,0 -25.815,6.227 -32.948,15.172 l 11.548,11.662 c 5.888,-7.586 13.361,-11.436 22.419,-11.436 8.605,0 13.813,3.624 13.813,8.605 0,4.19 -3.736,7.02 -11.096,8.379 z"
             style="fill:#000000;fill-opacity:1;fill-rule:nonzero;stroke:none"
             id="path32" />
        </g>
        <g
           id="g34"
           transform="translate(572.0846,130.4539)">
          <path
             d="M 0,0 -9.85,-25.928 H 9.851 Z m 8.039,22.871 31.023,-79.37 H 21.626 l -6.34,15.625 h -30.685 l -6.227,-15.625 h -17.436 l 31.024,79.37 z"
             style="fill:#000000;fill-opacity:1;fill-rule:nonzero;stroke:none"
             id="path36" />
        </g>
        <g
           id="g38"
           transform="translate(126.8905,169.7873)">
          <path
             d="m 0,0 c -31.01,0 -56.147,-25.138 -56.147,-56.147 0,-31.01 25.137,-56.148 56.147,-56.148 31.009,0 56.147,25.138 56.147,56.148 C 56.147,-25.138 31.009,0 0,0"
             style="fill:#ff0000;fill-opacity:1;fill-rule:nonzero;stroke:none"
             id="path40" />
        </g>
        <g
           id="g42"
           transform="translate(151.8135,112.7238)">
          <path
             d="m 0,0 8.597,14.892 -4.069,7.055 -17.216,0.015 9.968,17.265 c -2.712,1.577 -5.601,2.878 -8.636,3.857 l -13.567,-23.468 4.088,-7.058 h 17.216 l -8.602,-14.91 4.064,-7.071 H 18.15 c 0.726,3.028 1.138,6.191 1.204,9.423 z"
             style="fill:#ffffff;fill-opacity:1;fill-rule:nonzero;stroke:none"
             id="path44" />
        </g>
        <g
           id="g46"
           transform="translate(122.8061,76.6331)">
          <path
             d="m 0,0 8.144,-0.003 8.62,14.902 9.397,-16.275 c 2.747,1.586 5.314,3.448 7.649,5.565 L 20.85,26.668 H 12.697 L 4.077,11.752 -4.526,26.668 h -8.156 L -25.641,4.188 c 2.336,-2.117 4.904,-3.979 7.65,-5.565 l 9.392,16.269 z"
             style="fill:#ffffff;fill-opacity:1;fill-rule:nonzero;stroke:none"
             id="path48" />
        </g>
        <g
           id="g50"
           transform="translate(114.1902,110.3685)">
          <path
             d="M 0,0 -8.595,14.913 H 8.608 L 12.7,21.972 -0.867,45.439 C -3.902,44.46 -6.791,43.159 -9.502,41.582 L 0.461,24.324 h -17.196 l -4.075,-7.053 8.595,-14.916 h -19.362 c 0.066,-3.232 0.479,-6.395 1.204,-9.423 h 26.307 z"
             style="fill:#ffffff;fill-opacity:1;fill-rule:nonzero;stroke:none"
             id="path52" />
        </g>
      </g>
    </g>
  </g>
</svg>
