<?xml version="1.0" encoding="UTF-8"?>
<svg id="Calque_2" data-name="Calque 2" xmlns="http://www.w3.org/2000/svg" xmlns:xlink="http://www.w3.org/1999/xlink" viewBox="0 0 1066.15 1384.11">
  <defs>
    <style>
      .cls-1 {
        isolation: isolate;
      }

      .cls-2 {
        clip-path: url(#clippath);
      }

      .cls-3 {
        fill: none;
      }

      .cls-4 {
        fill: red;
      }
    </style>
    <clipPath id="clippath">
      <polygon class="cls-3" points="156.22 1384.11 170.81 452.24 909.92 0 895.33 931.87 156.22 1384.11"/>
    </clipPath>
  </defs>
  <g id="Calque_1-2" data-name="Calque 1">
    <g class="cls-1">
      <g class="cls-2">
        <path class="cls-4" d="m292.43,1185.4c-18.51,11.33-33.33,3.13-32.99-18.27.34-21.39,15.69-48.06,34.21-59.39l503.93-308.34-1.22,77.65-503.93,308.34m-30.64-168.07l7.38-471.45c.34-21.43,15.66-48.03,34.21-59.38l67.19-41.11-7.9,504.76-67.19,41.11c-11.66,7.14-22.81,16.2-33.68,26.07m473.47-487.45l4.86-310.62,67.19-41.11-7.9,504.76-335.95,205.56,7.9-504.76,100.78-61.67-4.86,310.62,85.51-148.46,82.47,45.68m90.68-478.5L305.2,370.01c-74.12,45.35-135.48,151.89-136.82,237.54l-9.73,621.25c-1.34,85.65,57.84,118.43,131.96,73.08l604.72-370.01,13.07-834.8c.84-53.5-36.17-74-82.47-45.68"/>
      </g>
    </g>
  </g>
</svg>