<?xml version="1.0" encoding="UTF-8"?>
<svg id="Calque_2" data-name="Calque 2" xmlns="http://www.w3.org/2000/svg" xmlns:xlink="http://www.w3.org/1999/xlink" viewBox="0 0 987.97 1210">
  <defs>
    <style>
      .cls-1 {
        isolation: isolate;
      }

      .cls-2 {
        clip-path: url(#clippath);
      }

      .cls-3 {
        fill: none;
      }

      .cls-4 {
        fill: red;
      }
    </style>
    <clipPath id="clippath">
      <polygon class="cls-3" points="144.69 1210 142.41 404.65 843.28 0 845.56 805.35 144.69 1210"/>
    </clipPath>
  </defs>
  <g id="Calque_1-2" data-name="Calque 1">
    <g class="cls-1">
      <g class="cls-2">
        <path class="cls-4" d="m402.09,940.76c-82.41,11.68-143.93-33.65-163.97-120.81l99.55-57.48c10.04,69.86,31.86,130.26,64.42,178.29m92.64-70.66c-33.35-41.36-56.47-95.3-68.17-158.95l135.21-78.07c-11.3,76.93-34.05,157.34-67.05,237.01m92.74-36.37c32.19-85.4,53.6-170.76,63.2-251.97l99.55-57.48c-19.47,109.97-80.54,226.07-162.75,309.44m-165.04-221.03c7.94-87.15,32.16-180.45,70.8-272.79,39.04,47.5,63.71,112.58,72.11,190.28l-142.91,82.51m-189.64,109.49c10.83-119.05,75.56-252.57,167.7-345.92-37.22,98.09-59.76,196.04-66.14,287.28l-101.57,58.64m420.63-242.85c-6.87-83.6-29.9-155.23-67.55-210.1,92.37-13.17,157.64,45.29,169.12,151.46l-101.57,58.64m-160.58-277.01c-193.54,111.74-349.92,382.6-349.29,605,.63,222.39,158.04,312.09,351.58,200.35,193.54-111.74,349.92-382.61,349.29-605-.84-222.17-158.12-311.81-351.58-200.35"/>
      </g>
    </g>
  </g>
</svg>