<svg width="100%" height="100%" viewBox="0 0 211 211" fill="none" xmlns="http://www.w3.org/2000/svg">
<g clip-path="url(#clip0_2860_20163)">
<rect y="0.895874" width="210.104" height="210.104" rx="8" fill="#DADADA"/>
<mask id="mask0_2860_20163" style="mask-type:luminance" maskUnits="userSpaceOnUse" x="0" y="0" width="211" height="211">
<path d="M210.104 0.895874H0V211H210.104V0.895874Z" fill="white"/>
</mask>
<g mask="url(#mask0_2860_20163)">
<path fill-rule="evenodd" clip-rule="evenodd" d="M163.546 129.293V82.603C163.546 50.3704 137.358 24.2407 105.052 24.2407C72.7471 24.2407 46.5586 50.3704 46.5586 82.603V129.293C46.5586 161.526 72.7471 187.655 105.052 187.655C137.358 187.655 163.546 161.526 163.546 129.293ZM105.052 0.895874C59.825 0.895874 23.1611 37.4774 23.1611 82.603V129.293C23.1611 174.419 59.825 211 105.052 211C150.279 211 186.943 174.419 186.943 129.293V82.603C186.943 37.4774 150.279 0.895874 105.052 0.895874Z" fill="#F1F1F1"/>
<path fill-rule="evenodd" clip-rule="evenodd" d="M116.908 129.44V82.4559C116.908 75.9688 111.6 70.7099 105.052 70.7099C98.5041 70.7099 93.1959 75.9688 93.1959 82.4559V129.44C93.1959 135.927 98.5041 141.186 105.052 141.186C111.6 141.186 116.908 135.927 116.908 129.44ZM105.052 47.2179C85.408 47.2179 69.4834 62.9946 69.4834 82.4559V129.44C69.4834 148.902 85.408 164.677 105.052 164.677C124.696 164.677 140.621 148.902 140.621 129.44V82.4559C140.621 62.9946 124.696 47.2179 105.052 47.2179Z" fill="#F1F1F1"/>
</g>
</g>
<defs>
<clipPath id="clip0_2860_20163">
<rect y="0.895874" width="210.104" height="210.104" rx="8" fill="white"/>
</clipPath>
</defs>
</svg>
